<svg width="66" height="66" viewBox="0 0 66 66" fill="none" xmlns="http://www.w3.org/2000/svg">
<g clip-path="url(#clip0)">
<path d="M62.9712 10.1025L51.4854 5.31735C50.2255 4.79257 48.7804 4.7927 47.5206 5.31748L42.006 7.61446C41.5131 7.81993 41.2799 8.38583 41.4852 8.87877C41.6906 9.37171 42.2565 9.60503 42.7496 9.39955L48.2642 7.10244C49.0511 6.7745 49.9544 6.77437 50.742 7.10231L62.2271 11.8872C63.3443 12.3532 64.0663 13.4011 64.0663 14.5564V55.9031C64.0663 57.511 62.6853 58.819 60.988 58.819H59.4205C58.8864 58.819 58.4537 59.2517 58.4537 59.7858C58.4537 60.3198 58.8864 60.7526 59.4205 60.7526H60.988C63.7515 60.7526 65.9998 58.5772 65.9998 55.9031V14.5564C65.9998 12.6182 64.8111 10.87 62.9712 10.1025Z" fill="#0EBAB9"/>
<path d="M55.2067 58.8191H38.9619C39.6308 58.0588 39.997 57.0942 39.997 56.0734C39.997 55.0547 39.6282 54.121 39.018 53.3971C39.4028 53.2007 39.7591 52.9438 40.0736 52.6294C40.8589 51.844 41.2913 50.7997 41.2913 49.6887C41.2913 48.6296 40.8927 47.6623 40.2385 46.9273C40.5624 46.7438 40.8641 46.5164 41.1342 46.246C41.9195 45.4608 42.352 44.4165 42.352 43.3052C42.352 42.2492 41.9559 41.2844 41.3054 40.55C41.6348 40.3652 41.9416 40.1349 42.2167 39.8605C43.0014 39.0739 43.4335 38.0299 43.4335 36.9204C43.4335 34.6266 41.568 32.7606 39.2749 32.7606H34.9398V14.5564C34.9398 13.4009 35.6618 12.353 36.7784 11.8873L38.5368 11.1551C39.0297 10.9499 39.2629 10.384 39.0577 9.89094C38.8523 9.398 38.2864 9.16442 37.7935 9.37003L36.0345 10.1025C34.1948 10.8699 33.0062 12.6182 33.0062 14.5564V32.7607H28.9667C30.3118 28.5099 30.1973 24.0736 28.6275 18.9247C28.389 18.1449 27.9146 17.4771 27.2553 16.9933C26.5998 16.5125 25.823 16.2581 25.0087 16.2581C23.9597 16.2581 22.9842 16.6771 22.2619 17.4378C21.5398 18.1983 21.1722 19.194 21.2266 20.2412C21.5289 26.0545 18.8474 28.0554 15.136 30.8249C13.9141 31.7367 12.5787 32.7339 11.2661 33.9568V32.6897C11.2661 32.1556 10.8334 31.7229 10.2994 31.7229H0.966797C0.432738 31.7229 0 32.1556 0 32.6897V60.1093C0 60.6434 0.432738 61.0761 0.966797 61.0761H10.2996C10.8337 61.0761 11.2664 60.6434 11.2664 60.1093V57.6771C13.1027 57.8518 14.4438 58.2178 15.7468 59.2164C16.6022 59.872 17.6567 60.2331 18.7159 60.2331H35.7665C36.4631 60.5726 37.2353 60.7526 38.0182 60.7526H55.2066C55.7406 60.7526 56.1733 60.3198 56.1733 59.7858C56.1733 59.2517 55.7406 58.8191 55.2067 58.8191ZM16.9231 57.6816C15.1001 56.2847 13.1518 55.8966 11.2664 55.7337V44.4448C11.2664 43.9107 10.8337 43.478 10.2996 43.478C9.76555 43.478 9.33281 43.9107 9.33281 44.4448V59.1427H1.93359V33.6566H9.33281V40.2322C9.33281 40.7663 9.76555 41.199 10.2996 41.199C10.8337 41.199 11.2664 40.7663 11.2664 40.2322V36.7034C12.8837 34.9187 14.6154 33.6264 16.2927 32.3748C20.0064 29.6037 23.5139 26.9861 23.158 20.1409C23.1313 19.6285 23.3111 19.1414 23.6646 18.7692C24.0181 18.3968 24.4955 18.1919 25.0091 18.1919C25.4091 18.1919 25.7903 18.3165 26.1116 18.5524C26.4325 18.7878 26.6631 19.1121 26.7786 19.4897C28.3774 24.7342 28.3524 29.1467 26.6998 33.376C26.5836 33.6735 26.6218 34.0092 26.8019 34.273C26.982 34.5369 27.2808 34.6947 27.6002 34.6947H39.2752C40.5021 34.6947 41.5002 35.6933 41.5002 36.9209C41.5002 37.5145 41.2686 38.0736 40.8495 38.4937C40.428 38.9142 39.869 39.1458 39.2752 39.1458H35.3036C34.7695 39.1458 34.3368 39.5786 34.3368 40.1126C34.3368 40.6467 34.7695 41.0794 35.3036 41.0794H38.1936C39.4204 41.0794 40.4186 42.0781 40.4186 43.3058C40.4186 43.9004 40.1873 44.4592 39.7671 44.8793C39.3471 45.2994 38.7883 45.5307 38.1936 45.5307H35.3036C34.7695 45.5307 34.3368 45.9634 34.3368 46.4975C34.3368 47.0315 34.7695 47.4643 35.3036 47.4643H37.1326C38.3595 47.4643 39.3577 48.4624 39.3577 49.6892C39.3577 50.2837 39.1263 50.8427 38.7063 51.2628C38.2853 51.6838 37.7263 51.9154 37.1326 51.9154H35.8384H34.2425C33.7085 51.9154 33.2757 52.3481 33.2757 52.8822C33.2757 53.4163 33.7085 53.849 34.2425 53.849H35.8384C37.0653 53.849 38.0634 54.8471 38.0634 56.0739C38.0634 56.6684 37.8318 57.2279 37.4128 57.6479C37.0202 58.0396 36.3999 58.2896 35.9357 58.2978C35.9036 58.2983 18.7159 58.3001 18.7159 58.3001C18.0796 58.2995 17.4428 58.0801 16.9231 57.6816Z" fill="#0EBAB9"/>
<path d="M52.9923 14.986C52.9923 12.9544 51.3395 11.3016 49.3079 11.3016C47.2764 11.3016 45.6235 12.9544 45.6235 14.986C45.6235 17.0175 47.2764 18.6704 49.3079 18.6704C51.3395 18.6704 52.9923 17.0175 52.9923 14.986ZM47.5571 14.986C47.5571 14.0206 48.3426 13.2352 49.3079 13.2352C50.2733 13.2352 51.0587 14.0206 51.0587 14.986C51.0587 15.9514 50.2733 16.7368 49.3079 16.7368C48.3426 16.7368 47.5571 15.9515 47.5571 14.986Z" fill="#0EBAB9"/>
<path d="M49.9119 47.9743H48.1779C47.2646 47.9743 46.5216 47.2312 46.5216 46.3179C46.5216 45.7838 46.0889 45.3511 45.5548 45.3511C45.0208 45.3511 44.588 45.7838 44.588 46.3179C44.588 48.264 46.1447 49.8521 48.078 49.9054V52.045C48.078 52.579 48.5108 53.0117 49.0448 53.0117C49.5789 53.0117 50.0116 52.579 50.0116 52.045V49.9054C51.9451 49.8521 53.5018 48.264 53.5018 46.3179V44.9795C53.5018 43.7377 52.7083 42.6458 51.5273 42.2619L47.16 40.8433C46.7781 40.7191 46.5216 40.3662 46.5216 39.9648V38.0483C46.5216 37.3066 47.125 36.703 47.8668 36.703H50.2232C50.9649 36.703 51.5683 37.3066 51.5683 38.0483C51.5683 38.5824 52.001 39.0151 52.5351 39.0151C53.0691 39.0151 53.5019 38.5824 53.5019 38.0483C53.5019 36.2404 52.0311 34.7695 50.2232 34.7695H50.0116V32.6324C50.0116 32.0984 49.5789 31.6656 49.0448 31.6656C48.5108 31.6656 48.078 32.0984 48.078 32.6324V34.7695H47.8666C46.0588 34.7695 44.5879 36.2403 44.5879 38.0483V39.9648C44.5879 41.2065 45.3813 42.2985 46.5624 42.6822L50.9296 44.1008C51.3115 44.225 51.568 44.5781 51.568 44.9795V46.3179C51.5683 47.2312 50.8252 47.9743 49.9119 47.9743Z" fill="#0EBAB9"/>
</g>
<defs>
<clipPath id="clip0">
<rect width="66" height="66" fill="white"/>
</clipPath>
</defs>
</svg>
