<svg width="66" height="66" viewBox="0 0 66 66" fill="none" xmlns="http://www.w3.org/2000/svg">
<path d="M65.8807 53.4326C65.571 51.9422 64.6948 50.6687 63.4133 49.8464C62.1318 49.0246 60.6096 48.7593 59.1252 49.0987L52.2458 50.6737V47.8615C53.6255 46.5618 55.0621 44.8649 56.0838 43.314C57.8754 40.5944 59.1433 37.6079 59.8523 34.4391C60.6952 30.6691 60.7133 26.6781 59.9041 22.896C59.7551 22.2001 59.0698 21.7559 58.3739 21.9055C57.6775 22.054 57.2344 22.7394 57.3829 23.4358C58.1151 26.8563 58.099 30.4667 57.3361 33.8762C56.6956 36.7393 55.5495 39.4377 53.9306 41.8955C53.4508 42.6242 52.8687 43.3885 52.2458 44.1187V29.8302C52.2458 29.1182 51.6687 28.5411 50.9567 28.5411H40.7596V14.7754C40.7596 14.0654 40.185 13.4888 39.475 13.4863L27.9888 13.4475C27.9873 13.4475 27.9863 13.4475 27.9847 13.4475C27.6433 13.4475 27.316 13.5825 27.0748 13.8237C26.8321 14.0654 26.6957 14.3937 26.6957 14.7366V21.8974H16.497C15.7855 21.8974 15.2079 22.4745 15.2079 23.1865V35.9517H12.3357V34.2009C12.3357 33.4894 11.7587 32.9124 11.0467 32.9124H9.72437C9.49928 31.6732 9.36887 30.4143 9.33815 29.1575C9.26262 26.1015 9.74702 23.1115 10.7773 20.2695C11.0175 19.6068 11.2904 18.9462 11.588 18.3067C11.8886 17.6612 11.6086 16.8943 10.9636 16.5937C10.318 16.2941 9.55115 16.573 9.25104 17.2186C8.92122 17.9265 8.61909 18.6577 8.35373 19.3908C7.21371 22.5354 6.67795 25.8432 6.76053 29.2209C6.79124 30.4556 6.90907 31.6913 7.10898 32.9124H1.28906C0.577057 32.9124 0 33.4894 0 34.2014V56.8597C0 57.5717 0.577057 58.1488 1.28906 58.1488H11.0467C11.7587 58.1488 12.3357 57.5717 12.3357 56.8597V55.6341H17.1848L36.8274 63.3383C38.6613 64.0578 40.5823 64.4199 42.5134 64.4199C43.8009 64.4199 45.094 64.2587 46.3675 63.935L61.7632 60.022C64.6858 59.2792 66.494 56.3849 65.8807 53.4326ZM49.6682 31.1193V51.2639L46.222 52.0529C45.8513 52.1375 45.4767 52.2045 45.1001 52.2569C43.664 52.4548 42.1987 52.413 40.7777 52.1315C40.7716 52.13 40.7656 52.129 40.7596 52.1275V50.1727C41.7425 48.7064 42.0683 46.8473 41.5531 45.1504C41.4096 44.6771 41.2057 44.2204 40.9464 43.7989C40.8875 43.7032 40.826 43.6096 40.7621 43.5179C40.7616 43.5164 40.7606 43.5154 40.7596 43.5139V31.1188H49.6682V31.1193ZM29.2738 16.0302L38.1819 16.0599V41.4665L33.2034 39.406L29.2738 37.7791V16.0302ZM17.786 24.4756H26.6942V36.7111L25.0954 36.0494C24.9388 35.9845 24.7711 35.9512 24.6025 35.9512H17.786V24.4756ZM9.7576 55.5707H2.57812V35.49H8.65988C8.6624 35.49 8.66542 35.4905 8.66844 35.4905C8.67096 35.4905 8.67297 35.49 8.67549 35.49H9.7576V55.5707ZM61.1283 57.5234L45.7325 61.4364C43.0748 62.1116 40.321 61.9389 37.7685 60.9384L17.8993 53.1451C17.7493 53.0862 17.5897 53.0565 17.4285 53.0565H12.3357V38.5299H24.3457L32.6863 41.9821L37.2504 43.8714C38.8652 44.5411 39.6382 46.4354 38.976 48.0483C38.8431 48.3721 38.6784 48.6797 38.4599 48.9542C37.6527 49.9728 36.3239 50.422 35.0811 50.1198C35.0711 50.1173 35.061 50.1148 35.0509 50.1123C34.9764 50.0937 34.9024 50.072 34.8289 50.0478L26.1554 46.7134C26.0849 46.6862 26.0476 46.6721 26.0476 46.6721C25.3835 46.4163 24.6377 46.7481 24.3819 47.4128C24.1266 48.077 24.4579 48.8232 25.1226 49.0785C25.1226 49.0785 30.013 50.9587 33.7422 52.3969C33.8172 52.4261 33.8918 52.4532 33.9668 52.4784L36.8304 53.5797C37.696 53.9125 38.5576 54.2438 39.4584 54.474C40.9882 54.8647 42.5758 55.0218 44.1529 54.9357C45.0422 54.8874 45.9299 54.7645 46.798 54.5661L51.2448 53.5484C51.2493 53.5474 51.2538 53.5454 51.2584 53.5444L59.7007 51.6118C60.5039 51.428 61.3282 51.5716 62.021 52.0162C62.7149 52.4613 63.1887 53.1507 63.3564 53.9573C63.6888 55.5551 62.7099 57.1216 61.1283 57.5234Z" fill="#0EBAB9"/>
<path d="M16.4842 10.8442C16.7923 10.8442 17.1015 10.7345 17.3477 10.5119C19.6479 8.43429 22.3947 6.77714 25.2926 5.7192C28.4322 4.57315 31.8739 4.08421 35.2461 4.30577C37.6595 4.46438 40.0242 4.9795 42.274 5.83653C42.9387 6.08981 43.6839 5.75647 43.9372 5.09079C44.191 4.42561 43.8571 3.68087 43.1914 3.42759C40.7019 2.47892 38.0855 1.90892 35.4153 1.73318C31.6881 1.48846 27.8818 2.02926 24.4084 3.29768C21.2023 4.46791 18.1635 6.3013 15.6201 8.59845C15.0914 9.0758 15.0501 9.89103 15.5274 10.4192C15.7817 10.7012 16.1322 10.8442 16.4842 10.8442Z" fill="#0EBAB9"/>
<path d="M45.7473 20.0439C45.9915 20.2559 46.2926 20.3596 46.5922 20.3596C46.9523 20.3596 47.3108 20.2096 47.5661 19.9165L58.1716 7.70819C58.6389 7.17091 58.5815 6.35669 58.0443 5.88991C57.5065 5.42312 56.6928 5.48002 56.226 6.0173L45.6199 18.2256C45.1526 18.7629 45.21 19.5771 45.7473 20.0439Z" fill="#0EBAB9"/>
<path d="M55.2514 14.5327C53.4668 14.5327 52.0151 15.9844 52.0151 17.7689C52.0151 19.5535 53.4668 21.0052 55.2514 21.0052C57.0359 21.0052 58.4876 19.553 58.4876 17.7689C58.4876 15.9844 57.0359 14.5327 55.2514 14.5327ZM55.2514 18.4271C54.8883 18.4271 54.5933 18.132 54.5933 17.7689C54.5933 17.4064 54.8883 17.1108 55.2514 17.1108C55.6139 17.1108 55.9095 17.4064 55.9095 17.7689C55.9095 18.132 55.6139 18.4271 55.2514 18.4271Z" fill="#0EBAB9"/>
<path d="M48.0932 11.663C49.8777 11.663 51.3294 10.2113 51.3294 8.42674C51.3294 6.6422 49.8777 5.19049 48.0932 5.19049C46.3086 5.19049 44.8569 6.6422 44.8569 8.42674C44.8569 10.2113 46.3086 11.663 48.0932 11.663ZM48.0932 7.76811C48.4562 7.76811 48.7513 8.06369 48.7513 8.42674C48.7513 8.78929 48.4562 9.08487 48.0932 9.08487C47.7301 9.08487 47.4351 8.78929 47.4351 8.42674C47.4351 8.06369 47.7301 7.76811 48.0932 7.76811Z" fill="#0EBAB9"/>
<path d="M11.9015 13.8735C12.1079 14.369 12.616 14.6963 13.1543 14.6681C13.6865 14.6404 14.1528 14.2804 14.3175 13.7749C14.4836 13.2648 14.3024 12.6837 13.8759 12.3579C13.4413 12.0266 12.831 12.0059 12.3758 12.3085C11.8708 12.6444 11.6683 13.3141 11.9015 13.8735Z" fill="#0EBAB9"/>
</svg>
