<svg width="66" height="66" viewBox="0 0 66 66" fill="none" xmlns="http://www.w3.org/2000/svg">
<g clip-path="url(#clip0)">
<path d="M63.9376 26.6833H59.9778C59.9134 26.6833 59.857 26.6417 59.8432 26.5842C59.1687 23.7527 58.0504 21.0546 56.5191 18.5652C56.485 18.51 56.4917 18.4412 56.5351 18.398L59.3428 15.5903C59.7323 15.2006 59.9468 14.6828 59.9468 14.132C59.9468 13.581 59.7323 13.0631 59.3428 12.6737L53.3262 6.65723C52.9368 6.26755 52.4188 6.05305 51.8679 6.05305C51.3171 6.05305 50.7992 6.26755 50.4096 6.65711L47.6019 9.46481C47.5585 9.50813 47.4896 9.51483 47.4347 9.4808C44.9452 7.94952 42.2472 6.83113 39.4157 6.15669C39.3583 6.14303 39.3165 6.08644 39.3165 6.02224V2.06237C39.3167 0.92516 38.3915 0 37.2543 0H28.7456C27.6085 0 26.6832 0.92516 26.6832 2.06237V6.02224C26.6832 6.08657 26.6416 6.14303 26.5841 6.15669C23.7525 6.83126 21.0545 7.94952 18.5651 9.4808C18.51 9.51496 18.4409 9.50825 18.3979 9.46481L15.5902 6.65711C15.2005 6.26755 14.6827 6.05305 14.1319 6.05305C13.5809 6.05305 13.063 6.26755 12.6735 6.65711L6.65736 12.6738C6.26768 13.0632 6.05318 13.5812 6.05318 14.1321C6.05318 14.6829 6.26768 15.2008 6.65723 15.5904L9.46494 18.3981C9.50825 18.4413 9.51496 18.5102 9.48093 18.5653C7.94965 21.0548 6.83126 23.7528 6.15682 26.5843C6.14316 26.6417 6.08657 26.6835 6.02224 26.6835H2.06237C0.92516 26.6833 0 27.6085 0 28.7457V37.2544C0 38.3915 0.92516 39.3168 2.06237 39.3168H6.02224C6.08657 39.3168 6.14303 39.3584 6.15682 39.4159C6.83126 42.2475 7.94965 44.9455 9.48093 47.4349C9.51496 47.4901 9.50825 47.5589 9.46494 47.6021L6.65723 50.4099C6.26768 50.7995 6.05318 51.3175 6.05318 51.8683C6.05318 52.4192 6.26768 52.9372 6.65723 53.3266L12.6738 59.343C13.0632 59.7326 13.5812 59.9472 14.1321 59.9472C14.6829 59.9472 15.2008 59.7327 15.5904 59.3432L18.3981 56.5354C18.4412 56.4919 18.5103 56.4852 18.5653 56.5195C21.0546 58.0506 23.7527 59.1691 26.5846 59.8437C26.6418 59.8574 26.6835 59.9139 26.6835 59.9781V63.938C26.6835 65.0751 27.6086 66.0004 28.7458 66.0004H37.2546C38.3916 66.0004 39.3169 65.0752 39.3169 63.938V59.9781C39.3169 59.9139 39.3586 59.8575 39.4161 59.8437C42.2477 59.1691 44.9456 58.0506 47.4351 56.5195C47.49 56.4853 47.5591 56.492 47.6022 56.5354L50.4099 59.3432C50.7996 59.7326 51.3175 59.9472 51.8683 59.9472C52.4192 59.9472 52.9372 59.7327 53.3265 59.3432L54.7457 57.9239C55.1225 57.5472 55.1225 56.9363 54.7458 56.5597C54.369 56.183 53.7582 56.1829 53.3816 56.5596L51.9621 57.9789C51.93 58.011 51.8933 58.0179 51.8681 58.0179C51.843 58.0179 51.8064 58.011 51.7742 57.9788L48.9665 55.1711C48.2887 54.4934 47.2431 54.3721 46.424 54.876C44.1094 56.2999 41.601 57.3398 38.969 57.9669C38.0379 58.1885 37.3875 59.0156 37.3875 59.9781V63.938C37.3875 64.0114 37.3278 64.071 37.2544 64.071H28.7457C28.6724 64.071 28.6127 64.0114 28.6127 63.938V59.9781C28.6127 59.0156 27.9623 58.1885 27.0314 57.9669C24.3991 57.3398 21.8907 56.2999 19.5761 54.876C18.7568 54.3724 17.7115 54.4934 17.0337 55.1711L14.226 57.9788C14.1939 58.011 14.1571 58.0179 14.132 58.0179C14.1069 58.0179 14.0702 58.011 14.038 57.9788L8.02132 51.9622C7.98922 51.9301 7.98239 51.8934 7.98239 51.8683C7.98239 51.8431 7.98922 51.8065 8.02145 51.7743L10.8292 48.9666C11.5067 48.2889 11.628 47.2435 11.1242 46.4242C9.7002 44.1094 8.66044 41.601 8.03344 38.9689C7.81159 38.0379 6.98453 37.3876 6.02211 37.3876H2.06237C1.98902 37.3876 1.92934 37.3279 1.92934 37.2546V28.7458C1.92934 28.6725 1.98902 28.6128 2.06237 28.6128H6.02224C6.98466 28.6128 7.81172 27.9626 8.03357 27.0315C8.66057 24.3994 9.70032 21.891 11.1244 19.5762C11.6281 18.7569 11.5068 17.7115 10.8293 17.0338L8.02158 14.2261C7.98935 14.194 7.98252 14.1573 7.98252 14.1321C7.98252 14.107 7.98935 14.0704 8.02158 14.0381L14.0381 8.02145C14.0702 7.98935 14.107 7.98252 14.1321 7.98252C14.1573 7.98252 14.1939 7.98935 14.2261 8.02158L17.0338 10.8293C17.7116 11.5067 18.7569 11.6281 19.5762 11.1244C21.891 9.70032 24.3994 8.66057 27.0315 8.03357C27.9625 7.81172 28.6128 6.98466 28.6128 6.02224V2.06237C28.6128 1.98902 28.6725 1.92934 28.7458 1.92934H37.2546C37.3279 1.92934 37.3876 1.98902 37.3876 2.06237V6.02224C37.3876 6.98466 38.0378 7.81172 38.9689 8.03357C41.601 8.66057 44.1094 9.70032 46.4242 11.1244C47.2435 11.628 48.2888 11.5069 48.9666 10.8293L51.7743 8.02158C51.8064 7.98935 51.8431 7.98252 51.8683 7.98252C51.8934 7.98252 51.93 7.98935 51.9622 8.02158L57.9789 14.0381C58.011 14.0702 58.0179 14.107 58.0179 14.1321C58.0179 14.1573 58.011 14.1939 57.9788 14.2261L55.1711 17.0338C54.4936 17.7115 54.3723 18.7569 54.876 19.5762C56.3001 21.891 57.3398 24.3994 57.9668 27.0315C58.1887 27.9625 59.0157 28.6128 59.9781 28.6128H63.938C64.0114 28.6128 64.071 28.6725 64.071 28.7458V37.2546C64.071 37.3279 64.0114 37.3876 63.938 37.3876H59.9781C59.0157 37.3876 58.1887 38.0378 57.9668 38.9689C57.3398 41.601 56.3001 44.1094 54.876 46.4242C54.3723 47.2435 54.4936 48.2889 55.1711 48.9666L57.9788 51.7743C58.011 51.8064 58.0179 51.8431 58.0179 51.8683C58.0179 51.8934 58.011 51.93 57.9788 51.9622L56.5433 53.3977C56.1666 53.7745 56.1666 54.3853 56.5433 54.7621C56.92 55.1385 57.5307 55.1387 57.9076 54.7621L59.343 53.3266C59.7327 52.9372 59.9472 52.4192 59.9472 51.8683C59.9472 51.3175 59.7327 50.7996 59.3432 50.4099L56.5354 47.6021C56.4921 47.5589 56.4854 47.4901 56.5195 47.4349C58.0507 44.9455 59.1691 42.2475 59.8436 39.4159C59.8572 39.3586 59.9138 39.3168 59.9781 39.3168H63.938C65.0751 39.3168 66.0004 38.3916 66.0004 37.2544V28.7457C66 27.6085 65.0748 26.6833 63.9376 26.6833Z" fill="#0EBAB9"/>
<path d="M13.6322 29.1368C13.1052 29.0577 12.6149 29.423 12.5369 29.9499C12.3885 30.953 12.3135 31.9791 12.3135 33C12.3135 44.4065 21.5933 53.6864 32.9998 53.6864C44.4064 53.6864 53.6862 44.4065 53.6862 33C53.6862 21.5935 44.4064 12.3136 32.9998 12.3136C28.7771 12.3136 24.7155 13.5778 21.254 15.9695C17.8733 18.3055 15.2863 21.5507 13.7715 25.3571L13.7325 25.4561C13.5369 25.9517 13.78 26.512 14.2757 26.7076C14.7711 26.903 15.3316 26.66 15.5271 26.1644L15.5651 26.0681C16.9377 22.6188 19.2842 19.6757 22.3506 17.5569C25.4883 15.3888 29.1707 14.243 32.9998 14.243C43.3425 14.243 51.7569 22.6573 51.7569 33C51.7569 43.3427 43.3425 51.757 32.9998 51.757C22.6572 51.757 14.2428 43.3427 14.2428 33C14.2428 32.0732 14.311 31.1419 14.4455 30.232C14.5233 29.705 14.1593 29.2147 13.6322 29.1368Z" fill="#0EBAB9"/>
<path d="M30.2593 43.0147C30.299 43.0147 30.3387 43.0142 30.3782 43.0131C31.4915 42.9811 32.5629 42.4937 33.3177 41.6759L44.124 29.9715C44.8782 29.1546 45.2693 28.0929 45.2251 26.982C45.1807 25.8711 44.7066 24.8438 43.8896 24.0896C42.2034 22.5327 39.5645 22.638 38.0076 24.3242L30.0899 32.8996L27.8267 30.712C26.1762 29.1171 23.5358 29.1623 21.9409 30.8126C20.3459 32.4628 20.3909 35.103 22.0411 36.6982L27.3667 41.8453C28.1469 42.5994 29.1742 43.0147 30.2593 43.0147ZM23.328 32.1532C23.7655 31.7006 24.3496 31.4731 24.9342 31.4731C25.4933 31.4731 26.0531 31.6813 26.486 32.0993L29.4589 34.9727C29.6456 35.153 29.8986 35.2498 30.1567 35.2434C30.4163 35.236 30.6619 35.1242 30.8381 34.9335L39.4252 25.6329C40.2606 24.7281 41.6763 24.672 42.5808 25.5069C43.019 25.9116 43.2734 26.4626 43.2971 27.0588C43.3209 27.6549 43.1111 28.2244 42.7064 28.6627L31.8998 40.3674C31.495 40.806 30.9201 41.0675 30.3225 41.0846C29.7184 41.1019 29.141 40.8773 28.7072 40.4581L23.3818 35.311C22.4966 34.4551 22.4725 33.0385 23.328 32.1532Z" fill="#0EBAB9"/>
</g>
<defs>
<clipPath id="clip0">
<rect width="66" height="66" fill="white"/>
</clipPath>
</defs>
</svg>
