<svg width="66" height="90" viewBox="0 0 66 90" fill="none" xmlns="http://www.w3.org/2000/svg">
<path d="M19.3955 33.0528C20.1238 33.0528 20.7139 32.4627 20.7139 31.7345V31.2815C20.7139 30.5532 20.1238 29.9631 19.3955 29.9631C18.6672 29.9631 18.0771 30.5532 18.0771 31.2815V31.7345C18.0771 32.4626 18.6672 33.0528 19.3955 33.0528Z" fill="#0EBAB9"/>
<path d="M36.3481 33.0528C37.0764 33.0528 37.6665 32.4627 37.6665 31.7345V31.2815C37.6665 30.5532 37.0764 29.9631 36.3481 29.9631C35.6199 29.9631 35.0298 30.5532 35.0298 31.2815V31.7345C35.0298 32.4626 35.6201 33.0528 36.3481 33.0528Z" fill="#0EBAB9"/>
<path d="M27.8718 43.0794C30.2846 43.0794 32.456 41.7412 33.5392 39.587C33.8663 38.9366 33.6042 38.144 32.9537 37.8171C32.3033 37.4898 31.5105 37.752 31.1837 38.4026C30.5507 39.661 29.282 40.4427 27.8718 40.4427C26.4617 40.4427 25.1928 39.661 24.5598 38.4026C24.2327 37.7518 23.4402 37.4896 22.7898 37.8171C22.1393 38.144 21.8772 38.9366 22.2043 39.587C23.2875 41.741 25.4593 43.0794 27.8718 43.0794Z" fill="#0EBAB9"/>
<path d="M62.6899 64.1426H60.3004V53.2345C60.3004 51.0079 58.4889 49.1965 56.2625 49.1965C54.0359 49.1965 52.2244 51.0079 52.2244 53.2345V64.1426H48.7543C48.4466 63.3658 48.0563 62.723 47.5861 62.2291C45.2503 59.7709 41.3763 58.4216 38.2516 57.6962C38.2486 57.6955 38.246 57.6942 38.243 57.6934C38.2286 57.6897 38.2141 57.6876 38.1996 57.6842C37.9215 57.6201 37.649 57.5605 37.3848 57.506C36.8698 57.3998 36.4848 56.9859 36.4268 56.4759L35.9573 52.3368C38.9902 53.1545 41.6732 54.4497 43.7498 56.1045C44.2245 56.4817 44.794 56.665 45.3605 56.6649C46.1157 56.6649 46.865 56.339 47.3741 55.712C56.8501 44.0475 56.2119 28.7455 52.4551 18.3147C46.6782 2.2764 33.6122 0.172471 28.2628 0.0125096C21.1475 -0.199307 14.5473 2.31313 12.4903 5.93282C8.94604 7.32835 5.67493 11.2571 3.44936 16.8256C3.17919 17.5017 3.50825 18.2688 4.18448 18.5392C4.86089 18.809 5.62765 18.4804 5.898 17.804C7.91245 12.7633 10.8781 9.19286 13.831 8.25261C14.1954 8.13659 14.4916 7.868 14.6424 7.51643C15.7222 5.00171 21.4207 2.44392 28.1839 2.64782C31.3172 2.74151 35.991 3.47716 40.4629 6.44909C44.7514 9.29938 47.9517 13.5921 49.9744 19.208C51.4085 23.1891 52.3605 27.9236 52.3886 32.8681C52.1598 32.441 51.8667 32.0451 51.5143 31.6927C50.5726 30.7512 49.3207 30.2326 47.9893 30.2326H46.2909C46.2727 30.0078 46.2535 29.7814 46.2333 29.5524C47.1955 29.5891 48.1713 29.6088 49.1615 29.6088C49.8897 29.6088 50.4798 29.0187 50.4798 28.2904C50.4798 27.5622 49.8897 26.9721 49.1615 26.9721C41.7103 26.9721 33.1924 25.836 26.6187 22.3968C24.682 21.3768 23.0469 20.2145 21.7775 18.9744C21.6933 18.8916 21.6091 18.8088 21.5279 18.7248C21.497 18.6931 21.4662 18.6613 21.4357 18.6295C21.1593 18.3389 20.8993 18.0426 20.6585 17.7399C20.6494 17.7283 20.6383 17.7188 20.6288 17.7075C19.7592 16.6092 19.1723 15.4704 18.9093 14.3311C18.7455 13.6218 18.0389 13.1792 17.3282 13.3432C16.6189 13.5071 16.1765 14.2149 16.3403 14.9244C16.65 16.2659 17.2649 17.5739 18.1579 18.8213C17.1032 21.6563 14.4044 23.5211 11.3644 23.4862C11.3595 23.4862 11.3544 23.4862 11.3495 23.4862C10.6861 23.4862 10.1247 23.9801 10.0417 24.6398C9.7912 26.6291 9.5952 28.4928 9.45264 30.2325H7.75513C6.4213 30.2325 5.16903 30.7514 4.22878 31.6937C3.87686 32.0467 3.58419 32.4427 3.3555 32.8699C3.24106 29.4801 3.57452 26.0264 4.3847 22.6127C4.55292 21.9043 4.11505 21.1936 3.40665 21.0256C2.69737 20.8568 1.98757 21.2954 1.81952 22.0036C0.519618 27.4796 0.353506 33.2854 1.33894 38.7935C2.48327 45.1908 5.08782 50.8938 9.08122 55.7455C9.5829 56.3539 10.3189 56.6696 11.0628 56.6696C11.6313 56.6696 12.2047 56.4852 12.6816 56.1062C14.587 54.5861 17.0198 53.3642 19.762 52.5409L19.3157 56.4752C19.2577 56.9855 18.8733 57.3996 18.3588 57.5056C18.094 57.5603 17.8209 57.6201 17.5423 57.6842C17.5289 57.6874 17.5156 57.6892 17.5022 57.6927C17.4994 57.6934 17.4969 57.6944 17.4943 57.6953C14.3687 58.4204 10.4924 59.77 8.15696 62.2278C7.27788 63.1516 6.69517 64.5306 6.37542 66.4436C6.25536 67.1618 6.74034 67.8412 7.45841 67.9613C7.53206 67.9736 7.60518 67.9796 7.67725 67.9796C8.30989 67.9796 8.86835 67.5229 8.9761 66.8783C9.25858 65.1875 9.72528 64.4045 10.0675 64.0447C11.4253 62.6159 13.8333 61.4027 16.9508 60.5525C19.0937 66.6327 24.7103 71.6631 27.3677 72.761C27.5289 72.8276 27.7001 72.8608 27.8712 72.8608C28.0426 72.8608 28.2138 72.8274 28.3753 72.7606C28.9183 72.536 29.5339 72.1816 30.1915 71.7209V87.3633H11.0422C10.4599 84.7892 8.97522 77.7405 8.75427 71.8434C8.72702 71.1157 8.11917 70.5555 7.38739 70.5753C6.65983 70.6026 6.09206 71.2146 6.11931 71.9422C6.40407 79.5359 8.62173 88.6142 8.71595 88.9968C8.86096 89.5859 9.38936 89.9999 9.99599 89.9999H62.6898C64.1262 89.9999 65.2947 88.8313 65.2947 87.3948V66.7477C65.2948 65.3112 64.1262 64.1426 62.6899 64.1426ZM57.6636 76.3932H54.8613V58.911H57.6636V76.3932ZM57.2565 79.0299C57.0489 79.5481 56.7357 80.2517 56.2623 81.1964C55.7889 80.2517 55.4757 79.5481 55.2681 79.0299H57.2565ZM56.2625 51.8333C57.0352 51.8333 57.6636 52.4619 57.6636 53.2347V56.2745H54.8613V53.2347C54.8612 52.4619 55.4899 51.8333 56.2625 51.8333ZM45.759 64.1426H37.0812C37.3656 63.6659 37.6281 63.1869 37.8679 62.7081C37.8958 62.6587 37.9215 62.6079 37.9429 62.5553C38.2716 61.885 38.5562 61.2155 38.7914 60.5525C41.9089 61.4027 44.3171 62.6163 45.6757 64.0461C45.704 64.076 45.7314 64.1097 45.759 64.1426ZM19.5202 59.9014C20.8318 59.3902 21.7733 58.2003 21.9356 56.7732L22.3624 53.0095C24.3844 53.5813 26.3224 53.9069 27.871 53.9069C29.4198 53.9069 31.3578 53.5813 33.38 53.0095L33.8068 56.7733C33.9689 58.2 34.9105 59.3895 36.2222 59.9008C36.09 60.255 35.942 60.612 35.7778 60.9706C33.3802 61.6778 30.6603 62.0508 27.871 62.0508C25.081 62.0508 22.3596 61.6778 19.9607 60.9701C19.8007 60.6187 19.6536 60.2622 19.5202 59.9014ZM33.8432 64.1426C33.8808 64.1356 33.9177 64.1277 33.9551 64.1205C33.9499 64.1278 33.9448 64.1352 33.9397 64.1426H33.8432ZM52.0625 38.0867C51.3267 43.6101 49.2884 49.1592 45.3568 54.0134C43.6514 52.6611 41.6039 51.5266 39.3244 50.6586C41.5362 49.4937 44.1965 47.6868 45.2663 45.3504C45.8402 44.0972 46.2252 42.377 46.421 40.2031H47.9893C49.6707 40.2031 51.159 39.3657 52.0625 38.0867ZM47.9893 32.8697C48.6165 32.8697 49.2063 33.1141 49.6498 33.5575C50.0934 34.001 50.3378 34.5908 50.3378 35.218C50.3378 36.513 49.2843 37.5664 47.9893 37.5664H46.5616C46.5921 36.1449 46.5611 34.5774 46.4701 32.8695H47.9893V32.8697ZM20.0605 20.9941C25.8792 26.5588 35.4964 28.8014 43.5728 29.4047C44.4108 38.5344 43.6641 42.5175 42.869 44.2526C42.869 44.2528 42.8688 44.2528 42.8688 44.253C41.2121 47.8714 32.304 51.2703 27.8712 51.2703C23.4392 51.2703 14.5315 47.8712 12.8735 44.2528C12.4279 43.28 12.0145 41.6479 11.8612 38.9226C11.8616 38.9099 11.8631 38.8976 11.8631 38.8848C11.8631 38.8213 11.8572 38.7596 11.8485 38.6986C11.7582 36.8828 11.7816 34.5948 11.9821 31.7152C11.9874 31.6723 11.9906 31.6287 11.9916 31.5844C12.1082 29.9421 12.281 28.112 12.5237 26.0652C15.7312 25.7154 18.5361 23.8166 20.0605 20.9941ZM6.09558 33.5563C6.53749 33.1135 7.12671 32.8697 7.75495 32.8697H9.27264C9.18124 34.5776 9.1496 36.1454 9.17983 37.5666H7.75513C6.46032 37.5666 5.40686 36.5131 5.40686 35.2182C5.40669 34.592 5.65138 34.0017 6.09558 33.5563ZM11.073 54.0169C7.4352 49.5783 5.02366 44.1985 3.95737 38.4422C4.87249 39.5185 6.23497 40.2031 7.75495 40.2031H9.32098C9.5168 42.3747 9.90124 44.0955 10.4762 45.3507C11.5952 47.793 14.4513 49.6567 16.7163 50.8133C14.5902 51.662 12.6754 52.7446 11.073 54.0169ZM27.8729 70.0756C26.3688 69.2262 23.8119 67.011 21.7819 64.1194C23.7231 64.4931 25.7824 64.6875 27.8712 64.6875C29.0976 64.6875 30.314 64.6207 31.5023 64.49C30.7204 64.9401 30.1917 65.7825 30.1917 66.7475V68.354C29.3509 69.0989 28.5339 69.7054 27.8729 70.0756ZM32.8284 66.7793H37.5725V87.3633H32.8284V66.7793ZM62.6581 87.3633H45.7481H40.2093V66.7793H52.2246V77.7115C52.2246 78.1118 52.2246 79.1751 54.3335 83.2142C54.7102 83.9352 55.4495 84.3831 56.2628 84.3829C57.0762 84.3828 57.8153 83.9349 58.1919 83.214C60.3005 79.1751 60.3005 78.1119 60.3005 77.7115V66.7793H62.6583V87.3633H62.6581Z" fill="#0EBAB9"/>
<path d="M35.2002 74.1029C35.9285 74.1029 36.5186 73.5128 36.5186 72.7846V70.9891C36.5186 70.2609 35.9285 69.6708 35.2002 69.6708C34.4719 69.6708 33.8818 70.2609 33.8818 70.9891V72.7846C33.8818 73.5128 34.4719 74.1029 35.2002 74.1029Z" fill="#0EBAB9"/>
<path d="M35.2002 80.04C34.4719 80.04 33.8818 80.6301 33.8818 81.3584V83.1538C33.8818 83.8821 34.4719 84.4722 35.2002 84.4722C35.9285 84.4722 36.5186 83.8821 36.5186 83.1538V81.3584C36.5186 80.6303 35.9283 80.04 35.2002 80.04Z" fill="#0EBAB9"/>
<path d="M35.123 78.3899H35.2763C36.0046 78.3899 36.5947 77.7998 36.5947 77.0715C36.5947 76.3433 36.0046 75.7532 35.2763 75.7532H35.123C34.3948 75.7532 33.8047 76.3433 33.8047 77.0715C33.8047 77.7998 34.395 78.3899 35.123 78.3899Z" fill="#0EBAB9"/>
</svg>
