<svg width="50" height="50" viewBox="0 0 50 50" fill="none" xmlns="http://www.w3.org/2000/svg">
<circle cx="25" cy="25" r="25" fill="white"/>
<path d="M34.3201 30.3841C34.108 30.5609 33.7927 30.5322 33.6159 30.3201C33.4391 30.108 33.4678 29.7927 33.6799 29.6159L34.3201 30.3841ZM40 25L40.3201 24.6159C40.4341 24.7109 40.5 24.8516 40.5 25C40.5 25.1484 40.4341 25.2891 40.3201 25.3841L40 25ZM33.6799 20.3841C33.4678 20.2073 33.4391 19.892 33.6159 19.6799C33.7927 19.4678 34.108 19.4391 34.3201 19.6159L33.6799 20.3841ZM33.6799 29.6159L39.6799 24.6159L40.3201 25.3841L34.3201 30.3841L33.6799 29.6159ZM39.6799 25.3841L33.6799 20.3841L34.3201 19.6159L40.3201 24.6159L39.6799 25.3841Z" fill="#0D2839"/>
<path d="M40 25L10 25" stroke="#0D2839" stroke-linecap="round" stroke-linejoin="round"/>
</svg>
