<svg width="50" height="50" viewBox="0 0 50 50" fill="none" xmlns="http://www.w3.org/2000/svg">
<circle cx="25" cy="25" r="25" transform="rotate(-180 25 25)" fill="white"/>
<path d="M15.6799 19.6159C15.892 19.4391 16.2073 19.4678 16.3841 19.6799C16.5609 19.892 16.5322 20.2073 16.3201 20.3841L15.6799 19.6159ZM10 25L9.67991 25.3841C9.56591 25.2891 9.5 25.1484 9.5 25C9.5 24.8516 9.56591 24.7109 9.67991 24.6159L10 25ZM16.3201 29.6159C16.5322 29.7927 16.5609 30.108 16.3841 30.3201C16.2073 30.5322 15.892 30.5609 15.6799 30.3841L16.3201 29.6159ZM16.3201 20.3841L10.3201 25.3841L9.67991 24.6159L15.6799 19.6159L16.3201 20.3841ZM10.3201 24.6159L16.3201 29.6159L15.6799 30.3841L9.67991 25.3841L10.3201 24.6159Z" fill="#0D2839"/>
<path d="M10 25L40 25" stroke="#0D2839" stroke-linecap="round" stroke-linejoin="round"/>
</svg>
