<svg width="52" height="59" viewBox="0 0 52 59" fill="none" xmlns="http://www.w3.org/2000/svg">
<path d="M25.4225 50.1722C25.3423 50.0925 25.2338 50.0477 25.1207 50.0477C25.0076 50.0477 24.8991 50.0925 24.8189 50.1722L17.3838 57.6031C17.304 57.6833 17.2593 57.7918 17.2593 57.9049C17.2593 58.018 17.304 58.1265 17.3838 58.2067C17.4234 58.2471 17.4707 58.2793 17.5228 58.3013C17.575 58.3234 17.631 58.3348 17.6877 58.3351C17.7443 58.3348 17.8003 58.3234 17.8525 58.3013C17.9047 58.2793 17.9519 58.2471 17.9916 58.2067L25.4225 50.7758C25.5022 50.6956 25.547 50.5871 25.547 50.474C25.547 50.3609 25.5022 50.2524 25.4225 50.1722Z" fill="#0EBAB9" stroke="#0EBAB9" stroke-width="0.5"/>
<path d="M23.7187 55.7283C23.831 55.7278 23.9386 55.6832 24.0183 55.6042L27.1345 52.488C27.2046 52.4061 27.2413 52.3007 27.2371 52.193C27.233 52.0853 27.1883 51.9831 27.1121 51.9069C27.0358 51.8306 26.9337 51.786 26.8259 51.7818C26.7182 51.7777 26.6129 51.8143 26.531 51.8844L23.4362 54.9963C23.3758 55.0562 23.3347 55.1327 23.3179 55.2161C23.3012 55.2994 23.3097 55.3859 23.3423 55.4644C23.3749 55.5429 23.4301 55.6099 23.501 55.6569C23.5718 55.7039 23.6551 55.7288 23.7401 55.7283H23.7187Z" fill="#0EBAB9" stroke="#0EBAB9" stroke-width="0.5"/>
<path d="M22.2293 56.1819L21.0265 57.3847C20.9662 57.4446 20.925 57.5211 20.9083 57.6045C20.8915 57.6878 20.9 57.7743 20.9326 57.8528C20.9652 57.9313 21.0205 57.9983 21.0913 58.0453C21.1622 58.0923 21.2454 58.1172 21.3304 58.1167C21.4433 58.1151 21.551 58.0689 21.6301 57.9883L22.8372 56.7855C22.9169 56.7053 22.9616 56.5968 22.9616 56.4837C22.9616 56.3706 22.9169 56.2621 22.8372 56.1819C22.7974 56.1418 22.75 56.11 22.6979 56.0882C22.6457 56.0665 22.5898 56.0553 22.5333 56.0553C22.4767 56.0553 22.4208 56.0665 22.3686 56.0882C22.3165 56.11 22.2691 56.1418 22.2293 56.1819Z" fill="#0EBAB9" stroke="#0EBAB9" stroke-width="0.5"/>
<path d="M1.12662 41.9493C1.20634 42.0284 1.31396 42.073 1.42625 42.0735C1.48258 42.0738 1.53843 42.063 1.59058 42.0417C1.64273 42.0204 1.69017 41.989 1.73016 41.9493L9.16107 34.5142C9.20588 34.4758 9.24227 34.4286 9.26796 34.3755C9.29366 34.3223 9.30809 34.2645 9.31037 34.2056C9.31265 34.1466 9.30271 34.0878 9.28119 34.0329C9.25968 33.978 9.22703 33.9281 9.18532 33.8864C9.1436 33.8446 9.09371 33.812 9.03878 33.7905C8.98386 33.769 8.92507 33.759 8.86612 33.7613C8.80717 33.7636 8.74933 33.778 8.69622 33.8037C8.64312 33.8294 8.59589 33.8658 8.55752 33.9106L1.12662 41.3415C1.0865 41.3813 1.05465 41.4286 1.03292 41.4808C1.01119 41.533 1 41.5889 1 41.6454C1 41.7019 1.01119 41.7579 1.03292 41.81C1.05465 41.8622 1.0865 41.9095 1.12662 41.9493Z" fill="#0EBAB9" stroke="#0EBAB9" stroke-width="0.5"/>
<path d="M4.33758 35.9182L7.44949 32.802C7.4943 32.7636 7.53069 32.7164 7.55638 32.6633C7.58207 32.6102 7.59651 32.5523 7.59879 32.4934C7.60107 32.4344 7.59113 32.3757 7.56961 32.3207C7.54809 32.2658 7.51545 32.2159 7.47374 32.1742C7.43202 32.1325 7.38213 32.0998 7.3272 32.0783C7.27227 32.0568 7.21349 32.0469 7.15454 32.0491C7.09559 32.0514 7.03775 32.0659 6.98464 32.0916C6.93153 32.1172 6.88431 32.1536 6.84594 32.1984L3.74688 35.3146C3.68797 35.3747 3.64809 35.4508 3.63221 35.5335C3.61632 35.6161 3.62515 35.7016 3.65758 35.7792C3.69 35.8569 3.7446 35.9232 3.81453 35.97C3.88447 36.0168 3.96665 36.042 4.05079 36.0423C4.15861 36.0386 4.26104 35.9942 4.33758 35.9182Z" fill="#0EBAB9" stroke="#0EBAB9" stroke-width="0.5"/>
<path d="M1.94861 38.3067L3.15142 37.1039C3.19154 37.0641 3.22339 37.0167 3.24512 36.9646C3.26685 36.9124 3.27804 36.8565 3.27804 36.8C3.27804 36.7435 3.26685 36.6875 3.24512 36.6354C3.22339 36.5832 3.19154 36.5358 3.15142 36.4961C3.07122 36.4163 2.96273 36.3716 2.84965 36.3716C2.73657 36.3716 2.62808 36.4163 2.54788 36.4961L1.34078 37.7031C1.26106 37.7833 1.21631 37.8918 1.21631 38.0049C1.21631 38.118 1.26106 38.2265 1.34078 38.3067C1.38078 38.3464 1.42821 38.3778 1.48037 38.3991C1.53252 38.4204 1.58836 38.4312 1.6447 38.4308C1.70103 38.4312 1.75687 38.4204 1.80903 38.3991C1.86118 38.3778 1.90861 38.3464 1.94861 38.3067Z" fill="#0EBAB9" stroke="#0EBAB9" stroke-width="0.5"/>
<path d="M3.27517 57.479C3.4855 57.4796 3.69325 57.4328 3.883 57.342L12.2385 53.4468C12.9403 53.1244 13.5536 52.637 14.0264 52.0263C14.4991 51.4156 14.8171 50.6996 14.9534 49.9394C15.0896 49.1792 15.04 48.3974 14.8088 47.6605C14.5776 46.9236 14.1717 46.2536 13.6256 45.7075C13.0795 45.1614 12.4094 44.7554 11.6726 44.5242C10.9357 44.293 10.1538 44.2434 9.39364 44.3797C8.63346 44.5159 7.91749 44.834 7.30678 45.3067C6.69606 45.7794 6.2087 46.3928 5.88626 47.0946L1.99103 55.4501C1.88975 55.6668 1.84463 55.9054 1.85981 56.1441C1.87499 56.3828 1.94999 56.6138 2.0779 56.8159C2.20581 57.018 2.38252 57.1847 2.59175 57.3006C2.80097 57.4165 3.036 57.4778 3.27517 57.479ZM2.76579 55.8139L6.64818 47.4542C6.91289 46.8781 7.3139 46.3751 7.81657 45.9888C8.31924 45.6025 8.90844 45.3444 9.53323 45.2369C9.76664 45.1978 10.0028 45.1778 10.2395 45.1769C10.8122 45.1814 11.3771 45.3106 11.8949 45.5555C12.4126 45.8005 12.8707 46.1553 13.2374 46.5953C13.6041 47.0353 13.8705 47.5499 14.018 48.1034C14.1656 48.6568 14.1908 49.2357 14.0919 49.7999C13.9848 50.4242 13.7274 51.0131 13.3418 51.5158C12.9563 52.0184 12.4542 52.4196 11.8789 52.6849L3.51916 56.5673C3.41372 56.6176 3.29527 56.6341 3.18011 56.6143C3.06494 56.5946 2.95874 56.5396 2.87612 56.457C2.7935 56.3743 2.73852 56.2681 2.71877 56.153C2.69901 56.0378 2.71544 55.9194 2.76579 55.8139Z" fill="#0EBAB9" stroke="#0EBAB9" stroke-width="0.5"/>
<path d="M27.717 12.8115L10.2185 15.5767C10.1293 15.5908 10.0469 15.6328 9.98303 15.6965L7.19644 18.4831C7.15632 18.5229 7.12448 18.5703 7.10274 18.6224C7.08101 18.6746 7.06982 18.7305 7.06982 18.787C7.06982 18.8435 7.08101 18.8995 7.10274 18.9517C7.12448 19.0038 7.15632 19.0512 7.19644 19.091L14.3234 26.2179L12.3073 28.2383C12.2672 28.2781 12.2354 28.3255 12.2136 28.3776C12.1919 28.4298 12.1807 28.4857 12.1807 28.5422C12.1807 28.5988 12.1919 28.6547 12.2136 28.7069C12.2354 28.759 12.2672 28.8064 12.3073 28.8462L17.2128 33.7516L15.2694 35.6992C15.2108 35.759 15.1709 35.8348 15.1549 35.917C15.1389 35.9992 15.1474 36.0844 15.1793 36.1619C15.2112 36.2393 15.2651 36.3057 15.3344 36.3529C15.4037 36.4 15.4853 36.4257 15.569 36.4269C15.6254 36.4272 15.6812 36.4164 15.7334 36.3951C15.7855 36.3738 15.833 36.3424 15.873 36.3027L17.8163 34.3594L23.0085 39.5259C23.0483 39.5661 23.0957 39.5979 23.1478 39.6196C23.2 39.6414 23.2559 39.6526 23.3124 39.6526C23.3689 39.6526 23.4249 39.6414 23.477 39.6196C23.5292 39.5979 23.5766 39.5661 23.6163 39.5259L25.6367 37.5056L32.7637 44.6326C32.8035 44.6727 32.8509 44.7045 32.903 44.7262C32.9552 44.748 33.0111 44.7592 33.0676 44.7592C33.1241 44.7592 33.1801 44.748 33.2323 44.7262C33.2844 44.7045 33.3318 44.6727 33.3715 44.6326L35.9398 42.0643L36.171 41.8331C36.2348 41.7692 36.2767 41.6868 36.2908 41.5977L39.0218 24.1162L47.7069 15.4269C48.9297 14.2028 49.8044 12.6751 50.2409 11.0009C50.2429 10.9824 50.2429 10.9637 50.2409 10.9452C50.3681 10.4636 50.4568 9.97266 50.5063 9.47701L50.9814 4.65291C51.0321 4.14121 50.9685 3.62466 50.7954 3.14048C50.6223 2.65631 50.3439 2.21657 49.9803 1.85298C49.6167 1.48939 49.177 1.211 48.6928 1.03788C48.2086 0.864761 47.6921 0.801223 47.1804 0.851848L42.3691 1.31414C41.8766 1.36394 41.3887 1.45123 40.9095 1.57525H40.8453C39.1692 2.01661 37.6413 2.8973 36.4193 4.12641L27.717 12.8115ZM17.4867 23.059L10.7792 16.3557L26.7026 13.8431L17.4867 23.059ZM8.1039 18.7785L10.0515 16.8394L16.9003 23.6625L14.9313 25.6144L8.1039 18.7785ZM33.0462 43.7208L26.1975 36.8935L28.1451 34.9458L34.9939 41.7946L33.0462 43.7208ZM35.4775 41.0412L28.7743 34.3466L37.9902 25.1307L35.4775 41.0412ZM42.4547 2.15739L47.2745 1.68226C47.6604 1.64512 48.0497 1.6938 48.4145 1.82479C48.7793 1.95579 49.1107 2.16586 49.3848 2.43996C49.6589 2.71405 49.8689 3.04539 49.9999 3.41022C50.1309 3.77504 50.1796 4.16433 50.1425 4.55018L49.6673 9.37C49.6673 9.56262 49.616 9.75524 49.586 9.94786L41.8811 2.243C42.0695 2.21732 42.2707 2.18308 42.4547 2.16595V2.15739ZM40.8881 2.45703L49.3677 10.9366C48.9506 12.3915 48.1715 13.7169 47.1033 14.7891L23.291 38.6185L18.4241 33.7516L30.7391 21.4367C30.8188 21.3565 30.8635 21.248 30.8635 21.1349C30.8635 21.0218 30.8188 20.9133 30.7391 20.8331C30.6993 20.793 30.6519 20.7611 30.5998 20.7394C30.5476 20.7177 30.4916 20.7065 30.4351 20.7065C30.3786 20.7065 30.3227 20.7177 30.2705 20.7394C30.2184 20.7611 30.171 20.793 30.1312 20.8331L17.8163 33.148L13.2148 28.5422L17.7863 23.9664L37.0228 4.72996C38.0995 3.66107 39.4292 2.88209 40.8881 2.46559V2.45703Z" fill="#0EBAB9" stroke="#0EBAB9" stroke-width="0.5"/>
<path d="M39.7795 16.527C40.8155 16.5273 41.8195 16.1683 42.6205 15.5112C43.4214 14.8541 43.9697 13.9395 44.1719 12.9234C44.3741 11.9073 44.2176 10.8526 43.7292 9.93892C43.2409 9.02525 42.4507 8.30923 41.4935 7.91288C40.5363 7.51653 39.4713 7.46439 38.48 7.76534C37.4886 8.06629 36.6323 8.7017 36.057 9.56329C35.4817 10.4249 35.223 11.4593 35.325 12.4903C35.4269 13.5213 35.8833 14.485 36.6162 15.2172C37.0312 15.6331 37.5243 15.9629 38.0671 16.1877C38.61 16.4125 39.1919 16.5278 39.7795 16.527ZM37.2112 9.4942C37.7185 8.98992 38.3638 8.64718 39.0656 8.50921C39.7675 8.37124 40.4945 8.44421 41.1549 8.71893C41.8154 8.99366 42.3797 9.45782 42.7766 10.0529C43.1736 10.6479 43.3854 11.3472 43.3854 12.0625C43.3854 12.7778 43.1736 13.4771 42.7766 14.0721C42.3797 14.6672 41.8154 15.1313 41.1549 15.406C40.4945 15.6808 39.7675 15.7537 39.0656 15.6158C38.3638 15.4778 37.7185 15.135 37.2112 14.6308C36.8703 14.2951 36.5999 13.8949 36.4157 13.4534C36.2315 13.0119 36.1372 12.5381 36.1384 12.0598C36.1396 11.5814 36.2362 11.1081 36.4226 10.6676C36.609 10.227 36.8815 9.82812 37.224 9.4942H37.2112Z" fill="#0EBAB9" stroke="#0EBAB9" stroke-width="0.5"/>
</svg>
