<svg width="66" height="90" viewBox="0 0 66 90" fill="none" xmlns="http://www.w3.org/2000/svg">
<path d="M22.1015 76.6758L24.3866 75.3753C24.7732 75.1645 25.2655 75.2695 25.4763 75.6561L28.3239 80.6137C28.5353 81.0003 28.4296 81.4926 28.043 81.7034L25.7579 83.0039C25.3713 83.2147 24.879 83.1096 24.6682 82.723L21.82 77.8012C21.5741 77.4139 21.7149 76.9223 22.1015 76.6758Z" fill="#E9E9EA"/>
<path d="M12.8908 60.7501L15.1759 59.4489C15.5625 59.2381 16.0548 59.3439 16.2656 59.7305L19.1131 64.6874C19.3239 65.0739 19.2189 65.5663 18.8316 65.7771L16.5465 67.0783C16.1599 67.2891 15.6676 67.1833 15.4568 66.7967L12.6092 61.8398C12.3984 61.4532 12.5035 60.9609 12.8908 60.7501Z" fill="#E9E9EA"/>
<path d="M22.5939 79.1366L21.2227 79.9105C20.5546 80.297 19.7107 80.0505 19.3241 79.3831L12.8202 68.0974C12.4336 67.43 12.6795 66.5861 13.3476 66.1995L14.7188 65.4257L12.7152 61.9451C9.16384 64.336 8.07413 69.047 10.1835 72.7384L14.0507 79.4181C16.1951 83.1095 20.8361 84.5158 24.6683 82.6172L22.5939 79.1366Z" fill="#E9E9EA"/>
<path d="M40.4178 86.7302H39.7854V86.0978C39.7854 85.6055 39.3982 85.2189 38.9065 85.2189C38.4142 85.2189 38.0276 85.6055 38.0276 86.0978V86.7302H37.3945C36.9022 86.7302 36.5156 87.1174 36.5156 87.6091C36.5156 88.1014 36.9022 88.488 37.3945 88.488H38.0276V89.1211C38.0276 89.6134 38.4142 90 38.9065 90C39.3982 90 39.7854 89.6134 39.7854 89.1211V88.488H40.4178C40.9102 88.488 41.2967 88.1014 41.2967 87.6091C41.2967 87.1174 40.9102 86.7302 40.4178 86.7302Z" fill="#0EBAB9"/>
<path d="M21.4336 12.0939C21.4336 12.0232 21.3986 11.9881 21.3986 11.9181C21.3636 11.8831 21.3636 11.8124 21.3285 11.7773C21.2928 11.7423 21.2578 11.6716 21.2228 11.6366C20.8712 11.32 20.3439 11.32 19.9923 11.6366C19.9573 11.6716 19.9223 11.7073 19.8866 11.7773C19.8165 11.8831 19.7815 11.9881 19.7465 12.0939C19.7108 12.1989 19.7108 12.3397 19.7465 12.4454C19.7465 12.5155 19.7815 12.5505 19.7815 12.6212C19.8165 12.6913 19.8165 12.7263 19.8516 12.762C19.8866 12.797 19.9223 12.867 19.9573 12.9021C20.3089 13.2536 20.8362 13.2536 21.1878 12.9021C21.2228 12.867 21.2578 12.832 21.2928 12.762C21.3285 12.7263 21.3636 12.6562 21.3636 12.6212C21.3986 12.5862 21.3986 12.5155 21.3986 12.4454C21.4686 12.3047 21.4686 12.1989 21.4336 12.0939Z" fill="#0EBAB9"/>
<path d="M47.0275 82.6872C47.0275 82.6172 46.9925 82.5821 46.9925 82.5114C46.9568 82.4764 46.9568 82.4064 46.9218 82.3713C46.8868 82.3356 46.8517 82.2656 46.8167 82.2306C46.4652 81.914 45.9378 81.914 45.5862 82.2306C45.5505 82.2656 45.5155 82.3006 45.4805 82.3713C45.4105 82.4764 45.3748 82.5821 45.3397 82.6872C45.3047 82.7929 45.3047 82.9337 45.3397 83.0388C45.3397 83.1095 45.3748 83.1445 45.3748 83.2145C45.4105 83.2853 45.4105 83.3203 45.4455 83.3553C45.4805 83.3903 45.5155 83.461 45.5505 83.4961C45.9021 83.8476 46.4294 83.8476 46.781 83.4961C46.8167 83.461 46.8517 83.426 46.8868 83.3553C46.9218 83.3203 46.9568 83.2502 46.9568 83.2145C46.9925 83.1795 46.9925 83.1095 46.9925 83.0388C47.0275 82.8987 47.0275 82.7929 47.0275 82.6872Z" fill="#0EBAB9"/>
<path d="M30.5389 2.88254C29.0977 2.6017 28.0079 1.47629 27.7264 0.0700379C27.7264 0.035019 27.6914 0 27.6564 0C27.6207 0 27.6207 0.035019 27.5857 0.0700379C27.3048 1.51199 26.1794 2.6017 24.7732 2.88254C24.7381 2.88254 24.7031 2.91824 24.7031 2.95326C24.7031 2.98828 24.7381 2.98828 24.7732 3.0233C26.2144 3.30482 27.3048 4.42955 27.5857 5.8358C27.5857 5.87082 27.6207 5.90652 27.6564 5.90652C27.6914 5.90652 27.6914 5.87082 27.7264 5.8358C28.0079 4.39453 29.1327 3.30482 30.5389 3.0233C30.5739 3.0233 30.609 2.98828 30.609 2.95326C30.609 2.88254 30.5739 2.88254 30.5389 2.88254Z" fill="#0EBAB9"/>
<path d="M58.8751 38.2146C58.172 38.0745 57.6096 37.5115 57.4688 36.8083L57.4338 36.7733C57.4338 36.7733 57.3988 36.7733 57.3988 36.8083C57.258 37.5115 56.6957 38.0745 55.9925 38.2146L55.9575 38.2503C55.9575 38.2503 55.9575 38.2853 55.9925 38.2853C56.6957 38.4261 57.258 38.9884 57.3988 39.6916L57.4338 39.7266C57.4338 39.7266 57.4688 39.7266 57.4688 39.6916C57.6096 38.9884 58.172 38.4261 58.8751 38.2853C58.8751 38.2503 58.9101 38.2503 58.8751 38.2146Z" fill="#0EBAB9"/>
<path d="M53.0041 30.551C52.7226 30.551 52.4418 30.5159 52.1602 30.4802C51.7029 30.4102 51.3871 30.0236 51.4221 29.5663C51.4221 29.3205 51.4571 29.1097 51.4571 28.8982V21.5861C51.4571 21.3753 51.4571 21.1638 51.4221 20.918C51.3871 20.4607 51.7029 20.0741 52.1602 20.0041C55.0428 19.5468 57.7852 21.5154 58.2425 24.3986C58.6992 27.2812 56.7305 30.0236 53.848 30.4802C53.5665 30.551 53.285 30.551 53.0041 30.551ZM53.2149 21.7269V28.8282C55.1835 28.7224 56.6605 27.0353 56.5548 25.1017C56.449 23.2382 55.0078 21.7969 53.2149 21.7269Z" fill="#0EBAB9"/>
<path d="M30.4335 30.5509C27.5159 30.5509 25.125 28.1951 25.125 25.2425C25.125 22.3242 27.4809 19.9333 30.4335 19.9333C30.715 19.9333 30.9965 19.9691 31.2774 20.0041C31.7347 20.0741 32.0512 20.4607 32.0155 20.918C32.0155 21.1638 31.9805 21.3753 31.9805 21.5861V28.8982C31.9805 29.074 31.9805 29.2855 32.0155 29.5663C32.0512 30.0236 31.7347 30.4102 31.2774 30.4802C30.9965 30.5509 30.715 30.5509 30.4335 30.5509ZM30.2227 21.7269C28.254 21.8319 26.7778 23.5197 26.8828 25.4533C26.9886 27.2461 28.4298 28.6874 30.2227 28.7931V21.7269Z" fill="#0EBAB9"/>
<path d="M41.7192 40.3948C35.391 40.3948 30.2577 35.2622 30.2227 28.8983V20.3908C30.2227 19.5819 30.8557 18.9495 31.6639 18.9495C31.7697 18.9495 31.8754 18.9495 31.9805 18.9845C34.0198 19.4061 39.1175 19.9335 42.6331 15.5039C43.1254 14.8715 44.0393 14.7658 44.6717 15.2581C44.7074 15.2931 44.7425 15.3281 44.7775 15.3632C45.5156 16.0663 47.625 17.7541 51.8087 17.8598C52.5819 17.8948 53.18 18.4922 53.215 19.2661V28.8983C53.18 35.2622 48.0473 40.3948 41.7192 40.3948ZM31.9805 20.7423V28.8983C31.9805 34.2775 36.34 38.637 41.7192 38.637C47.0977 38.637 51.4221 34.2775 51.4572 28.8983V19.6176C47.3442 19.4418 44.9533 17.8948 43.7928 16.8752C39.8206 21.5862 34.1606 21.1289 31.9805 20.7423Z" fill="#0EBAB9"/>
<path d="M56.0626 22.9573C55.8518 22.9573 55.606 22.8515 55.4652 22.7108C54.7971 22.0784 53.9182 21.7268 53.0043 21.7268C52.8285 21.7268 52.6527 21.7268 52.4419 21.7618C51.9496 21.8319 51.5273 21.5153 51.4222 21.0237C51.4222 20.988 51.4222 20.918 51.4222 20.8829V19.6174C47.3085 19.4417 44.9183 17.8947 43.7579 16.875C39.7856 21.5861 34.1249 21.1638 31.9805 20.7772V20.918C31.9805 21.4103 31.594 21.7969 31.1016 21.7969C31.0666 21.7969 30.9966 21.7969 30.9609 21.7969C30.7851 21.7618 30.6093 21.7618 30.3985 21.7618C29.5903 21.7618 28.8165 22.0427 28.1841 22.535C27.7968 22.8515 27.2345 22.7815 26.9536 22.3942C26.8129 22.2542 26.7778 22.0427 26.7778 21.8319V16.875C26.7778 10.3361 32.0863 5.06262 38.5902 5.06262H41.6835C43.8286 5.06262 45.8673 6.08229 47.1685 7.76938C48.0474 7.3828 48.9963 7.172 49.981 7.172C53.8124 7.172 56.9065 10.2653 56.9065 14.0975V22.0427C56.9415 22.57 56.5549 22.9573 56.0626 22.9573ZM53.2151 19.9333C53.9182 19.969 54.5863 20.1091 55.2187 20.3906V14.0625C55.2187 11.215 52.9335 8.89479 50.086 8.89479C49.1371 8.89479 48.2231 9.14061 47.4143 9.63293C46.9927 9.87875 46.4653 9.73799 46.2188 9.31639C45.2699 7.76938 43.6171 6.78542 41.7893 6.78542H38.6953C33.141 6.78542 28.6407 11.285 28.6407 16.84V20.2498C29.2031 20.039 29.8011 19.9333 30.3985 19.8983C30.6093 19.1952 31.3481 18.7736 32.0863 18.9143C34.1249 19.3359 39.2226 19.8633 42.7382 15.4337C43.2305 14.8006 44.1445 14.6956 44.7776 15.1872C44.8126 15.2229 44.8476 15.2579 44.8833 15.293C45.6214 15.9961 47.7308 17.6839 51.9146 17.7889C52.6877 17.8239 53.2851 18.422 53.3208 19.1952L53.2151 19.9333Z" fill="#0EBAB9"/>
<path d="M41.8592 54.2814C41.6134 54.2814 41.4026 54.1757 41.2268 54.0349C41.1918 53.9999 41.1561 53.9649 41.1211 53.8948C41.0511 53.7891 41.016 53.6833 40.9803 53.5783C40.9803 53.5076 40.9453 53.4725 40.9453 53.4025C40.9453 53.156 41.0511 52.9452 41.1918 52.7694C41.2268 52.7344 41.2619 52.6994 41.3319 52.6644C41.3676 52.6287 41.4376 52.5936 41.4727 52.5936C41.5434 52.5586 41.5784 52.5586 41.6484 52.5586C41.7542 52.5236 41.8592 52.5236 42 52.5586C42.0707 52.5586 42.1057 52.5936 42.1758 52.5936C42.2108 52.6287 42.2815 52.6287 42.3165 52.6644C42.3516 52.6994 42.4223 52.7344 42.4573 52.7694C42.4923 52.8044 42.5273 52.8401 42.5624 52.9102C42.5981 52.9452 42.6331 53.0159 42.6331 53.0509C42.6681 53.086 42.6681 53.156 42.6681 53.2267C42.6681 53.2968 42.6681 53.3318 42.7031 53.4025C42.7031 53.4725 42.7031 53.5076 42.6681 53.5783C42.6681 53.6483 42.6331 53.6833 42.6331 53.7541C42.5981 53.7891 42.5981 53.8591 42.5624 53.8948C42.5273 53.9298 42.4923 53.9999 42.4573 54.0349C42.4223 54.0706 42.3866 54.1056 42.3165 54.1406C42.2815 54.1757 42.2108 54.2107 42.1758 54.2107C42.1057 54.2464 42.0707 54.2464 42 54.2464C42 54.2814 41.93 54.2814 41.8592 54.2814Z" fill="#0EBAB9"/>
<path d="M41.8589 59.9413C41.7888 59.9413 41.7538 59.9413 41.6831 59.9063C41.6131 59.9063 41.578 59.8712 41.5073 59.8712C41.4723 59.8355 41.4023 59.8355 41.3672 59.8005C41.3315 59.7655 41.2615 59.7305 41.2265 59.6955C41.0507 59.5197 40.98 59.3082 40.98 59.0624C40.98 58.9923 40.98 58.9566 41.0157 58.8866C41.0157 58.8165 41.0507 58.7808 41.0507 58.7108C41.0857 58.6408 41.0857 58.6051 41.1207 58.57C41.1558 58.535 41.1915 58.465 41.2265 58.4293C41.4723 58.1835 41.8589 58.1134 42.1754 58.2535C42.2462 58.2892 42.2812 58.2892 42.3162 58.3242C42.3512 58.3592 42.4219 58.3943 42.457 58.4293C42.492 58.465 42.527 58.5 42.562 58.57C42.5977 58.6051 42.6327 58.6758 42.6327 58.7108C42.6678 58.7808 42.6678 58.8165 42.6678 58.8866C42.6678 58.9566 42.6678 58.9923 42.7028 59.0624C42.7028 59.3082 42.5977 59.5197 42.457 59.6955C42.4219 59.7305 42.3862 59.7655 42.3162 59.8005C42.2812 59.8355 42.2104 59.8712 42.1754 59.8712C42.1054 59.9063 42.0704 59.9063 41.9996 59.9063C41.9996 59.9413 41.9296 59.9413 41.8589 59.9413Z" fill="#0EBAB9"/>
<path d="M41.8589 65.6014C41.7888 65.6014 41.7538 65.6014 41.6831 65.5664C41.6131 65.5664 41.578 65.5314 41.5073 65.5314C41.4373 65.4964 41.4023 65.4964 41.3672 65.4607C41.3315 65.4256 41.2615 65.3906 41.2265 65.3556C41.1915 65.3206 41.1558 65.2849 41.1207 65.2148C41.0857 65.1798 41.0507 65.1091 41.0507 65.0741C41.0157 65.004 41.0157 64.969 41.0157 64.8983C41.0157 64.8283 40.98 64.7932 40.98 64.7225C40.98 64.6525 40.98 64.6175 41.0157 64.5467C41.0157 64.4767 41.0507 64.4417 41.0507 64.371C41.0857 64.3009 41.0857 64.2659 41.1207 64.2302C41.1558 64.1952 41.1915 64.1251 41.2265 64.0901C41.2615 64.0544 41.2965 64.0194 41.3672 63.9844C41.4023 63.9494 41.4723 63.9143 41.5073 63.9143C41.8239 63.7736 42.2104 63.8436 42.457 64.1251C42.492 64.1602 42.527 64.1952 42.562 64.2659C42.5977 64.3009 42.6327 64.371 42.6327 64.406C42.6678 64.4417 42.6678 64.5117 42.6678 64.5818C42.6678 64.6525 42.6678 64.6875 42.7028 64.7575C42.7028 64.8283 42.7028 64.8633 42.6678 64.9333C42.6678 65.004 42.6327 65.0391 42.6327 65.1091C42.5977 65.1448 42.5977 65.2148 42.562 65.2499C42.527 65.2849 42.492 65.3556 42.457 65.3906C42.3162 65.5314 42.1054 65.6014 41.8589 65.6014Z" fill="#0EBAB9"/>
<path d="M41.8592 71.2972C41.7892 71.2972 41.7542 71.2972 41.6835 71.2615C41.6134 71.2615 41.5784 71.2264 41.5077 71.2264C41.4727 71.1914 41.4026 71.1914 41.3676 71.1564C41.3319 71.1214 41.2619 71.0857 41.2268 71.0507C41.1918 71.0156 41.1561 70.9806 41.1211 70.9099C41.0861 70.8749 41.0511 70.8048 41.0511 70.7698C41.016 70.6991 41.016 70.6641 41.016 70.594C40.9803 70.4883 40.9803 70.3475 41.016 70.2425C41.0511 70.1367 41.0861 70.031 41.1561 69.9259C41.1918 69.8909 41.2268 69.8202 41.2619 69.7852C41.2969 69.7502 41.3319 69.7151 41.4026 69.6794C41.4376 69.6444 41.5077 69.6094 41.5434 69.6094C41.8592 69.4686 42.2465 69.5394 42.4923 69.7852C42.5273 69.8202 42.5624 69.8552 42.5981 69.9259C42.6331 69.961 42.6681 70.031 42.6681 70.0667C42.7031 70.1367 42.7031 70.1718 42.7031 70.2425C42.7381 70.3475 42.7381 70.4883 42.7031 70.594C42.7031 70.6641 42.6681 70.6991 42.6681 70.7698C42.6331 70.8048 42.6331 70.8749 42.5981 70.9099C42.5624 70.9456 42.5273 71.0156 42.4923 71.0507C42.4573 71.0857 42.4223 71.1214 42.3516 71.1564C42.3165 71.1914 42.2465 71.2264 42.2108 71.2264C42.1408 71.2615 42.1057 71.2615 42.035 71.2615C42 71.2615 41.93 71.2972 41.8592 71.2972Z" fill="#0EBAB9"/>
<path d="M54.2695 77.6953C53.7772 77.6953 53.3906 77.3087 53.3906 76.8164V60.8203C53.3906 60.328 53.7772 59.9414 54.2695 59.9414C54.7619 59.9414 55.1484 60.328 55.1484 60.8203V76.8164C55.1484 77.3087 54.7619 77.6953 54.2695 77.6953Z" fill="#0EBAB9"/>
<path d="M44.4258 48.4453H39.3281C38.66 48.4453 38.0626 48.0231 37.8518 47.3907L36.1991 42.5738C36.1641 42.4688 36.1641 42.3981 36.1641 42.293V38.3551C36.1641 37.8628 36.5506 37.4762 37.043 37.4762C37.1837 37.4762 37.3245 37.5112 37.4296 37.5819C38.7658 38.25 40.2421 38.6016 41.754 38.6016C43.3711 38.6016 44.9531 38.1793 46.3594 37.4412C46.781 37.1953 47.3083 37.3711 47.5548 37.7927C47.6249 37.9335 47.6599 38.0742 47.6599 38.2143V42.293C47.6599 42.3981 47.6599 42.5038 47.6249 42.5738L45.9728 47.3907C45.6913 48.0231 45.0939 48.4453 44.4258 48.4453ZM39.4339 46.6875H44.285L45.8671 42.1522V39.5856C44.5315 40.1129 43.1253 40.3594 41.719 40.3594C40.4178 40.3594 39.1173 40.1479 37.8518 39.6913V42.1172L39.4339 46.6875Z" fill="#0EBAB9"/>
<path d="M25.3715 84.0233C25.2307 84.0233 25.0899 83.9883 24.9492 83.9533C24.5276 83.8475 24.141 83.566 23.9295 83.1794L21.082 78.2225C20.6254 77.4137 20.9062 76.3947 21.7151 75.9024L24.0002 74.6012C24.8084 74.1445 25.8281 74.4254 26.3204 75.2342L29.1679 80.1911C29.6252 81 29.3437 82.0197 28.5355 82.5113L26.2504 83.8125C25.9688 83.9533 25.6523 84.0233 25.3715 84.0233ZM22.629 77.4137L25.4065 82.2305L27.5509 81L24.7734 76.1832L22.629 77.4137Z" fill="#0EBAB9"/>
<path d="M16.16 68.0624C15.5627 68.0624 15.0003 67.7458 14.6837 67.2185L11.8362 62.2616C11.3789 61.4534 11.6604 60.4337 12.4686 59.9414L14.7538 58.6409C15.5627 58.1836 16.5823 58.4651 17.074 59.2733L19.9222 64.2302C20.3788 65.0391 20.0979 66.0587 19.2891 66.5511L17.0039 67.8516C16.7581 67.9923 16.4416 68.0624 16.16 68.0624ZM13.4183 61.4534L16.1951 66.2695L18.3401 65.0391L15.5627 60.2229L13.4183 61.4534Z" fill="#0EBAB9"/>
<path d="M21.0471 84.3398C17.848 84.3398 14.8598 82.617 13.2427 79.8395L9.37552 73.1598C7.01964 69.0468 8.25011 63.8084 12.188 61.2067C12.5746 60.9259 13.137 61.0309 13.4185 61.4532L13.4535 61.4882L15.4571 64.9688C15.7036 65.3904 15.5629 65.9178 15.1406 66.1636L13.77 66.9374C13.5235 67.0782 13.4535 67.3941 13.5943 67.6406L20.0982 78.9256C20.2382 79.1714 20.5548 79.2421 20.8013 79.1014L22.1718 78.3982C22.5941 78.1524 23.1215 78.2925 23.3673 78.7148L25.3716 82.1954C25.6174 82.617 25.4767 83.1443 25.0551 83.3901L25.02 83.4258C23.7539 84.0232 22.4183 84.3398 21.0471 84.3398ZM12.3988 63.246C9.79712 65.5312 9.16403 69.2926 10.8868 72.3159L14.754 78.9956C16.4768 81.9839 20.0982 83.3201 23.3323 82.2304L22.2426 80.3668L21.6445 80.7184C20.5548 81.3515 19.1485 80.9649 18.5161 79.8745L12.0473 68.5545C11.4142 67.4648 11.8007 66.0585 12.8911 65.4254L13.4885 65.0739L12.3988 63.246Z" fill="#0EBAB9"/>
<path d="M18.9725 90C8.95299 90 0.832031 81.879 0.832031 71.8595C0.832031 61.84 8.95299 53.719 18.9725 53.719C28.9921 53.719 37.113 61.84 37.113 71.8595C37.113 81.879 28.9921 90 18.9725 90ZM18.9725 55.5118C9.93764 55.5118 2.58984 62.8239 2.58984 71.8945C2.58984 80.9651 9.93764 88.2422 18.9725 88.2422C28.0081 88.2422 35.3552 80.9294 35.3552 71.8595C35.3552 62.8239 28.0081 55.5118 18.9725 55.5118Z" fill="#0EBAB9"/>
<path d="M61.6876 77.6954H35.5312C35.0396 77.6954 34.6523 77.3088 34.6523 76.8165C34.6523 76.7465 34.6523 76.6407 34.688 76.5707C37.289 67.9217 32.3671 58.7811 23.6838 56.2151C22.5941 55.8985 21.4687 55.6877 20.344 55.582C19.8517 55.547 19.5001 55.1254 19.5351 54.6681L19.7466 50.6251C19.8517 48.41 21.3987 46.5471 23.5781 45.9847L31.7347 43.9454L36.6216 41.5545C37.0432 41.3437 37.5705 41.5195 37.7813 41.9418C37.7813 41.9768 37.8164 42.0118 37.8164 42.0468L39.4341 46.7229H44.2853L45.9023 42.0468C46.0781 41.5902 46.5704 41.3437 47.0277 41.5195C47.0627 41.5195 47.0978 41.5545 47.1328 41.5545L52.0196 43.9454L60.1763 45.9847C62.3207 46.5121 63.8677 48.41 64.0078 50.6251L65.309 73.8983C65.414 75.9026 63.9027 77.5897 61.8984 77.6954C61.7933 77.6954 61.7583 77.6954 61.6876 77.6954ZM36.6566 75.9376H61.6876C62.7073 75.9376 63.5512 75.0937 63.5512 74.074C63.5512 74.039 63.5512 74.004 63.5512 73.969L62.25 50.6951C62.1799 49.2539 61.1603 48.0234 59.754 47.6718L51.5273 45.5975C51.4573 45.5975 51.4222 45.5625 51.3515 45.5274L47.2735 43.5238L45.938 47.391C45.7265 48.0234 45.1291 48.4457 44.461 48.4457H39.3634C38.6953 48.4457 38.0979 48.0234 37.8871 47.391L36.5509 43.5238L32.4729 45.5274C32.4029 45.5625 32.3671 45.5625 32.2971 45.5975L24.0704 47.6718C22.6642 48.0234 21.6445 49.2539 21.5745 50.6951L21.3987 53.8949C31.3125 55.1954 38.3087 64.301 37.0082 74.2148C36.8674 74.8129 36.7617 75.3752 36.6566 75.9376Z" fill="#0EBAB9"/>
</svg>
