<svg width="90" height="82" viewBox="0 0 90 82" fill="none" xmlns="http://www.w3.org/2000/svg">
<path d="M12.6709 32.9673C11.9428 32.9673 11.3525 33.5576 11.3525 34.2856V39.2917C11.3525 45.3279 16.2616 50.2387 22.2956 50.2387C28.3323 50.2387 33.2436 45.3279 33.2436 39.2917V34.2856C33.2436 33.5576 32.6534 32.9673 31.9253 32.9673C31.1972 32.9673 30.6069 33.5576 30.6069 34.2856V39.2917C30.6069 43.874 26.8784 47.602 22.2956 47.602C17.7155 47.602 13.9893 43.874 13.9893 39.2917V34.2856C13.9893 33.5576 13.399 32.9673 12.6709 32.9673Z" fill="#0EBAB9"/>
<path d="M89.9895 69.1021L89.2273 61.182C89.2259 61.1152 89.2194 61.05 89.2085 60.986L84.5978 13.071C84.4893 11.8764 83.5394 10.9754 82.3887 10.9754H74.2449C73.551 4.8818 68.3678 0.131348 62.0937 0.131348C55.8196 0.131348 50.6366 4.8818 49.9428 10.9754H41.7989C40.648 10.9754 39.6983 11.8763 39.5904 13.064L39.1574 17.5629C37.1639 16.5168 34.9545 15.9714 32.6622 15.9714C29.7806 15.9714 26.9896 16.8623 24.6473 18.5002L22.5046 14.668C22.2059 14.1347 21.699 13.7467 21.1138 13.6036C20.5283 13.4604 19.8986 13.5706 19.3803 13.9102L3.39009 24.5291H2.17475C0.975578 24.5291 0 25.5071 0 26.7093V79.6939C0 80.8932 0.975578 81.869 2.17475 81.869H19.8607C20.5887 81.869 21.179 81.2787 21.179 80.5506C21.179 79.8226 20.5887 79.2323 19.8607 79.2323H2.6367V27.1658H38.2332L34.9788 60.9848C34.9677 61.0496 34.9609 61.1161 34.9596 61.1839L34.1983 69.0959C34.1389 69.6838 34.3293 70.254 34.7341 70.7019C35.1602 71.1731 35.7696 71.4433 36.4063 71.4433H41.9592V79.2323H25.3925C24.6644 79.2323 24.0741 79.8226 24.0741 80.5506C24.0741 81.2787 24.6644 81.869 25.3925 81.869H42.4211C43.6203 81.869 44.5959 80.8932 44.5959 79.6939V71.4433H87.781C88.4176 71.4433 89.0271 71.173 89.4531 70.7019C89.8578 70.2542 90.0482 69.6838 89.9895 69.1021ZM75.2048 25.6532C75.2048 26.8625 74.2194 27.8466 73.0079 27.8466C71.7992 27.8466 70.8159 26.8625 70.8159 25.6532C70.8159 24.4438 71.7992 23.4598 73.0079 23.4598C74.2194 23.4598 75.2048 24.4436 75.2048 25.6532ZM62.0935 2.76805C66.9118 2.76805 70.9107 6.33972 71.5872 10.9754H52.6C53.2766 6.33972 57.2754 2.76805 62.0935 2.76805ZM51.1794 23.4598C52.388 23.4598 53.3713 24.4438 53.3713 25.6532C53.3713 26.8625 52.388 27.8466 51.1794 27.8466C49.9679 27.8466 48.9825 26.8625 48.9825 25.6532C48.9825 24.4438 49.9681 23.4598 51.1794 23.4598ZM20.4372 16.3734L23.094 21.1253C23.0998 21.1358 23.1056 21.1465 23.1117 21.1571L24.9971 24.5292H8.15636L20.4372 16.3734ZM28.0181 24.5291L25.9404 20.8131C27.8847 19.3849 30.2347 18.6081 32.662 18.6081C34.8934 18.6081 37.0272 19.2462 38.8788 20.4564L38.487 24.5291H28.0181ZM36.8751 68.8066L37.4794 62.5271H59.1659C59.8942 62.5271 60.4843 61.9368 60.4843 61.2087C60.4843 60.4806 59.8942 59.8904 59.1659 59.8904H37.7331L42.1863 13.6121H49.861V21.0071C47.8348 21.5821 46.3458 23.4466 46.3458 25.6532C46.3458 28.3164 48.5142 30.4833 51.1794 30.4833C53.8417 30.4833 56.008 28.3164 56.008 25.6532C56.008 23.4471 54.5213 21.5832 52.4977 21.0077V13.6121H71.6895V21.0077C69.6661 21.5832 68.1792 23.4471 68.1792 25.6532C68.1792 28.3164 70.3454 30.4833 73.0079 30.4833C75.6731 30.4833 77.8415 28.3164 77.8415 25.6532C77.8415 23.4466 76.3525 21.5823 74.3262 21.0071V13.6121H82.001L86.4542 59.8904H65.2454C64.5172 59.8904 63.9271 60.4806 63.9271 61.2087C63.9271 61.9368 64.5172 62.5271 65.2454 62.5271H86.708L87.3123 68.8066H36.8751Z" fill="#0EBAB9"/>
</svg>
