<svg width="85" height="90" viewBox="0 0 85 90" fill="none" xmlns="http://www.w3.org/2000/svg">
<path d="M83.5864 13.0024C84.3147 13.0024 84.9048 12.4121 84.9048 11.684V9.35859C84.9048 4.19818 80.7066 0 75.5462 0H36.7819C31.6216 0 27.4233 4.19818 27.4233 9.35859V27.4233H9.35859C4.19836 27.4233 0 31.6215 0 36.7819V75.5481C0 80.7075 4.19818 84.9048 9.35859 84.9048H11.8668C12.5951 84.9048 13.1852 84.3145 13.1852 83.5864C13.1852 82.8584 12.5951 82.2681 11.8668 82.2681H9.35859C5.65207 82.2681 2.63672 79.2534 2.63672 75.548V36.7817C2.63672 33.0752 5.65207 30.0598 9.35859 30.0598H27.4233V48.1247C27.4233 53.284 31.6215 57.4813 36.7819 57.4813H41.3677L42.5224 82.2681H17.1403C16.412 82.2681 15.8219 82.8584 15.8219 83.5864C15.8219 84.3145 16.412 84.9048 17.1403 84.9048H42.811C43.4828 87.4144 45.4853 89.3262 48.1491 89.8583C48.6264 89.9536 49.1006 90 49.5673 90C52.2146 89.9998 54.6101 88.509 55.7879 86.0131L59.5445 78.0527C60.4295 76.1778 62.5273 75.199 64.5326 75.7253L73.0462 77.9611C76.1868 78.7859 79.3427 77.4262 80.9009 74.5778C82.4588 71.7297 81.9012 68.3381 79.5132 66.1389L70.1128 57.4813H75.5464C80.7066 57.4813 84.905 53.2839 84.905 48.1247V16.9574C84.905 16.2294 84.3149 15.6391 83.5866 15.6391C82.8584 15.6391 82.2683 16.2294 82.2683 16.9574V48.1247C82.2683 51.8302 79.2529 54.8446 75.5464 54.8446H67.2499L57.4815 45.8481V36.7815C57.4815 31.6211 53.2833 27.4229 48.1229 27.4229H30.06V9.35859C30.06 5.65207 33.0754 2.63672 36.7819 2.63672H75.5464C79.2529 2.63672 82.2683 5.65207 82.2683 9.35859V11.6842C82.2681 12.4121 82.8582 13.0024 83.5864 13.0024ZM78.5876 73.3126C77.8424 74.675 76.1187 76.0421 73.716 75.411L65.2024 73.1753C61.9683 72.3261 58.5867 73.9042 57.1602 76.9275L53.4036 84.8878C52.3431 87.1349 50.1884 87.577 48.6656 87.2728C47.1428 86.9687 45.3234 85.7326 45.2076 83.2504L43.4988 46.5715C43.3999 44.4461 44.7152 43.0585 45.9795 42.4688C46.5112 42.2207 47.1567 42.0564 47.8429 42.0564C48.7883 42.0564 49.8104 42.3684 50.7173 43.2035L77.7264 68.0783C79.5547 69.7618 79.3329 71.9501 78.5876 73.3126ZM48.1229 30.06C51.8295 30.06 54.8448 33.0754 54.8448 36.7819V43.4201L52.5039 41.2641C50.3926 39.32 47.4655 38.8661 44.865 40.0794C42.2641 41.2928 40.7317 43.8274 40.8651 46.6942L41.2448 54.8448H36.7819C33.0754 54.8448 30.06 51.8302 30.06 48.1249V30.06H48.1229Z" fill="#0EBAB9"/>
</svg>
