<svg width="90" height="90" viewBox="0 0 90 90" fill="none" xmlns="http://www.w3.org/2000/svg">
<g clip-path="url(#clip0)">
<path fill-rule="evenodd" clip-rule="evenodd" d="M42.4367 39.2255C42.8951 41.6391 43.5179 44.0178 44.2156 46.0424L50.9768 48.6915L58.5161 46.0423C58.2521 31.7752 52.9205 24.9332 48.3862 22.7193C46.7518 21.4747 45.0776 21.0061 45.0776 21.0061C45.0776 21.0061 42.8753 24.5295 42.7606 24.5295C41.9136 26.5441 41.5947 29.1722 41.6495 32.0097L42.4367 39.2255Z" fill="#ECEAEC"/>
<path d="M85.2235 27.7689H69.9613C67.3276 27.7689 65.1848 29.9127 65.1848 32.548V50.1145H59.4761C59.7934 48.9612 59.911 47.6009 59.8338 46.0178V46.0176C59.7099 39.3275 58.496 33.6892 56.2254 29.2591C54.4623 25.8196 52.4048 23.7575 50.6392 22.5248C52.7115 20.3941 53.9096 17.3631 53.9096 13.8674C53.9096 7.57775 48.8923 2.46094 42.7254 2.46094C36.5585 2.46094 31.5411 7.57775 31.5411 13.8674C31.5411 14.5956 32.1314 15.1857 32.8595 15.1857H33.7553C33.6728 15.6832 33.6289 16.1902 33.6289 16.705C33.6289 21.1375 36.7961 24.8421 40.9836 25.6723C40.5447 27.3022 40.3265 29.224 40.3274 31.4072L37.0392 34.2353L29.0385 34.8824L19.8095 31.8315C18.9636 31.5503 18.0049 31.2325 17.1731 31.8322C16.3535 32.4237 16.3535 33.4593 16.3535 33.7994V40.661C16.3535 41.3893 16.9437 41.9794 17.6718 41.9794H19.2414L16.834 50.298C16.6317 50.9973 17.0346 51.7286 17.734 51.9309C18.4338 52.1343 19.1646 51.7303 19.3671 51.0311L21.9865 41.9794H25.7346C21.0728 56.1952 23.7328 65.6842 27.8213 75.2873H25.4514L15.5807 64.2507L17.668 57.0401C17.8705 56.3407 17.4676 55.6096 16.7681 55.4073C16.0687 55.205 15.3376 55.6079 15.1351 56.3071L13.1388 63.2043C6.96428 63.1013 1.44123 67.3583 0.033752 73.4831C-0.129197 74.1925 0.313596 74.8999 1.02287 75.063L2.89442 75.4937C2.41629 80.4598 5.6867 85.1453 10.6743 86.2933C11.4318 86.4678 12.1957 86.554 12.9544 86.554C14.8254 86.554 16.6635 86.0294 18.2893 85.0104C20.1974 83.8148 21.6192 82.057 22.3886 79.9796L23.8653 80.3194C24.3053 80.4212 24.7226 80.4727 25.1395 80.2482C25.5275 80.0394 25.7854 79.6623 25.882 79.2367C25.9748 78.8052 26.0455 78.3666 26.0946 77.924H53.6672C54.549 83.4061 59.2133 87.5385 64.784 87.5385C70.3547 87.5385 75.0192 83.4061 75.9009 77.924H76.9071L77.0235 77.9252C77.0637 77.9258 77.1068 77.9263 77.1521 77.9263C77.5292 77.9263 78.0738 77.8845 78.521 77.4295C78.7447 77.2019 79.0073 76.7946 78.9871 76.1476C78.95 74.9095 78.7642 73.7133 78.4471 72.5764C79.4972 66.2012 78.4869 62.3183 76.989 59.2796C77.936 58.6589 78.5639 57.5895 78.5639 56.3745V52.7511H85.223C87.8567 52.7511 89.9995 50.6072 89.9995 47.9719V32.5478C90 29.9127 87.8574 27.7689 85.2235 27.7689ZM16.8892 82.7766C15.2016 83.8343 13.2047 84.1706 11.2662 83.7243H11.266C7.69799 82.903 5.31756 79.6312 5.49106 76.0934L19.7914 79.3847C19.1997 80.7778 18.1986 81.9561 16.8892 82.7766ZM23.486 77.5267L2.97844 72.8077C4.561 68.474 8.81983 65.6053 13.475 65.8521L23.5211 77.0846C23.5123 77.2328 23.5007 77.3801 23.486 77.5267ZM43.3993 54.553C43.0167 55.5623 43.0167 56.8067 43.0167 58.5292V63.5041H38.1892V56.6789C38.1892 48.9625 42.4006 47.5873 44.2906 47.3604H57.2156C57.1635 49.1117 56.7684 50.3566 56.0181 51.1467C55.1438 52.0675 53.6477 52.5161 51.4441 52.5182L46.7119 52.5231C45.0244 52.5233 43.91 53.206 43.3993 54.553ZM43.0167 66.1407V69.2886C43.0047 69.2886 42.9924 69.2886 42.9797 69.2886H33.6154C33.7206 68.3123 34.0247 67.5568 34.5241 67.034C35.267 66.2567 36.3132 66.1407 36.8708 66.1407H43.0167ZM57.1574 44.7238H45.1679C44.6864 43.2088 44.2572 41.5498 43.9042 39.8447L47.5494 37.4787C49.5392 36.1865 50.5744 34.3607 50.3895 32.4691C50.2256 30.7923 49.0857 29.2945 47.4854 28.6534C46.0239 28.068 44.4509 28.2519 43.0606 29.1408C43.1752 27.8798 43.3886 26.7541 43.6973 25.7985C44.2593 25.7405 44.8174 25.6307 45.3655 25.4695C46.4811 25.2104 47.5121 24.7975 48.4429 24.2499C50.982 25.7669 56.5666 30.6874 57.1574 44.7238ZM34.2744 12.5492C34.8961 8.33678 38.449 5.09783 42.7254 5.09783C47.4384 5.09783 51.2729 9.03199 51.2729 13.8676C51.2729 17.8005 49.387 20.9704 46.346 22.3654V15.4285C46.346 14.2274 45.8863 12.754 43.6971 12.5546C43.6574 12.551 43.6175 12.5492 43.5776 12.5492H34.2744ZM36.2658 16.7052C36.2658 16.1849 36.325 15.6767 36.4416 15.1859H43.5129C43.5943 15.1947 43.6537 15.2042 43.6962 15.2128C43.7031 15.2617 43.7091 15.332 43.7091 15.4285V23.1411C43.3949 23.1873 43.0789 23.2107 42.763 23.2109C42.76 23.2109 42.757 23.2109 42.7542 23.2109C39.176 23.2075 36.2658 20.2904 36.2658 16.7052ZM34.5567 37.0818L37.6792 36.8292C37.9575 36.8068 38.2214 36.6966 38.4332 36.5147L44.0687 31.6675L44.0696 31.6666C44.6145 31.1971 45.1962 30.9563 45.7625 30.9563C46.0146 30.9563 46.2637 31.0041 46.505 31.1008C47.2017 31.3798 47.6963 32.0175 47.7656 32.7252C47.8526 33.6159 47.2658 34.5187 46.1139 35.2668L39.8341 39.3428H34.557V37.0818H34.5567ZM28.9851 37.5325L31.9199 37.2952V39.3432H28.5096C28.0675 39.3432 27.9598 38.9758 27.9471 38.6677C27.9399 38.4929 27.9564 37.6168 28.9851 37.5325ZM25.8648 36.6223C25.4677 37.2734 25.2823 38.035 25.3127 38.7756C25.3206 38.9674 25.345 39.1521 25.3791 39.3321C25.3791 39.3358 25.377 39.3395 25.3777 39.343H18.9905V34.338L25.8699 36.6121C25.8678 36.6156 25.8667 36.6189 25.8648 36.6223ZM28.517 41.9797H40.2242C40.4789 41.9797 40.7283 41.9059 40.9419 41.7672L41.5387 41.3798C41.8257 42.6486 42.1527 43.8833 42.5088 45.0494C39.8201 45.843 35.5523 48.4079 35.5523 56.6787V63.6363C34.6273 63.823 33.5331 64.2544 32.6178 65.2122C31.6529 66.2219 31.1019 67.59 30.9697 69.2884H28.3101C25.6301 61.5649 24.611 53.3461 28.517 41.9797ZM30.69 75.2829C30.2027 74.1623 29.733 73.0459 29.2908 71.9253H42.9796C44.7537 71.9253 45.6532 71.1176 45.6532 69.5248V64.8223V59.8474H56.0593C56.7875 59.8474 57.3776 59.2573 57.3776 58.529C57.3776 57.8007 56.7875 57.2106 56.0593 57.2106H45.6627C45.6796 56.4618 45.7276 55.8494 45.8648 55.4876C45.9315 55.3117 45.9891 55.1598 46.7132 55.1598L51.4466 55.1549C54.4112 55.1521 56.532 54.4349 57.9303 52.9622C57.995 52.894 58.0562 52.8224 58.1175 52.7513H66.5033H75.9278V56.3746C75.9278 56.8278 75.5459 57.2106 75.0938 57.2106H61.969C61.2408 57.2106 60.6507 57.8007 60.6507 58.529C60.6507 59.2573 61.2408 59.8474 61.969 59.8474H74.3191C75.3611 61.7815 76.2984 64.1881 76.2427 67.9904C73.6344 64.3674 69.412 62.0378 64.6198 62.0378C60.7713 62.0378 57.16 63.5474 54.4511 66.2887C52.0472 68.721 50.6036 71.8778 50.3065 75.2873L30.69 75.2829ZM64.7842 84.9022C60.6628 84.9022 57.1869 81.9327 56.346 77.9244H73.2224C72.3813 81.9323 68.9054 84.9022 64.7842 84.9022ZM74.72 75.2876H54.8487H52.9546C53.6019 69.3264 58.5863 64.6745 64.6198 64.6745C69.917 64.6745 74.3655 68.1674 75.8387 73.0572C75.8435 73.0726 75.8482 73.0881 75.8535 73.1034C76.0618 73.8049 76.2089 74.5351 76.2885 75.2876H74.72ZM87.3633 47.9721C87.3633 49.1535 86.4033 50.1145 85.2235 50.1145H67.8215V43.3063H87.3633V47.9721ZM87.3633 40.6696H67.8215V37.8657H87.3633V40.6696ZM87.3633 35.229H67.8215V32.548C67.8215 31.3666 68.7814 30.4056 69.9613 30.4056H85.2235C86.4033 30.4056 87.3633 31.3668 87.3633 32.548V35.229Z" fill="#0EBAB9"/>
</g>
<defs>
<clipPath id="clip0">
<rect width="90" height="90" fill="white"/>
</clipPath>
</defs>
</svg>
