<svg width="90" height="56" viewBox="0 0 90 56" fill="none" xmlns="http://www.w3.org/2000/svg">
<path d="M45.0179 43.8977C43.9448 43.0849 42.6268 42.8163 41.3974 43.0456C41.2042 41.8807 40.584 40.8506 39.639 40.1348C38.6598 39.3932 37.4507 39.0775 36.2338 39.2454C35.9324 39.287 35.6395 39.3573 35.3579 39.4542C35.0911 38.5392 34.5396 37.699 33.7231 37.0806C32.3782 36.062 30.6493 35.899 29.1917 36.4984C28.9015 35.625 28.3564 34.8593 27.6069 34.2915C26.6278 33.5499 25.418 33.2344 24.2016 33.4021C23.215 33.5383 22.3196 33.9795 21.6206 34.6635L16.7951 34.3427L19.7528 10.3165L25.0526 10.6766C25.0826 10.6786 25.1125 10.6796 25.1422 10.6796C25.6341 10.6796 26.0885 10.4047 26.315 9.96243L28.3012 6.087C28.8044 5.10597 29.9405 4.60728 31.0028 4.90136L33.9524 5.71698C34.6535 5.91051 35.3802 5.49936 35.5745 4.79765C35.7685 4.09593 35.3568 3.36961 34.6551 3.17554L31.7061 2.3601C29.4455 1.73432 27.0268 2.79533 25.9554 4.88378L24.3651 7.98683L20.0757 7.69539L20.1773 6.86993C20.5022 4.23163 18.6201 1.82115 15.9818 1.49631L5.82377 0.246512C5.09991 0.157919 4.44319 0.671374 4.35425 1.39383C4.2653 2.11647 4.77911 2.77441 5.50157 2.86336L15.6596 4.11386C16.2386 4.18505 16.7552 4.47755 17.1142 4.93739C17.4731 5.39723 17.6317 5.9694 17.5603 6.54842L14.0721 34.8842C13.925 36.0794 12.8327 36.9314 11.6375 36.7851L1.47953 35.5346C0.756021 35.4464 0.0989531 35.9593 0.0100082 36.682C-0.0789368 37.4046 0.43487 38.0625 1.15733 38.1515L11.3153 39.402C11.5143 39.4264 11.7121 39.4384 11.9077 39.4384C13.6884 39.4384 15.2948 38.4491 16.1272 36.9411L19.7372 37.181C19.3056 38.0163 19.1402 38.9618 19.2713 39.9123C19.4394 41.1289 20.0711 42.2074 21.0502 42.9489C21.8576 43.5604 22.8212 43.8823 23.8168 43.8823C24.0287 43.8823 24.2419 43.8677 24.4555 43.8383C24.4692 43.8364 24.4825 43.8338 24.4961 43.8317C24.4978 43.8454 24.4989 43.8589 24.5006 43.8726C24.6687 45.0892 25.3004 46.1678 26.2795 46.9092C27.1083 47.5368 28.0829 47.84 29.0502 47.84C29.2769 47.84 29.5032 47.8215 29.7271 47.7885C29.879 48.9711 30.4856 50.0945 31.509 50.8696C32.3378 51.4973 33.3123 51.8003 34.2797 51.8003C34.5057 51.8003 34.7312 51.782 34.9545 51.7492C34.9564 51.7637 34.9575 51.7785 34.9594 51.7931C35.1274 53.0097 35.7592 54.0883 36.7385 54.8297C37.5458 55.4411 38.5095 55.7631 39.5049 55.7631C39.7169 55.7631 39.9301 55.7485 40.1435 55.7192C41.3603 55.5511 42.4387 54.9194 43.1801 53.9403L45.9072 50.3394C47.4382 48.3183 47.0392 45.4284 45.0179 43.8977ZM24.0949 41.2266C23.5762 41.2983 23.0601 41.1635 22.6425 40.8471C22.2248 40.5308 21.9553 40.0706 21.8836 39.5517C21.8119 39.0327 21.9467 38.5169 22.2631 38.0991L23.2674 36.773C23.5836 36.3554 24.0438 36.0859 24.5627 36.0142C25.0818 35.943 25.5975 36.0773 26.0153 36.3937C26.433 36.7099 26.7025 37.1701 26.7742 37.689C26.8459 38.2079 26.7111 38.7236 26.3948 39.1415L25.3904 40.4676C25.074 40.8852 24.614 41.1549 24.0949 41.2266ZM27.8718 44.8074C27.4541 44.4912 27.1846 44.031 27.1129 43.5121C27.0412 42.993 27.176 42.4773 27.4924 42.0594L28.4967 40.7335C28.4967 40.7335 28.4968 40.7333 28.4968 40.7332L29.3836 39.5621C29.769 39.0534 30.3559 38.7857 30.9497 38.7857C31.3622 38.7857 31.778 38.9151 32.1314 39.1828C32.9936 39.8358 33.164 41.0684 32.511 41.9308L30.6197 44.4281C29.9667 45.2903 28.734 45.4604 27.8718 44.8074ZM33.1012 48.7677C32.6836 48.4515 32.4141 47.9913 32.3424 47.4722C32.2707 46.9535 32.4053 46.4378 32.7214 46.0203C32.7215 46.0201 32.7215 46.0199 32.7217 46.0198L34.6129 43.5223L35.2992 42.6161C35.6154 42.1985 36.0756 41.929 36.5947 41.8573C37.1139 41.7859 37.6295 41.9204 38.0473 42.2368C38.9092 42.8895 39.0795 44.1215 38.4274 44.9837L35.8492 48.3881C35.849 48.3882 35.8489 48.3884 35.8489 48.3886C35.1957 49.2504 33.9636 49.4208 33.1012 48.7677ZM43.8056 48.7477L41.0785 52.3486C40.7623 52.7662 40.3021 53.0357 39.7832 53.1074C39.2637 53.179 38.7482 53.0443 38.3305 52.7281C37.9129 52.4118 37.6434 51.9517 37.5717 51.4328C37.5 50.9137 37.6348 50.3979 37.9512 49.9801L40.5288 46.5766C40.5294 46.5761 40.5297 46.5754 40.5302 46.5749L40.6784 46.3792C40.9947 45.9616 41.4548 45.6921 41.9739 45.6204C42.493 45.5492 43.0087 45.6835 43.4266 45.9999C44.2883 46.6526 44.4586 47.8855 43.8056 48.7477Z" fill="#0EBAB9"/>
<path d="M89.9901 36.6819C89.9011 35.9594 89.2439 35.4463 88.5205 35.5346L78.3627 36.7851C77.1658 36.9322 76.0753 36.0793 75.9281 34.8842L75.8241 34.0385L75.8 33.8427L72.4401 6.54835C72.3688 5.96933 72.5273 5.39734 72.8863 4.93732C73.2452 4.47748 73.7618 4.18498 74.3408 4.11379L84.4989 2.86329C85.2215 2.77434 85.7351 2.1164 85.6462 1.39376C85.5572 0.671306 84.9 0.158203 84.1766 0.246444L74.0186 1.49695C71.5361 1.80263 69.7238 3.95506 69.789 6.40632L67.2274 6.72167L59.2951 2.25773C58.1718 1.62492 56.8985 1.35316 55.6127 1.47128C55.61 1.47146 55.6074 1.47216 55.6047 1.47234L53.2171 1.69312C52.492 1.76009 51.9587 2.40222 52.0259 3.12731C52.0928 3.85223 52.7339 4.38467 53.46 4.31858L55.8544 4.09709C56.6035 4.02783 57.346 4.18639 58.0013 4.55518L66.2256 9.18348C66.4829 9.35328 66.7962 9.43098 67.1129 9.39213L70.0882 9.02598L72.2705 26.7522L73.0251 32.8824L68.2796 32.8863C67.9632 32.8864 67.6577 33.0005 67.4188 33.2071L67.0516 33.4929L55.1375 23.2245C57.8602 22.4417 60.4556 20.5484 62.8822 17.5684C63.3419 17.0038 63.257 16.1734 62.6924 15.7135C62.1278 15.2539 61.2972 15.3388 60.8376 15.9034C58.1253 19.2344 55.2734 20.949 52.3611 20.9993C48.1183 21.0791 45.0008 17.561 44.9721 17.5281C44.7129 17.2282 44.3328 17.0623 43.9366 17.072C43.5404 17.0832 43.1704 17.2724 42.9289 17.5865L39.3874 22.1955C37.5215 24.624 34.3429 25.529 31.4775 24.4465L31.0994 24.3036C30.7673 24.1781 30.632 23.9186 30.581 23.775C30.53 23.6314 30.4709 23.3447 30.6492 23.0378L39.8924 7.12843C40.4903 6.09941 41.5548 5.41967 42.7399 5.30998L48.2125 4.80391C48.9376 4.73676 49.4709 4.09463 49.4037 3.36971C49.3366 2.64479 48.6945 2.11165 47.9695 2.17845L42.497 2.68452C40.4641 2.87261 38.6381 4.03873 37.6124 5.80392L28.3691 21.7133C27.8488 22.6091 27.7493 23.6826 28.0965 24.6587C28.4437 25.6348 29.1986 26.4043 30.1675 26.7703L30.5456 26.9132C31.6608 27.3344 32.8099 27.5378 33.9437 27.5378C36.8358 27.5376 39.6254 26.2133 41.4781 23.8021L44.1203 20.3635C45.5362 21.5837 48.1777 23.3911 51.5495 23.6131L68.7663 38.4518C69.0759 38.7185 69.2631 39.0897 69.2933 39.4972C69.3235 39.9046 69.1935 40.2996 68.9272 40.6088L68.2562 41.387C67.4133 42.3633 65.9317 42.4717 64.9536 41.6292C64.899 41.5821 64.8408 41.5417 64.7812 41.5051L60.3118 37.6513C59.7607 37.176 58.9281 37.2375 58.4524 37.7889C57.9769 38.3404 58.0386 39.1729 58.59 39.6484L62.222 42.7801L60.5653 44.7028C60.0562 45.2932 59.2902 45.5915 58.5169 45.5006C58.0541 45.4461 57.6208 45.2547 57.2639 44.9469C57.2576 44.9415 57.2508 44.9369 57.2444 44.9316L53.0916 41.351C52.5402 40.8757 51.7079 40.9372 51.2322 41.4886C50.7567 42.04 50.8184 42.8725 51.3698 43.348L54.5434 46.0844L52.8768 48.0199C52.3676 48.6105 51.5998 48.9088 50.8263 48.8178C50.103 48.7323 49.448 49.2502 49.3631 49.9732C49.2782 50.6963 49.7954 51.3515 50.5185 51.4364C50.7138 51.4592 50.9086 51.4706 51.1027 51.4706C52.5423 51.4706 53.9202 50.8472 54.8744 49.741L56.6561 47.6719C57.1428 47.9039 57.6661 48.0556 58.2089 48.1194C59.8542 48.3128 61.4807 47.6791 62.5625 46.4243L64.3472 44.3531C66.3209 45.2893 68.7586 44.8402 70.2527 43.1093L70.9245 42.3301C71.6509 41.4868 72.0054 40.4112 71.923 39.3015C71.8405 38.1917 71.3306 37.1804 70.4879 36.4546L69.4058 35.5221L73.361 35.5187C73.7933 37.7969 75.7981 39.4385 78.0922 39.4385C78.2876 39.4385 78.4857 39.4265 78.6846 39.4021L88.8426 38.1516C89.5652 38.0625 90.079 37.4047 89.9901 36.6819Z" fill="#0EBAB9"/>
<path d="M12.1624 31.0316C12.1624 28.8994 10.4278 27.1648 8.29555 27.1648C6.16332 27.1648 4.42871 28.8994 4.42871 31.0316C4.42871 33.1639 6.16332 34.8986 8.29555 34.8986C10.4278 34.8986 12.1624 33.1639 12.1624 31.0316ZM7.06543 31.0316C7.06543 30.3533 7.61721 29.8015 8.29555 29.8015C8.97389 29.8015 9.52566 30.3533 9.52566 31.0316C9.52566 31.71 8.97389 32.2619 8.29555 32.2619C7.61721 32.2619 7.06543 31.71 7.06543 31.0316Z" fill="#0EBAB9"/>
<path d="M85.429 31.0316C85.429 28.8994 83.6944 27.1648 81.5621 27.1648C79.4299 27.1648 77.6953 28.8994 77.6953 31.0316C77.6953 33.1639 79.4299 34.8986 81.5621 34.8986C83.6944 34.8986 85.429 33.1639 85.429 31.0316ZM80.332 31.0316C80.332 30.3533 80.8838 29.8015 81.5621 29.8015C82.2405 29.8015 82.7923 30.3533 82.7923 31.0316C82.7923 31.71 82.2405 32.2619 81.5621 32.2619C80.8838 32.2619 80.332 31.71 80.332 31.0316Z" fill="#0EBAB9"/>
</svg>
