<svg width="53" height="52" viewBox="0 0 53 52" fill="none" xmlns="http://www.w3.org/2000/svg">
<path d="M45.4722 2.93226C45.4437 2.84137 45.386 2.76247 45.3079 2.70785C45.2299 2.65323 45.136 2.62598 45.0409 2.63033C44.9457 2.62598 44.8518 2.65323 44.7738 2.70785C44.6958 2.76247 44.638 2.84137 44.6096 2.93226C44.489 3.32695 44.2734 3.68599 43.9816 3.9778C43.6898 4.26961 43.3307 4.48525 42.936 4.60577C42.8464 4.6319 42.7677 4.68638 42.7118 4.76104C42.6558 4.8357 42.6255 4.92651 42.6255 5.01983C42.6255 5.11316 42.6558 5.20397 42.7118 5.27863C42.7677 5.35328 42.8464 5.40777 42.936 5.4339C43.3307 5.55441 43.6898 5.77006 43.9816 6.06187C44.2734 6.35368 44.489 6.71272 44.6096 7.10741C44.638 7.1983 44.6958 7.2772 44.7738 7.33182C44.8518 7.38643 44.9457 7.41369 45.0409 7.40933C45.136 7.41369 45.2299 7.38643 45.3079 7.33182C45.386 7.2772 45.4437 7.1983 45.4722 7.10741C45.594 6.71342 45.8101 6.35509 46.1018 6.06347C46.3934 5.77186 46.7517 5.55576 47.1457 5.4339C47.2353 5.40777 47.314 5.35328 47.37 5.27863C47.426 5.20397 47.4562 5.11316 47.4562 5.01983C47.4562 4.92651 47.426 4.8357 47.37 4.76104C47.314 4.68638 47.2353 4.6319 47.1457 4.60577C46.7517 4.48391 46.3934 4.26781 46.1018 3.97619C45.8101 3.68458 45.594 3.32625 45.4722 2.93226ZM45.0409 5.98167C44.7894 5.59868 44.462 5.27133 44.079 5.01983C44.462 4.76834 44.7894 4.44099 45.0409 4.058C45.2907 4.44087 45.6166 4.76826 45.9984 5.01983C45.6244 5.27369 45.306 5.60093 45.0624 5.98167H45.0409Z" fill="#0EBAB9" stroke="#0EBAB9" stroke-width="0.5"/>
<path d="M27.1634 32.5854L25.6581 31.9212C25.6054 31.8982 25.5487 31.8859 25.4913 31.8848C25.4338 31.8838 25.3768 31.8941 25.3233 31.9151C25.2698 31.9361 25.221 31.9675 25.1797 32.0074C25.1383 32.0473 25.1052 32.0949 25.0823 32.1476C25.0593 32.2003 25.047 32.2569 25.046 32.3144C25.0449 32.3718 25.0552 32.4289 25.0763 32.4824C25.0973 32.5359 25.1286 32.5847 25.1685 32.626C25.2084 32.6674 25.256 32.7005 25.3087 32.7234L26.814 33.3876C26.8696 33.4129 26.9298 33.4262 26.9909 33.4264C27.0906 33.4273 27.1875 33.3935 27.2651 33.3309C27.3428 33.2683 27.3963 33.1807 27.4166 33.0831C27.437 32.9855 27.4229 32.8838 27.3767 32.7954C27.3305 32.7071 27.2551 32.6374 27.1634 32.5983V32.5854Z" fill="#0EBAB9" stroke="#0EBAB9" stroke-width="0.5"/>
<path d="M30.9889 35.6345L29.6691 30.2043C29.6539 30.14 29.6545 30.0731 29.6711 30.0092C29.6876 29.9453 29.7195 29.8864 29.764 29.8376L33.4905 25.6711C33.6402 25.4907 33.7381 25.2731 33.7738 25.0414C33.8094 24.8098 33.7814 24.5728 33.6928 24.3558C33.6043 24.1388 33.4584 23.9499 33.2708 23.8093C33.0833 23.6687 32.8611 23.5818 32.6279 23.5577L27.0553 23.1263C26.9893 23.1222 26.9253 23.1019 26.8689 23.0673C26.8125 23.0327 26.7654 22.9849 26.7318 22.9279L23.9369 18.1015C23.8183 17.8958 23.6443 17.7276 23.4349 17.6159C23.2254 17.5042 22.9887 17.4536 22.7519 17.4697C22.515 17.4859 22.2875 17.5683 22.0951 17.7074C21.9028 17.8465 21.7533 18.0369 21.6638 18.2568L19.5374 23.4326C19.5127 23.4934 19.4734 23.5472 19.423 23.5894C19.3727 23.6315 19.3127 23.6606 19.2484 23.6741L13.7836 24.843C13.5568 24.9004 13.3498 25.0182 13.1846 25.184C13.0194 25.3497 12.9023 25.5571 12.8456 25.7841C12.789 26.0112 12.7949 26.2493 12.8629 26.4732C12.9309 26.6971 13.0583 26.8984 13.2316 27.0556L17.4887 30.6744C17.5373 30.718 17.5754 30.7722 17.6001 30.8327C17.6247 30.8932 17.6353 30.9585 17.631 31.0238L17.0617 36.605C17.0469 36.7813 17.0684 36.9587 17.1249 37.1263C17.1814 37.2939 17.2716 37.4482 17.39 37.5795C17.5085 37.7109 17.6526 37.8166 17.8135 37.8901C17.9743 37.9636 18.1486 38.0033 18.3254 38.0068C18.5614 38.0057 18.7926 37.9401 18.994 37.817L23.7385 34.8841C23.795 34.8517 23.8581 34.8325 23.9231 34.8281C23.9881 34.8236 24.0533 34.8339 24.1137 34.8582L29.2248 37.1183C29.442 37.2059 29.6788 37.2329 29.9101 37.1965C30.1414 37.1601 30.3585 37.0616 30.5382 36.9115C30.7179 36.7614 30.8535 36.5654 30.9306 36.3443C31.0077 36.1233 31.0234 35.8854 30.976 35.6561L30.9889 35.6345ZM30.0141 36.247C29.9559 36.298 29.8841 36.3309 29.8075 36.3417C29.7309 36.3524 29.6528 36.3405 29.5828 36.3074L24.476 34.0473C24.2879 33.9641 24.0823 33.9281 23.8771 33.9424C23.6719 33.9566 23.4733 34.0208 23.2985 34.1292L18.554 37.0622C18.4879 37.0946 18.4145 37.1096 18.3409 37.1056C18.2674 37.1016 18.1961 37.0789 18.1338 37.0395C18.0715 37.0002 18.0204 36.9455 17.9852 36.8808C17.95 36.816 17.932 36.7434 17.9329 36.6697L18.5023 31.1143C18.5228 30.9099 18.4945 30.7036 18.4194 30.5123C18.3444 30.3211 18.225 30.1504 18.0709 30.0145L13.8138 26.3957C13.7555 26.3487 13.7114 26.2863 13.6864 26.2157C13.6614 26.1451 13.6564 26.0689 13.6721 25.9957C13.6877 25.9224 13.7233 25.8549 13.775 25.8006C13.8267 25.7464 13.8924 25.7075 13.9648 25.6884L19.4296 24.5281C19.63 24.4826 19.8167 24.39 19.9742 24.258C20.1317 24.126 20.2555 23.9584 20.3354 23.769L22.4618 18.5932C22.4901 18.5221 22.5379 18.4605 22.5997 18.4155C22.6615 18.3705 22.7348 18.3439 22.8111 18.3387H22.8413C22.9125 18.3377 22.9825 18.356 23.0441 18.3917C23.1056 18.4274 23.1563 18.4791 23.1907 18.5414L25.9986 23.3636C26.1037 23.541 26.2498 23.6908 26.4247 23.8003C26.5995 23.9099 26.7979 23.976 27.0035 23.9933L32.5718 24.4246C32.6446 24.4367 32.713 24.4674 32.7706 24.5135C32.8281 24.5596 32.8729 24.6197 32.9006 24.6881C32.9283 24.7565 32.938 24.8308 32.9287 24.904C32.9195 24.9771 32.8917 25.0467 32.8479 25.1061L29.1213 29.2726C28.9835 29.4259 28.8852 29.6106 28.8348 29.8105C28.7844 30.0104 28.7836 30.2196 28.8323 30.4199L30.1263 35.8502C30.1452 35.9203 30.1448 35.9942 30.1251 36.0641C30.1053 36.134 30.067 36.1972 30.0141 36.247Z" fill="#0EBAB9" stroke="#0EBAB9" stroke-width="0.5"/>
<path d="M7.0637 12.8829L10.0829 15.294C10.2614 15.4378 10.4834 15.5169 10.7126 15.5183C10.8618 15.5199 11.0093 15.4875 11.144 15.4234C11.3161 15.3452 11.4626 15.2198 11.5664 15.0618C11.6702 14.9038 11.7271 14.7196 11.7306 14.5306L11.8211 10.6875C11.8209 10.6636 11.8267 10.64 11.838 10.6188C11.8493 10.5977 11.8658 10.5798 11.8858 10.5668L15.1035 8.46192C15.2616 8.35916 15.3878 8.21415 15.4677 8.04333C15.5476 7.87252 15.5781 7.68273 15.5556 7.49548C15.5332 7.30824 15.4587 7.13103 15.3407 6.98394C15.2226 6.83686 15.0657 6.72579 14.8878 6.66333L11.2561 5.36937C11.2347 5.36042 11.2155 5.3469 11.1999 5.32977C11.1842 5.31263 11.1725 5.2923 11.1655 5.27017L10.1131 1.55653C10.0601 1.3804 9.96021 1.22202 9.82407 1.09834C9.68794 0.974662 9.52073 0.890357 9.34034 0.854457C9.15995 0.818557 8.9732 0.832416 8.80009 0.894548C8.62698 0.95668 8.47403 1.06474 8.35765 1.20716L6.00265 4.25657C5.98859 4.27532 5.97036 4.29054 5.9494 4.30102C5.92844 4.3115 5.90532 4.31696 5.88189 4.31696L2.03884 4.12718C1.85272 4.12172 1.66871 4.16787 1.50718 4.2605C1.34565 4.35314 1.2129 4.48865 1.12361 4.65205C1.03432 4.81546 0.991972 5.00037 1.00126 5.18635C1.01054 5.37232 1.07109 5.5521 1.17621 5.7058L3.36299 8.87167C3.37363 8.89312 3.37917 8.91674 3.37917 8.94068C3.37917 8.96463 3.37363 8.98825 3.36299 9.0097L1.99571 12.6112C1.92764 12.7873 1.91055 12.979 1.9464 13.1644C1.98225 13.3498 2.0696 13.5213 2.19843 13.6593C2.32741 13.797 2.4921 13.8961 2.67412 13.9456C2.85615 13.9951 3.04835 13.993 3.22928 13.9397L6.91273 12.8355C6.93982 12.8286 6.96828 12.8295 6.99493 12.8378C7.02158 12.8462 7.04539 12.8618 7.0637 12.8829ZM2.99637 13.1331C2.97071 13.1406 2.94348 13.141 2.91764 13.1341C2.89179 13.1273 2.8683 13.1135 2.84972 13.0943C2.82938 13.0746 2.81558 13.0492 2.81018 13.0214C2.80477 12.9936 2.80804 12.9649 2.81953 12.939L4.18681 9.34612C4.24329 9.18778 4.25986 9.01796 4.23503 8.85169C4.2102 8.68542 4.14475 8.52784 4.04447 8.39291L1.88788 5.22704C1.87285 5.20394 1.86485 5.17697 1.86485 5.1494C1.86485 5.12184 1.87285 5.09487 1.88788 5.07176C1.90004 5.04737 1.91936 5.02728 1.94326 5.01417C1.96716 5.00107 1.99449 4.99558 2.02159 4.99844L5.86463 5.18391C6.02956 5.1941 6.19448 5.16364 6.34488 5.09521C6.49529 5.02677 6.6266 4.92245 6.72727 4.79141L9.0607 1.73337C9.07703 1.71139 9.09919 1.69442 9.12466 1.68439C9.15014 1.67435 9.17792 1.67165 9.20485 1.67659C9.23178 1.68152 9.2568 1.6939 9.27706 1.71232C9.29732 1.73074 9.31201 1.75447 9.31949 1.78081L10.3288 5.49446C10.3694 5.65019 10.4465 5.79402 10.5538 5.91402C10.661 6.03403 10.7953 6.12677 10.9456 6.18456L14.5772 7.47852C14.6032 7.48698 14.6262 7.50298 14.643 7.52448C14.6599 7.54599 14.6701 7.57202 14.6721 7.59929C14.6759 7.6267 14.6718 7.65461 14.6603 7.67979C14.6489 7.70498 14.6306 7.72641 14.6074 7.74162L11.3769 9.82489C11.239 9.91314 11.125 10.0342 11.0452 10.1772C10.9655 10.3202 10.9223 10.4807 10.9197 10.6444L10.8291 14.4917C10.8278 14.5191 10.8191 14.5456 10.8039 14.5684C10.7887 14.5912 10.7676 14.6094 10.7428 14.6211C10.7177 14.6331 10.6896 14.6375 10.662 14.6337C10.6344 14.6298 10.6085 14.618 10.5876 14.5996L7.5899 12.1885C7.41133 12.0453 7.18907 11.9677 6.96018 11.9685C6.86255 11.9684 6.76534 11.9815 6.6712 12.0074L2.99637 13.1331Z" fill="#0EBAB9" stroke="#0EBAB9" stroke-width="0.5"/>
<path d="M43.3249 19.4646C43.3956 19.5951 43.5003 19.7041 43.6278 19.78C43.7554 19.856 43.9011 19.896 44.0495 19.896H44.0883C44.2431 19.8904 44.3932 19.8413 44.5214 19.7544C44.6496 19.6674 44.7506 19.546 44.813 19.4043L45.8567 16.9932L48.4446 16.4972C48.6012 16.4732 48.7474 16.4042 48.8654 16.2985C48.9833 16.1928 49.068 16.055 49.1089 15.902C49.1556 15.7498 49.1573 15.5873 49.1137 15.4342C49.07 15.2812 48.983 15.144 48.863 15.0393L46.8962 13.314L47.2326 10.6787C47.2509 10.5254 47.2261 10.37 47.161 10.2299C47.096 10.0899 46.9933 9.97067 46.8644 9.88564C46.7355 9.8006 46.5855 9.7531 46.4312 9.74843C46.2768 9.74376 46.1242 9.78211 45.9905 9.85919L43.726 11.2006L41.3279 10.0662C41.1886 10.0019 41.0342 9.9775 40.8819 9.99577C40.7296 10.0141 40.5854 10.0743 40.4653 10.1697C40.3432 10.265 40.2508 10.3931 40.1988 10.539C40.1469 10.6849 40.1376 10.8426 40.172 10.9936L40.7413 13.5599L38.9212 15.4922C38.8147 15.6048 38.7419 15.7451 38.7112 15.897C38.6805 16.049 38.6931 16.2065 38.7475 16.3516C38.8018 16.4968 38.8958 16.6237 39.0188 16.7181C39.1418 16.8124 39.2888 16.8704 39.443 16.8854L42.0568 17.1355L43.3249 19.4646ZM41.3581 14.1508C41.4519 14.0533 41.5202 13.9343 41.5571 13.8041C41.5939 13.674 41.5982 13.5368 41.5694 13.4046L41.0217 10.8771L43.3637 11.9813C43.4855 12.0387 43.6195 12.0656 43.754 12.0596C43.8886 12.0536 44.0196 12.0149 44.1358 11.9468L46.3743 10.6226L46.0422 13.2105C46.0279 13.3441 46.0451 13.4792 46.0923 13.605C46.1394 13.7308 46.2153 13.8439 46.3139 13.9351L48.2419 15.6604L45.7015 16.1435C45.5691 16.1673 45.4448 16.2235 45.3394 16.307C45.234 16.3906 45.151 16.4988 45.0976 16.6223L44.0538 18.9902L42.8073 16.7215C42.7429 16.6031 42.6508 16.5021 42.5389 16.427C42.427 16.3519 42.2986 16.305 42.1647 16.2901L39.5768 16.0314L41.3581 14.1508Z" fill="#0EBAB9" stroke="#0EBAB9" stroke-width="0.5"/>
<path d="M11.8428 39.8405L12.1749 37.2526C12.1956 37.0979 12.1722 36.9405 12.1073 36.7986C12.0424 36.6566 11.9388 36.5359 11.8083 36.4503C11.6813 36.3657 11.5332 36.3184 11.3807 36.3138C11.2282 36.3093 11.0775 36.3476 10.9457 36.4244L8.72006 37.7184L6.34782 36.6056C6.20825 36.5404 6.05328 36.5155 5.90032 36.5336C5.74736 36.5516 5.60248 36.612 5.48194 36.7079C5.36141 36.8038 5.27001 36.9314 5.21801 37.0764C5.166 37.2213 5.15546 37.378 5.18757 37.5286L5.76985 40.0561L3.97557 41.9625C3.8701 42.0745 3.79809 42.2138 3.7677 42.3646C3.73731 42.5154 3.74975 42.6717 3.80362 42.8158C3.85749 42.9599 3.95063 43.0861 4.0725 43.18C4.19436 43.2738 4.34008 43.3317 4.49315 43.3471L7.08106 43.5929L8.3405 45.8875C8.41051 46.0177 8.51442 46.1265 8.64122 46.2024C8.76803 46.2784 8.91301 46.3186 9.0608 46.3188H9.09962C9.25283 46.3136 9.40142 46.265 9.52814 46.1788C9.65487 46.0925 9.75454 45.9721 9.81561 45.8315L10.8465 43.4549L13.4344 42.9675C13.5854 42.939 13.7255 42.8688 13.8388 42.7649C13.9521 42.6609 14.034 42.5273 14.0753 42.3792C14.1165 42.2311 14.1156 42.0744 14.0724 41.9268C14.0293 41.7793 13.9457 41.6467 13.8312 41.5442L11.8428 39.8405ZM10.6524 42.6181C10.5217 42.6432 10.3989 42.6995 10.2946 42.782C10.1902 42.8646 10.1073 42.9712 10.0528 43.0926L9.0263 45.4217L7.80567 43.1918C7.74277 43.0731 7.65165 42.9717 7.54034 42.8964C7.42902 42.8212 7.30092 42.7745 7.16732 42.7605L4.6398 42.5017L6.36507 40.6513C6.45642 40.5542 6.52295 40.4363 6.55899 40.3079C6.59504 40.1795 6.59954 40.0443 6.5721 39.9138L6.03295 37.4294L8.35776 38.5206C8.47874 38.5776 8.61168 38.6047 8.74532 38.5994C8.87896 38.5942 9.00937 38.5568 9.1255 38.4904L11.3252 37.1965L11.0017 39.7413C10.9844 39.874 10.9997 40.009 11.0463 40.1345C11.0929 40.26 11.1694 40.3723 11.2692 40.4616L13.1626 42.1566L10.6524 42.6181Z" fill="#0EBAB9" stroke="#0EBAB9" stroke-width="0.5"/>
<path d="M50.9715 37.8992L47.9522 37.6448L46.4469 35.018C46.3621 34.8777 46.2405 34.7633 46.0953 34.6873C45.95 34.6113 45.7867 34.5765 45.6231 34.5867C45.4577 34.5967 45.2985 34.6529 45.1635 34.749C45.0285 34.8451 44.9232 34.9772 44.8597 35.1302L43.6606 37.8992L40.7061 38.5246C40.5397 38.5584 40.3865 38.6395 40.2649 38.758C40.1432 38.8766 40.0583 39.0277 40.0203 39.1932C39.9862 39.3489 39.9942 39.5109 40.0434 39.6625C40.0927 39.8142 40.1815 39.9499 40.3007 40.0558L42.6039 42.0485L42.2804 45.0677C42.2596 45.2351 42.2866 45.405 42.3584 45.5577C42.4301 45.7104 42.5437 45.8396 42.6859 45.9304C42.8294 46.0202 42.9953 46.068 43.1646 46.0684C43.326 46.0678 43.4841 46.023 43.6218 45.939L46.2097 44.3647L48.9702 45.6026C49.1211 45.6694 49.2878 45.6928 49.4513 45.6702C49.6148 45.6476 49.7689 45.5798 49.8961 45.4746C50.0233 45.3693 50.1186 45.2307 50.1714 45.0743C50.2243 44.9178 50.2325 44.7498 50.1951 44.589L49.5007 41.6215L51.5322 39.3787C51.642 39.2573 51.7162 39.1081 51.7466 38.9473C51.7769 38.7865 51.7623 38.6204 51.7043 38.4674C51.6463 38.3144 51.5472 38.1804 51.4179 38.0801C51.2886 37.9799 51.1341 37.9173 50.9715 37.8992ZM48.9011 41.022C48.8035 41.1275 48.7339 41.2558 48.6984 41.3952C48.663 41.5346 48.663 41.6805 48.6984 41.8199L49.3842 44.7874L46.6195 43.5495C46.4888 43.4916 46.3461 43.466 46.2034 43.475C46.0607 43.484 45.9223 43.5273 45.8 43.6013L43.1776 45.154L43.501 42.1348C43.5189 41.9918 43.5006 41.8466 43.4478 41.7125C43.3951 41.5784 43.3096 41.4596 43.1991 41.367L40.9131 39.3571L43.8375 38.7619C43.9778 38.7319 44.1088 38.6683 44.2192 38.5767C44.3296 38.4851 44.4162 38.368 44.4715 38.2357L45.6792 35.4407L47.1888 38.0631C47.2613 38.1856 47.3623 38.2888 47.4832 38.3639C47.6041 38.439 47.7413 38.4837 47.8832 38.4944L50.9025 38.7791L48.9011 41.022Z" fill="#0EBAB9" stroke="#0EBAB9" stroke-width="0.5"/>
<path d="M26.0415 11.0536C26.7521 11.2739 27.3984 11.6639 27.9244 12.1899C28.4505 12.716 28.8405 13.3623 29.0607 14.0729C29.0892 14.1637 29.1469 14.2427 29.225 14.2973C29.303 14.3519 29.3969 14.3791 29.492 14.3748C29.5872 14.3791 29.6811 14.3519 29.7591 14.2973C29.8371 14.2427 29.8949 14.1637 29.9234 14.0729C30.1429 13.3619 30.5327 12.7153 31.0589 12.1891C31.585 11.663 32.2316 11.2732 32.9426 11.0536C33.0335 11.0252 33.1124 10.9674 33.167 10.8894C33.2216 10.8114 33.2489 10.7175 33.2445 10.6223C33.2441 10.5308 33.2147 10.4418 33.1604 10.3682C33.1061 10.2945 33.0299 10.24 32.9426 10.2126C32.2323 9.99167 31.5864 9.60144 31.0604 9.07548C30.5345 8.54952 30.1443 7.9036 29.9234 7.19335C29.8957 7.10166 29.8382 7.0218 29.7601 6.96635C29.6821 6.9109 29.5877 6.88302 29.492 6.88711C29.3963 6.88302 29.302 6.9109 29.2239 6.96635C29.1458 7.0218 29.0884 7.10166 29.0607 7.19335C28.8392 7.90326 28.4487 8.54883 27.9228 9.07469C27.397 9.60055 26.7514 9.99101 26.0415 10.2126C25.9534 10.2393 25.8762 10.2934 25.8211 10.3671C25.766 10.4409 25.7359 10.5303 25.7353 10.6223C25.7312 10.718 25.759 10.8123 25.8145 10.8904C25.8699 10.9685 25.9498 11.026 26.0415 11.0536ZM29.492 8.43554C29.9981 9.36936 30.7656 10.1353 31.7004 10.6396C30.7644 11.1442 29.9966 11.9119 29.492 12.8479C28.989 11.9122 28.2227 11.1444 27.288 10.6396C28.2215 10.135 28.9875 9.36906 29.492 8.43554Z" fill="#0EBAB9" stroke="#0EBAB9" stroke-width="0.5"/>
<path d="M9.0223 27.9489C8.99383 27.858 8.93608 27.7791 8.85805 27.7245C8.78003 27.6698 8.68612 27.6426 8.59098 27.6469C8.49949 27.6473 8.41048 27.6767 8.33683 27.731C8.26317 27.7853 8.20868 27.8616 8.18123 27.9489C8.07102 28.3077 7.87464 28.634 7.60923 28.8994C7.34383 29.1648 7.01747 29.3612 6.65868 29.4714C6.56699 29.4991 6.48713 29.5565 6.43168 29.6346C6.37623 29.7127 6.34836 29.807 6.35244 29.9027C6.34836 29.9984 6.37623 30.0927 6.43168 30.1708C6.48713 30.2489 6.56699 30.3064 6.65868 30.334C7.01678 30.4456 7.34243 30.6424 7.60764 30.9076C7.87285 31.1729 8.06969 31.4985 8.18123 31.8566C8.20792 31.9447 8.26208 32.0219 8.33581 32.077C8.40953 32.1321 8.49895 32.1622 8.59098 32.1628C8.68612 32.1672 8.78003 32.1399 8.85805 32.0853C8.93608 32.0307 8.99383 31.9518 9.0223 31.8609C9.13324 31.502 9.32981 31.1755 9.59506 30.9095C9.86031 30.6435 10.1863 30.446 10.5449 30.334C10.6357 30.3056 10.7146 30.2478 10.7693 30.1698C10.8239 30.0918 10.8511 29.9979 10.8468 29.9027C10.8511 29.8076 10.8239 29.7137 10.7693 29.6357C10.7146 29.5576 10.6357 29.4999 10.5449 29.4714C10.1861 29.3612 9.85971 29.1648 9.5943 28.8994C9.3289 28.634 9.13251 28.3077 9.0223 27.9489ZM8.59098 30.7093C8.37057 30.3854 8.09109 30.1059 7.76717 29.8855C8.09222 29.6647 8.37189 29.3836 8.59098 29.0573C8.81281 29.3827 9.09371 29.6636 9.41911 29.8855C9.10106 30.1086 8.82628 30.3877 8.60824 30.7093H8.59098Z" fill="#0EBAB9" stroke="#0EBAB9" stroke-width="0.5"/>
<path d="M38.8644 31.3128C38.4945 31.199 38.1581 30.9965 37.8844 30.7228C37.6108 30.4492 37.4082 30.1127 37.2944 29.7428C37.266 29.6519 37.2082 29.573 37.1302 29.5184C37.0522 29.4638 36.9583 29.4365 36.8631 29.4409C36.768 29.4365 36.6741 29.4638 36.596 29.5184C36.518 29.573 36.4603 29.6519 36.4318 29.7428C36.318 30.1127 36.1155 30.4492 35.8418 30.7228C35.5682 30.9965 35.2317 31.199 34.8618 31.3128C34.7701 31.3405 34.6903 31.3979 34.6348 31.476C34.5794 31.5541 34.5515 31.6484 34.5556 31.7441C34.5515 31.8398 34.5794 31.9341 34.6348 32.0122C34.6903 32.0903 34.7701 32.1477 34.8618 32.1754C35.2314 32.2899 35.5675 32.4927 35.841 32.7662C36.1146 33.0398 36.3174 33.3759 36.4318 33.7454C36.4595 33.8371 36.5169 33.917 36.595 33.9724C36.6731 34.0279 36.7674 34.0558 36.8631 34.0517C36.9588 34.0558 37.0531 34.0279 37.1312 33.9724C37.2093 33.917 37.2667 33.8371 37.2944 33.7454C37.4089 33.3759 37.6117 33.0398 37.8852 32.7662C38.1588 32.4927 38.4949 32.2899 38.8644 32.1754C38.9561 32.1477 39.036 32.0903 39.0914 32.0122C39.1469 31.9341 39.1748 31.8398 39.1707 31.7441C39.1748 31.6484 39.1469 31.5541 39.0914 31.476C39.036 31.3979 38.9561 31.3405 38.8644 31.3128ZM36.8847 32.6068C36.655 32.2666 36.3622 31.9738 36.022 31.7441C36.3612 31.5133 36.6539 31.2207 36.8847 30.8815C37.114 31.2219 37.4069 31.5148 37.7473 31.7441C37.4072 31.9685 37.1142 32.2572 36.8847 32.5938V32.6068Z" fill="#0EBAB9" stroke="#0EBAB9" stroke-width="0.5"/>
<path d="M36.8632 47.1163C36.2456 46.9287 35.6834 46.5928 35.2256 46.1379C34.7677 45.6831 34.4281 45.1231 34.2364 44.5068C34.2087 44.4151 34.1513 44.3353 34.0732 44.2798C33.9951 44.2244 33.9008 44.1965 33.8051 44.2006C33.7094 44.1965 33.6151 44.2244 33.537 44.2798C33.4589 44.3353 33.4015 44.4151 33.3738 44.5068C33.1847 45.1217 32.8481 45.6809 32.3933 46.1358C31.9384 46.5906 31.3792 46.9272 30.7643 47.1163C30.6764 47.1436 30.5996 47.1983 30.545 47.2724C30.4904 47.3465 30.4609 47.4362 30.4609 47.5282C30.4609 47.6202 30.4904 47.7099 30.545 47.784C30.5996 47.8581 30.6764 47.9128 30.7643 47.9401C31.3768 48.1271 31.9344 48.4605 32.3891 48.9114C32.8437 49.3623 33.1817 49.9172 33.3738 50.528C33.4015 50.6197 33.4589 50.6996 33.537 50.755C33.6151 50.8105 33.7094 50.8383 33.8051 50.8343C33.9008 50.8383 33.9951 50.8105 34.0732 50.755C34.1513 50.6996 34.2087 50.6197 34.2364 50.528C34.4299 49.9172 34.7689 49.3625 35.2242 48.9117C35.6795 48.4609 36.2375 48.1275 36.8502 47.9401C36.9381 47.9128 37.015 47.8581 37.0696 47.784C37.1242 47.7099 37.1536 47.6202 37.1536 47.5282C37.1536 47.4362 37.1242 47.3465 37.0696 47.2724C37.015 47.1983 36.9381 47.1436 36.8502 47.1163H36.8632ZM33.8439 49.3419C33.4147 48.5841 32.7869 47.9578 32.0281 47.5304C32.7861 47.1 33.4136 46.4725 33.8439 45.7145C34.2726 46.4724 34.8986 47.0999 35.6555 47.5304C34.8963 47.9573 34.2683 48.5837 33.8396 49.3419H33.8439Z" fill="#0EBAB9" stroke="#0EBAB9" stroke-width="0.5"/>
</svg>
