<svg width="66" height="66" fill="none" xmlns="http://www.w3.org/2000/svg"><g clip-path="url(#clip0)" fill="#0EBAB9"><path d="M62.971 10.102L51.485 5.317a5.19 5.19 0 00-3.964 0l-5.515 2.297A.967.967 0 0042.75 9.4l5.514-2.298a3.243 3.243 0 012.478 0l11.485 4.785c1.117.466 1.84 1.514 1.84 2.67v41.346c0 1.608-1.382 2.916-3.079 2.916H59.42a.967.967 0 100 1.934h1.568c2.764 0 5.012-2.176 5.012-4.85V14.556c0-1.938-1.189-3.686-3.029-4.454zM55.207 58.82H38.962a4.133 4.133 0 001.035-2.747 4.14 4.14 0 00-.979-2.676 4.177 4.177 0 001.056-.768 4.132 4.132 0 001.217-2.94c0-1.06-.398-2.027-1.052-2.762a4.168 4.168 0 002.113-3.622c0-1.056-.396-2.02-1.047-2.755.33-.185.637-.415.912-.69a4.136 4.136 0 001.217-2.94 4.164 4.164 0 00-4.16-4.16H34.94V14.557c0-1.155.722-2.203 1.838-2.669l1.759-.732a.967.967 0 10-.743-1.785l-1.76.732c-1.84.768-3.028 2.516-3.028 4.454v18.205h-4.04c1.346-4.251 1.231-8.687-.338-13.836a3.733 3.733 0 00-1.373-1.932 3.773 3.773 0 00-2.246-.735 3.753 3.753 0 00-2.747 1.18 3.752 3.752 0 00-1.035 2.803c.302 5.814-2.38 7.814-6.091 10.584-1.222.912-2.557 1.909-3.87 3.132V32.69a.967.967 0 00-.967-.967H.967A.967.967 0 000 32.69v27.42c0 .533.433.966.967.966H10.3a.967.967 0 00.966-.967v-2.432c1.837.175 3.178.54 4.48 1.54a4.913 4.913 0 002.97 1.016h17.05c.697.34 1.47.52 2.252.52h17.189a.967.967 0 100-1.934zm-38.284-1.138c-1.823-1.397-3.771-1.785-5.657-1.948v-11.29a.967.967 0 10-1.933 0v14.699h-7.4V33.657h7.4v6.575a.967.967 0 101.933 0v-3.529c1.618-1.784 3.35-3.077 5.027-4.328 3.713-2.771 7.22-5.389 6.865-12.234-.027-.512.153-1 .507-1.372.353-.372.83-.577 1.344-.577a1.85 1.85 0 011.77 1.298c1.598 5.244 1.573 9.657-.08 13.886a.967.967 0 00.901 1.319h11.675a2.228 2.228 0 011.575 3.799 2.22 2.22 0 01-1.575.652h-3.971a.967.967 0 100 1.933h2.89a2.228 2.228 0 011.573 3.8 2.21 2.21 0 01-1.573.652h-2.89a.967.967 0 100 1.933h1.829a2.228 2.228 0 011.573 3.799c-.42.42-.98.652-1.573.652h-2.891a.967.967 0 100 1.934h1.596a2.227 2.227 0 011.575 3.799c-.393.392-1.013.642-1.477.65l-17.22.002c-.636 0-1.273-.22-1.793-.618z"/><path d="M52.992 14.986a3.689 3.689 0 00-3.684-3.684 3.689 3.689 0 00-3.684 3.684 3.689 3.689 0 003.684 3.684 3.689 3.689 0 003.684-3.684zm-5.435 0c0-.965.786-1.75 1.75-1.75.966 0 1.752.785 1.752 1.75s-.786 1.75-1.751 1.75c-.965 0-1.75-.785-1.75-1.75zm2.355 32.988h-1.734a1.658 1.658 0 01-1.656-1.656.967.967 0 10-1.934 0 3.594 3.594 0 003.49 3.587v2.14a.967.967 0 101.934 0v-2.14a3.594 3.594 0 003.49-3.587V44.98a2.85 2.85 0 00-1.975-2.718l-4.367-1.419a.922.922 0 01-.638-.878v-1.917c0-.741.603-1.345 1.345-1.345h2.356c.742 0 1.345.604 1.345 1.345a.967.967 0 101.934 0 3.282 3.282 0 00-3.279-3.279h-.211v-2.137a.967.967 0 10-1.934 0v2.138h-.211a3.282 3.282 0 00-3.28 3.278v1.917a2.85 2.85 0 001.975 2.717l4.368 1.419a.922.922 0 01.638.879v1.338c0 .913-.743 1.656-1.656 1.656z"/></g><defs><clipPath id="clip0"><path fill="#fff" d="M0 0h66v66H0z"/></clipPath></defs></svg>