<svg width="66" height="66" fill="none" xmlns="http://www.w3.org/2000/svg"><path d="M65.88 53.433a5.577 5.577 0 00-2.467-3.587 5.579 5.579 0 00-4.288-.747l-6.88 1.575V47.86c1.38-1.3 2.817-2.996 3.839-4.547a26.66 26.66 0 003.768-8.875c.843-3.77.861-7.76.052-11.543a1.289 1.289 0 10-2.521.54c.732 3.42.716 7.03-.047 10.44a24.091 24.091 0 01-3.405 8.02 22.933 22.933 0 01-1.685 2.223V29.83a1.29 1.29 0 00-1.29-1.289H40.76V14.775a1.29 1.29 0 00-1.285-1.289l-11.486-.039h-.004a1.286 1.286 0 00-1.29 1.29v7.16H16.498a1.29 1.29 0 00-1.29 1.29v12.765h-2.871V34.2a1.29 1.29 0 00-1.29-1.289H9.725a24.374 24.374 0 01-.386-3.755 24.214 24.214 0 012.25-10.85 1.29 1.29 0 00-2.337-1.088 26.803 26.803 0 00-2.49 12.002c.03 1.235.148 2.47.348 3.691H1.29a1.29 1.29 0 00-1.289 1.29V56.86a1.29 1.29 0 001.29 1.289h9.757a1.29 1.29 0 001.289-1.29v-1.225h4.849l19.642 7.704a15.538 15.538 0 009.54.597l15.396-3.913a5.608 5.608 0 004.118-6.59zM49.669 31.119v20.145l-3.446.789a13.085 13.085 0 01-5.444.079l-.018-.005v-1.954c.983-1.467 1.308-3.326.793-5.023a5.79 5.79 0 00-.79-1.632l-.003-.004V31.119h8.908zM29.274 16.03l8.908.03v25.407l-4.979-2.061-3.93-1.627V16.03zm-11.488 8.446h8.908V36.71l-1.599-.662a1.288 1.288 0 00-.492-.098h-6.817V24.476zM9.758 55.57h-7.18V35.49h7.18v20.08zm51.37 1.952l-15.395 3.913a12.956 12.956 0 01-7.964-.498l-19.87-7.793a1.287 1.287 0 00-.47-.089h-5.093V38.53h12.01l8.34 3.452 4.564 1.89c1.615.67 2.388 2.563 1.726 4.176a3.687 3.687 0 01-.516.906 3.323 3.323 0 01-3.379 1.166l-.03-.008a3.15 3.15 0 01-.222-.064l-8.674-3.335-.107-.04a1.289 1.289 0 10-.925 2.405s4.89 1.88 8.62 3.319c.074.03.149.056.224.081l2.863 1.102c.866.333 1.728.664 2.628.894a15.6 15.6 0 007.34.092l4.447-1.018c.004 0 .009-.003.013-.004l8.443-1.932a3.018 3.018 0 012.32.404 3.018 3.018 0 011.335 1.941 3.035 3.035 0 01-2.228 3.566zM16.484 10.844c.308 0 .617-.11.864-.332a24.503 24.503 0 017.945-4.793 24.554 24.554 0 019.953-1.413c2.413.158 4.778.673 7.028 1.53a1.289 1.289 0 10.917-2.408 26.75 26.75 0 00-7.776-1.695 27.149 27.149 0 00-11.007 1.565 27.104 27.104 0 00-8.788 5.3 1.289 1.289 0 00.864 2.246z" fill="#0EBAB9"/><path d="M45.747 20.044a1.288 1.288 0 001.819-.127l10.606-12.21a1.289 1.289 0 10-1.946-1.69L45.62 18.225a1.289 1.289 0 00.127 1.818zm9.504-5.511a3.24 3.24 0 00-3.236 3.236 3.24 3.24 0 003.236 3.236 3.24 3.24 0 003.237-3.236 3.24 3.24 0 00-3.237-3.236zm0 3.894a.659.659 0 11.001-1.317.659.659 0 010 1.317zm-7.158-6.764a3.24 3.24 0 003.236-3.236 3.24 3.24 0 00-3.236-3.237 3.24 3.24 0 00-3.236 3.237 3.24 3.24 0 003.236 3.236zm0-3.895a.66.66 0 11-.002 1.318.66.66 0 01.002-1.318zm-36.191 6.105a1.3 1.3 0 001.252.795 1.302 1.302 0 001.164-.893 1.3 1.3 0 00-.442-1.417 1.303 1.303 0 00-1.5-.05 1.3 1.3 0 00-.474 1.566z" fill="#0EBAB9"/></svg>