<svg width="66" height="66" fill="none" xmlns="http://www.w3.org/2000/svg"><g clip-path="url(#clip0)" fill="#0EBAB9"><path d="M63.938 26.683h-3.96a.136.136 0 01-.135-.099 27.401 27.401 0 00-3.324-8.019.135.135 0 01.016-.167l2.808-2.808c.39-.39.604-.907.604-1.458a2.05 2.05 0 00-.604-1.458l-6.017-6.017a2.048 2.048 0 00-1.458-.604 2.05 2.05 0 00-1.458.604l-2.808 2.808a.135.135 0 01-.167.016 27.401 27.401 0 00-8.02-3.324.136.136 0 01-.099-.135v-3.96A2.064 2.064 0 0037.255 0h-8.508a2.065 2.065 0 00-2.063 2.062v3.96a.136.136 0 01-.099.135 27.403 27.403 0 00-8.019 3.324.135.135 0 01-.167-.016L15.59 6.657a2.05 2.05 0 00-1.458-.604 2.05 2.05 0 00-1.458.604l-6.017 6.017c-.39.39-.604.907-.604 1.458 0 .55.215 1.069.604 1.458l2.808 2.808c.043.043.05.112.016.167a27.401 27.401 0 00-3.324 8.02.136.136 0 01-.135.098h-3.96A2.064 2.064 0 000 28.746v8.508c0 1.138.925 2.063 2.062 2.063h3.96c.065 0 .121.041.135.099a27.4 27.4 0 003.324 8.019.135.135 0 01-.016.167L6.657 50.41a2.05 2.05 0 00-.604 1.458c0 .551.215 1.07.604 1.459l6.017 6.016c.39.39.907.604 1.458.604a2.05 2.05 0 001.458-.604l2.808-2.808a.134.134 0 01.167-.015 27.406 27.406 0 008.02 3.324c.057.013.098.07.098.134v3.96c0 1.137.926 2.062 2.063 2.062h8.509a2.065 2.065 0 002.062-2.062v-3.96c0-.064.042-.12.1-.134a27.41 27.41 0 008.018-3.325.134.134 0 01.167.016l2.808 2.808c.39.39.908.604 1.458.604.551 0 1.07-.214 1.459-.604l1.419-1.42a.965.965 0 10-1.364-1.363l-1.42 1.419a.13.13 0 01-.094.039.13.13 0 01-.094-.04l-2.807-2.807a2.058 2.058 0 00-2.543-.295 25.476 25.476 0 01-7.455 3.09 2.057 2.057 0 00-1.581 2.012v3.96c0 .073-.06.133-.134.133h-8.508a.133.133 0 01-.133-.133v-3.96c0-.962-.65-1.79-1.582-2.011a25.474 25.474 0 01-7.455-3.091 2.058 2.058 0 00-2.542.295l-2.808 2.808a.13.13 0 01-.094.039.13.13 0 01-.094-.04l-6.017-6.016a.13.13 0 01-.039-.094.13.13 0 01.04-.094l2.807-2.807a2.058 2.058 0 00.295-2.543 25.473 25.473 0 01-3.09-7.455 2.057 2.057 0 00-2.012-1.581h-3.96a.133.133 0 01-.133-.133v-8.51c0-.073.06-.132.133-.132h3.96c.963 0 1.79-.65 2.012-1.581a25.47 25.47 0 013.09-7.456 2.059 2.059 0 00-.295-2.542l-2.807-2.808a.13.13 0 01-.04-.094.13.13 0 01.04-.094l6.016-6.017a.13.13 0 01.094-.038.13.13 0 01.094.039l2.808 2.807a2.059 2.059 0 002.542.295 25.47 25.47 0 017.456-3.09 2.057 2.057 0 001.58-2.012v-3.96c0-.073.06-.133.134-.133h8.509c.073 0 .133.06.133.133v3.96c0 .963.65 1.79 1.58 2.012a25.47 25.47 0 017.456 3.09c.82.504 1.865.383 2.543-.295l2.807-2.807a.13.13 0 01.094-.04.13.13 0 01.094.04l6.017 6.016a.13.13 0 01.039.094.13.13 0 01-.04.094l-2.807 2.808a2.059 2.059 0 00-.295 2.542 25.47 25.47 0 013.09 7.456 2.057 2.057 0 002.012 1.58h3.96c.073 0 .133.06.133.134v8.509c0 .073-.06.133-.133.133h-3.96c-.962 0-1.79.65-2.011 1.58a25.47 25.47 0 01-3.091 7.456 2.059 2.059 0 00.295 2.543l2.808 2.807a.13.13 0 01.039.094.13.13 0 01-.04.094l-1.435 1.436a.965.965 0 001.365 1.364l1.435-1.435c.39-.39.604-.908.604-1.459a2.05 2.05 0 00-.604-1.458l-2.808-2.808a.135.135 0 01-.015-.167 27.403 27.403 0 003.324-8.02c.013-.056.07-.098.134-.098h3.96A2.065 2.065 0 0066 37.254v-8.508a2.065 2.065 0 00-2.062-2.063z"/><path d="M13.632 29.137a.964.964 0 00-1.095.813 20.91 20.91 0 00-.224 3.05c0 11.407 9.28 20.686 20.687 20.686 11.406 0 20.686-9.28 20.686-20.686 0-11.407-9.28-20.686-20.686-20.686a20.569 20.569 0 00-11.746 3.655 20.667 20.667 0 00-7.483 9.388l-.039.1a.965.965 0 101.795.707l.038-.096a18.74 18.74 0 016.786-8.511A18.647 18.647 0 0133 14.243c10.343 0 18.757 8.414 18.757 18.757 0 10.343-8.414 18.757-18.757 18.757-10.343 0-18.757-8.414-18.757-18.757 0-.927.068-1.858.202-2.768a.965.965 0 00-.813-1.095z"/><path d="M30.26 43.015c.039 0 .079 0 .118-.002a4.187 4.187 0 002.94-1.337L44.124 29.97a4.136 4.136 0 001.101-2.989 4.135 4.135 0 00-1.335-2.892 4.167 4.167 0 00-5.882.234L30.09 32.9l-2.263-2.188a4.167 4.167 0 00-5.886.1 4.167 4.167 0 00.1 5.886l5.326 5.147a4.142 4.142 0 002.892 1.17zm-6.932-10.862a2.227 2.227 0 011.606-.68c.56 0 1.12.208 1.552.626l2.973 2.874a.965.965 0 001.38-.04l8.586-9.3a2.236 2.236 0 013.156-.126c.438.405.692.956.716 1.552a2.218 2.218 0 01-.59 1.604L31.9 40.367c-.405.439-.98.7-1.577.718a2.223 2.223 0 01-1.616-.627l-5.325-5.147a2.236 2.236 0 01-.054-3.158z"/></g><defs><clipPath id="clip0"><path fill="#fff" d="M0 0h66v66H0z"/></clipPath></defs></svg>