<svg width="52" height="59" fill="none" xmlns="http://www.w3.org/2000/svg"><path d="M25.422 50.172a.428.428 0 00-.603 0l-7.435 7.431a.428.428 0 00.139.698.428.428 0 00.33 0 .428.428 0 00.139-.094l7.43-7.431a.428.428 0 000-.604zm-1.703 5.556c.112 0 .22-.045.3-.124l3.116-3.116a.428.428 0 00-.604-.604l-3.095 3.112a.429.429 0 00.304.732h-.021zm-1.489.454l-1.204 1.203a.428.428 0 00.304.732.429.429 0 00.3-.129l1.207-1.203a.428.428 0 10-.608-.603zM1.127 41.95a.428.428 0 00.603 0l7.431-7.436a.428.428 0 10-.603-.603l-7.431 7.43a.428.428 0 000 .608zm3.211-6.032l3.111-3.116a.428.428 0 10-.603-.604l-3.1 3.117a.428.428 0 00.305.727.428.428 0 00.287-.124zm-2.389 2.389l1.202-1.203a.429.429 0 10-.603-.608L1.34 37.703a.428.428 0 00.14.696.427.427 0 00.164.032.427.427 0 00.304-.124zm1.326 19.172c.21 0 .418-.046.608-.137l8.355-3.895a4.79 4.79 0 10-6.352-6.352L1.991 55.45a1.425 1.425 0 001.284 2.029zm-.51-1.665l3.883-8.36a3.904 3.904 0 012.885-2.217 3.944 3.944 0 013.809 6.279 3.904 3.904 0 01-1.463 1.169l-8.36 3.882a.565.565 0 01-.753-.753zm24.952-43.002l-17.498 2.765a.428.428 0 00-.236.12l-2.787 2.786a.429.429 0 000 .608l7.127 7.127-2.016 2.02a.43.43 0 000 .608l4.906 4.906-1.944 1.947a.428.428 0 00.464.696.428.428 0 00.14-.092l1.943-1.944 5.193 5.167a.427.427 0 00.607 0l2.02-2.02 7.128 7.127a.428.428 0 00.607 0l2.569-2.569.231-.23a.428.428 0 00.12-.236l2.73-17.482 8.686-8.69a9.74 9.74 0 002.534-4.425.26.26 0 000-.056c.127-.481.216-.972.265-1.468l.475-4.824a3.475 3.475 0 00-3.8-3.801l-4.812.462c-.492.05-.98.137-1.46.261h-.064a9.738 9.738 0 00-4.426 2.551l-8.702 8.686zm-10.23 10.247l-6.708-6.703 15.924-2.513-9.216 9.216zm-9.383-4.28l1.948-1.94 6.848 6.824-1.969 1.951-6.827-6.835zM33.046 43.72l-6.848-6.827 1.947-1.948 6.849 6.849-1.948 1.926zm2.431-2.68l-6.703-6.694 9.216-9.216-2.513 15.91zm6.978-38.884l4.82-.475a2.628 2.628 0 012.867 2.868l-.475 4.82c0 .193-.051.385-.081.578l-7.705-7.705c.188-.026.39-.06.574-.077v-.009zm-1.567.3l8.48 8.48a8.955 8.955 0 01-2.265 3.852L23.291 38.62l-4.867-4.867L30.74 21.437a.428.428 0 10-.608-.604L17.816 33.148l-4.601-4.606 4.571-4.576L37.023 4.73a8.989 8.989 0 013.865-2.264v-.009z" fill="#0EBAB9" stroke="#0EBAB9" stroke-width=".5"/><path d="M39.78 16.527a4.477 4.477 0 10.002-8.955 4.477 4.477 0 00-.002 8.955zm-2.57-7.033a3.621 3.621 0 110 5.137 3.595 3.595 0 01.013-5.137h-.013z" fill="#0EBAB9" stroke="#0EBAB9" stroke-width=".5"/></svg>