<svg width="66" height="90" fill="none" xmlns="http://www.w3.org/2000/svg"><path d="M22.102 76.676l2.285-1.3c.386-.212.878-.107 1.09.28l2.847 4.958c.211.386.106.879-.281 1.09l-2.285 1.3c-.387.21-.879.106-1.09-.281l-2.848-4.922c-.246-.387-.105-.879.282-1.125zM12.89 60.75l2.286-1.301c.386-.21.879-.105 1.09.282l2.847 4.956c.21.387.106.88-.281 1.09l-2.285 1.301c-.387.211-.88.105-1.09-.281l-2.848-4.957c-.21-.387-.105-.88.282-1.09z" fill="#E9E9EA"/><path d="M22.594 79.137l-1.371.773c-.668.387-1.512.14-1.899-.527L12.82 68.097c-.386-.667-.14-1.51.528-1.897l1.37-.774-2.003-3.48a8.143 8.143 0 00-2.531 10.792l3.867 6.68a8.114 8.114 0 0010.617 3.2l-2.074-3.481z" fill="#E9E9EA"/><path d="M40.418 86.73h-.633v-.632a.87.87 0 00-.878-.88.87.87 0 00-.88.88v.632h-.633a.87.87 0 00-.878.88.87.87 0 00.879.878h.633v.633a.87.87 0 00.879.879.87.87 0 00.878-.879v-.633h.633a.87.87 0 00.879-.879.87.87 0 00-.88-.879zM21.434 12.094c0-.07-.035-.106-.035-.176-.035-.035-.035-.106-.07-.14-.036-.036-.071-.106-.106-.141a.916.916 0 00-1.23 0 .501.501 0 00-.106.14 1.25 1.25 0 00-.14.317.59.59 0 000 .351c0 .07.035.105.035.176.035.07.035.105.07.141.035.035.07.105.105.14a.85.85 0 001.23 0 .484.484 0 00.106-.14.267.267 0 00.07-.14c.036-.036.036-.107.036-.177.07-.14.07-.246.035-.351zm25.594 70.593c0-.07-.035-.105-.035-.176-.036-.035-.036-.105-.071-.14-.035-.035-.07-.105-.105-.14a.916.916 0 00-1.23 0 .467.467 0 00-.107.14c-.07.105-.105.211-.14.316a.602.602 0 000 .352c0 .07.035.105.035.175.035.071.035.106.07.141.035.035.07.106.105.141a.85.85 0 001.231 0 .47.47 0 00.106-.14.265.265 0 00.07-.141c.035-.035.035-.106.035-.176.036-.14.036-.246.036-.352zM30.539 2.883A3.567 3.567 0 0127.726.07a.075.075 0 00-.07-.07c-.035 0-.035.035-.07.07a3.565 3.565 0 01-2.813 2.813c-.035 0-.07.035-.07.07s.035.035.07.07a3.567 3.567 0 012.813 2.813c0 .035.035.07.07.07s.035-.035.07-.07a3.567 3.567 0 012.813-2.813c.035 0 .07-.035.07-.07 0-.07-.035-.07-.07-.07zm28.336 35.332a1.806 1.806 0 01-1.406-1.407l-.035-.035s-.035 0-.035.035a1.806 1.806 0 01-1.407 1.407l-.034.035s0 .035.035.035a1.807 1.807 0 011.406 1.407l.035.035s.035 0 .035-.035a1.807 1.807 0 011.406-1.407c0-.035.035-.035 0-.07zm-5.871-7.664c-.281 0-.562-.035-.844-.07a.852.852 0 01-.738-.915c0-.245.035-.456.035-.668v-7.312c0-.21 0-.422-.035-.668a.852.852 0 01.738-.914c2.883-.457 5.625 1.511 6.083 4.395.456 2.882-1.513 5.625-4.395 6.081-.282.071-.563.071-.844.071zm.21-8.824v7.101a3.538 3.538 0 003.34-3.726c-.105-1.864-1.546-3.305-3.34-3.375zM30.433 30.55a5.304 5.304 0 01-5.308-5.308 5.304 5.304 0 015.308-5.309c.282 0 .564.036.844.071.458.07.774.457.739.914 0 .246-.035.457-.035.668v7.312c0 .176 0 .387.035.668a.851.851 0 01-.739.914c-.28.07-.562.07-.844.07zm-.21-8.823a3.537 3.537 0 00-3.34 3.726 3.564 3.564 0 003.34 3.34v-7.066z" fill="#0EBAB9"/><path d="M41.72 40.395c-6.329 0-11.462-5.133-11.497-11.497v-8.507c0-.81.633-1.441 1.44-1.441.107 0 .212 0 .317.035 2.04.421 7.137.948 10.653-3.481a1.453 1.453 0 012.039-.246l.106.105c.738.703 2.847 2.391 7.03 2.497a1.458 1.458 0 011.407 1.406v9.632c-.035 6.364-5.168 11.497-11.496 11.497zm-9.74-19.653v8.156c0 5.38 4.36 9.739 9.74 9.739 5.378 0 9.702-4.36 9.737-9.739v-9.28c-4.113-.176-6.504-1.723-7.664-2.743-3.972 4.711-9.632 4.254-11.813 3.867z" fill="#0EBAB9"/><path d="M56.063 22.957a.917.917 0 01-.598-.246 3.578 3.578 0 00-2.46-.984c-.177 0-.352 0-.563.035-.492.07-.915-.247-1.02-.738v-1.407c-4.113-.175-6.504-1.722-7.664-2.742-3.972 4.711-9.633 4.289-11.778 3.902v.141a.87.87 0 01-.878.879h-.141c-.176-.035-.352-.035-.563-.035-.808 0-1.581.28-2.214.773a.852.852 0 01-1.23-.14c-.141-.14-.176-.352-.176-.563v-4.957c0-6.539 5.308-11.812 11.812-11.812h3.093a6.965 6.965 0 015.486 2.706 6.962 6.962 0 012.812-.597 6.917 6.917 0 016.925 6.926v7.945a.832.832 0 01-.843.914zm-2.848-3.024a5.56 5.56 0 012.004.458v-6.328c0-2.848-2.285-5.168-5.133-5.168a5.1 5.1 0 00-2.672.738.868.868 0 01-1.195-.317c-.95-1.547-2.602-2.53-4.43-2.53h-3.094A10.052 10.052 0 0028.641 16.84v3.41a6.01 6.01 0 011.758-.352c.21-.703.95-1.124 1.687-.984 2.039.422 7.137.95 10.652-3.48a1.454 1.454 0 012.04-.247l.105.106c.738.703 2.848 2.39 7.032 2.496a1.46 1.46 0 011.406 1.406l-.106.738zM41.86 54.281a1.01 1.01 0 01-.633-.246c-.035-.035-.07-.07-.106-.14-.07-.106-.105-.212-.14-.317 0-.07-.036-.106-.036-.175 0-.247.106-.458.247-.634a.484.484 0 01.14-.105.266.266 0 01.14-.07c.071-.035.106-.035.176-.035a.599.599 0 01.352 0c.07 0 .106.035.176.035.035.035.105.035.14.07.036.035.106.07.141.105a.49.49 0 01.105.141.264.264 0 01.071.14c.035.036.035.106.035.177 0 .07 0 .105.035.176 0 .07 0 .105-.035.175 0 .07-.035.105-.035.176-.035.035-.035.105-.07.14-.036.036-.07.106-.106.14a.475.475 0 01-.14.107.267.267 0 01-.141.07c-.07.035-.105.035-.176.035 0 .035-.07.035-.14.035zm-.001 5.66c-.07 0-.105 0-.176-.035-.07 0-.105-.035-.176-.035-.035-.035-.105-.035-.14-.07-.035-.035-.105-.07-.14-.105a.849.849 0 01-.247-.634c0-.07 0-.105.036-.175 0-.07.035-.106.035-.176.035-.07.035-.106.07-.141.035-.035.07-.105.105-.14a.865.865 0 01.95-.176c.07.035.105.035.14.07.035.035.106.07.141.105.035.036.07.071.105.141.036.035.07.106.07.14.036.07.036.106.036.177 0 .07 0 .105.035.175 0 .246-.105.458-.246.634a.49.49 0 01-.14.105.269.269 0 01-.142.07c-.07.035-.105.035-.175.035 0 .035-.07.035-.141.035zm0 5.66c-.07 0-.105 0-.176-.035-.07 0-.105-.035-.176-.035-.07-.035-.105-.035-.14-.07-.035-.035-.105-.07-.14-.105a.49.49 0 01-.106-.141.267.267 0 01-.07-.14c-.035-.071-.035-.106-.035-.177 0-.07-.036-.105-.036-.175 0-.07 0-.105.036-.176 0-.07.035-.105.035-.176.035-.07.035-.105.07-.14.035-.036.07-.106.105-.14a.467.467 0 01.141-.107.266.266 0 01.14-.07.818.818 0 01.95.211c.035.035.07.07.105.14.036.036.07.106.07.141.036.036.036.106.036.176 0 .07 0 .106.035.175 0 .071 0 .106-.035.176 0 .071-.035.106-.035.176-.035.036-.035.106-.071.14-.035.036-.07.107-.105.142-.14.14-.352.21-.598.21zm.001 5.696c-.07 0-.106 0-.176-.035-.07 0-.106-.036-.176-.036-.035-.035-.105-.035-.14-.07-.036-.035-.106-.07-.141-.105a.494.494 0 01-.106-.141.266.266 0 01-.07-.14c-.035-.07-.035-.106-.035-.176a.59.59 0 010-.351 1.24 1.24 0 01.14-.317c.036-.035.07-.106.106-.14a.502.502 0 01.14-.107.265.265 0 01.141-.07.864.864 0 01.95.176c.034.035.07.07.105.14a.27.27 0 01.07.142c.035.07.035.105.035.176a.601.601 0 010 .351c0 .07-.035.105-.035.176-.035.035-.035.105-.07.14-.036.036-.07.106-.106.14a.467.467 0 01-.14.106.265.265 0 01-.141.07c-.07.035-.105.035-.176.035-.035 0-.105.036-.176.036zm12.41 6.398a.87.87 0 01-.88-.879V60.82a.87.87 0 01.88-.879.87.87 0 01.878.88v15.995a.87.87 0 01-.879.88zm-9.844-29.25h-5.098a1.552 1.552 0 01-1.476-1.054l-1.653-4.817c-.035-.105-.035-.176-.035-.281v-3.938a.87.87 0 01.879-.879c.14 0 .282.035.387.106a9.658 9.658 0 004.324 1.02c1.617 0 3.2-.423 4.605-1.16.422-.247.95-.07 1.196.35a.94.94 0 01.105.422v4.079c0 .105 0 .21-.035.28l-1.652 4.818c-.282.632-.88 1.054-1.547 1.054zm-4.992-1.758h4.851l1.582-4.535v-2.566a11.27 11.27 0 01-4.148.773 11.33 11.33 0 01-3.867-.668v2.426l1.582 4.57zM25.372 84.023c-.141 0-.282-.035-.423-.07a1.623 1.623 0 01-1.02-.774l-2.847-4.957c-.457-.808-.176-1.827.633-2.32l2.285-1.3c.808-.458 1.828-.177 2.32.632l2.848 4.957c.457.809.176 1.829-.633 2.32l-2.285 1.302c-.281.14-.598.21-.878.21zm-2.743-6.61l2.777 4.818L27.552 81l-2.778-4.817-2.144 1.23zm-6.469-9.351c-.597 0-1.16-.316-1.476-.843l-2.848-4.957c-.457-.809-.176-1.828.633-2.32l2.285-1.301c.809-.457 1.828-.176 2.32.632l2.848 4.957c.457.81.176 1.829-.633 2.321l-2.285 1.3a1.761 1.761 0 01-.844.211zm-2.742-6.609l2.777 4.816 2.145-1.23-2.777-4.816-2.145 1.23z" fill="#0EBAB9"/><path d="M21.047 84.34a9.063 9.063 0 01-7.804-4.5l-3.867-6.68c-2.356-4.113-1.126-9.352 2.812-11.953.387-.281.949-.176 1.23.246l.036.035 2.003 3.48a.866.866 0 01-.316 1.196l-1.371.773a.512.512 0 00-.176.704l6.504 11.285c.14.245.457.316.703.175l1.37-.703a.867.867 0 011.196.317l2.005 3.48a.867.867 0 01-.317 1.195l-.035.036c-1.266.597-2.602.914-3.973.914zM12.4 63.246a7.247 7.247 0 00-1.512 9.07l3.867 6.68c1.723 2.988 5.344 4.324 8.578 3.234l-1.09-1.863-.598.351c-1.09.633-2.495.247-3.128-.844l-6.469-11.32c-.633-1.09-.246-2.496.844-3.129l.598-.351-1.09-1.828z" fill="#0EBAB9"/><path d="M18.973 90C8.953 90 .832 81.879.832 71.86c0-10.02 8.121-18.141 18.14-18.141 10.02 0 18.141 8.121 18.141 18.14 0 10.02-8.12 18.141-18.14 18.141zm0-34.488c-9.035 0-16.383 7.312-16.383 16.382 0 9.071 7.348 16.348 16.383 16.348S35.355 80.93 35.355 71.86c0-9.035-7.347-16.347-16.382-16.347z" fill="#0EBAB9"/><path d="M61.688 77.695H35.53a.87.87 0 01-.879-.878c0-.07 0-.176.036-.246 2.601-8.65-2.32-17.79-11.004-20.356a18.061 18.061 0 00-3.34-.633.862.862 0 01-.809-.914l.212-4.043c.105-2.215 1.652-4.078 3.831-4.64l8.157-2.04 4.887-2.39a.872.872 0 011.16.387c0 .035.034.07.034.105l1.618 4.676h4.851l1.617-4.676c.176-.457.668-.703 1.126-.527.035 0 .07.034.105.034l4.887 2.391 8.156 2.04c2.145.527 3.692 2.425 3.832 4.64l1.301 23.273a3.592 3.592 0 01-3.41 3.797h-.211zm-25.031-1.757h25.03c1.02 0 1.864-.844 1.864-1.864v-.105L62.25 50.695a3.295 3.295 0 00-2.496-3.023l-8.227-2.075c-.07 0-.105-.035-.175-.07l-4.078-2.003-1.336 3.867a1.554 1.554 0 01-1.477 1.055h-5.098a1.552 1.552 0 01-1.476-1.055l-1.336-3.867-4.078 2.003c-.07.035-.106.035-.176.07l-8.227 2.075a3.295 3.295 0 00-2.495 3.023l-.176 3.2c9.913 1.3 16.91 10.406 15.61 20.32a37.01 37.01 0 00-.352 1.723z" fill="#0EBAB9"/></svg>