<svg width="90" height="82" fill="none" xmlns="http://www.w3.org/2000/svg"><path d="M12.67 32.967c-.727 0-1.318.59-1.318 1.319v5.006c0 6.036 4.91 10.947 10.944 10.947 6.036 0 10.948-4.911 10.948-10.947v-5.006a1.318 1.318 0 00-2.637 0v5.006c0 4.582-3.729 8.31-8.311 8.31-4.58 0-8.307-3.728-8.307-8.31v-5.006c0-.728-.59-1.319-1.318-1.319z" fill="#0EBAB9"/><path d="M89.99 69.102l-.763-7.92a1.33 1.33 0 00-.019-.196l-4.61-47.915c-.109-1.195-1.059-2.096-2.21-2.096h-8.143C73.55 4.882 68.368.131 62.094.131s-11.457 4.75-12.151 10.844h-8.144c-1.151 0-2.1.901-2.209 2.089l-.433 4.499a13.915 13.915 0 00-6.495-1.592c-2.881 0-5.672.891-8.015 2.53l-2.142-3.833a2.203 2.203 0 00-1.391-1.064 2.212 2.212 0 00-1.734.306L3.39 24.53H2.175A2.18 2.18 0 000 26.71v52.984c0 1.2.976 2.175 2.175 2.175H19.86a1.318 1.318 0 000-2.637H2.637V27.166h35.596L34.98 60.985a1.33 1.33 0 00-.02.199l-.76 7.912c-.06.588.13 1.158.535 1.606a2.258 2.258 0 001.672.741h5.553v7.79H25.392a1.318 1.318 0 000 2.636h17.03a2.178 2.178 0 002.174-2.175v-8.25H87.78c.637 0 1.246-.271 1.672-.742a2.06 2.06 0 00.537-1.6zM75.205 25.653a2.195 2.195 0 01-4.389 0 2.195 2.195 0 014.389 0zM62.094 2.768c4.818 0 8.817 3.572 9.493 8.207H52.6c.677-4.635 4.675-8.207 9.493-8.207zM51.178 23.46c1.209 0 2.192.984 2.192 2.193a2.195 2.195 0 01-4.389 0c0-1.21.986-2.193 2.197-2.193zm-30.742-7.087l2.657 4.752.018.032 1.885 3.372H8.157l12.28-8.156zm7.581 8.156l-2.078-3.716a11.347 11.347 0 016.722-2.205c2.231 0 4.365.638 6.217 1.848l-.392 4.073H28.018zm8.857 44.278l.604-6.28h21.687a1.318 1.318 0 100-2.637H37.733l4.453-46.278h7.675v7.395a4.838 4.838 0 00-3.515 4.646 4.837 4.837 0 004.833 4.83 4.835 4.835 0 004.829-4.83 4.837 4.837 0 00-3.51-4.645v-7.396h19.191v7.396a4.838 4.838 0 00-3.51 4.645 4.835 4.835 0 004.829 4.83 4.837 4.837 0 004.834-4.83 4.839 4.839 0 00-3.516-4.646v-7.395h7.675l4.453 46.278H65.245a1.318 1.318 0 100 2.637h21.463l.604 6.28H36.875z" fill="#0EBAB9"/></svg>