<svg width="85" height="90" fill="none" xmlns="http://www.w3.org/2000/svg"><path d="M83.586 13.002c.729 0 1.319-.59 1.319-1.318V9.359c0-5.16-4.198-9.359-9.359-9.359H36.782c-5.16 0-9.359 4.198-9.359 9.359v18.064H9.36c-5.161 0-9.36 4.199-9.36 9.359v38.766c0 5.16 4.198 9.357 9.359 9.357h2.508a1.318 1.318 0 100-2.637H9.359a6.729 6.729 0 01-6.722-6.72V36.782a6.73 6.73 0 016.722-6.722h18.064v18.065c0 5.159 4.199 9.356 9.359 9.356h4.586l1.154 24.787H17.14a1.318 1.318 0 100 2.637h25.671c.672 2.51 2.674 4.421 5.338 4.953.477.096.952.142 1.418.142 2.648 0 5.043-1.491 6.22-3.987l3.758-7.96a4.308 4.308 0 014.988-2.328l8.513 2.236c3.14.825 6.297-.535 7.855-3.383 1.558-2.848 1-6.24-1.388-8.44l-9.4-8.657h5.433c5.16 0 9.359-4.197 9.359-9.356V16.957a1.318 1.318 0 10-2.637 0v31.168a6.729 6.729 0 01-6.722 6.72H67.25l-9.769-8.997v-9.066c0-5.16-4.198-9.36-9.358-9.36H30.06V9.36a6.73 6.73 0 016.722-6.722h38.764a6.73 6.73 0 016.722 6.722v2.325c0 .728.59 1.318 1.318 1.318zm-4.998 60.31c-.746 1.363-2.47 2.73-4.872 2.099l-8.514-2.236a6.944 6.944 0 00-8.042 3.752l-3.756 7.96c-1.06 2.248-3.216 2.69-4.738 2.386-1.523-.304-3.343-1.54-3.458-4.023l-1.71-36.678c-.098-2.126 1.217-3.514 2.482-4.103a4.45 4.45 0 011.863-.413c.945 0 1.967.312 2.874 1.148l27.01 24.874c1.828 1.684 1.606 3.872.86 5.235zM48.123 30.06a6.73 6.73 0 016.722 6.722v6.638l-2.341-2.156c-2.111-1.944-5.038-2.398-7.639-1.185-2.6 1.214-4.133 3.748-4 6.615l.38 8.15h-4.463a6.728 6.728 0 01-6.722-6.72V30.06h18.063z" fill="#0EBAB9"/></svg>