<svg width="90" height="90" fill="none" xmlns="http://www.w3.org/2000/svg"><g clip-path="url(#clip0)"><path fill-rule="evenodd" clip-rule="evenodd" d="M42.437 39.225c.458 2.414 1.08 4.793 1.779 6.817l6.76 2.65 7.54-2.65c-.264-14.267-5.596-21.109-10.13-23.323-1.634-1.244-3.308-1.713-3.308-1.713s-2.203 3.523-2.317 3.523c-.847 2.015-1.166 4.643-1.111 7.48l.787 7.216z" fill="#ECEAEC"/><path d="M85.224 27.769H69.96a4.783 4.783 0 00-4.776 4.779v17.566h-5.709c.317-1.153.435-2.513.358-4.096-.124-6.69-1.338-12.329-3.609-16.759-1.763-3.44-3.82-5.502-5.586-6.734 2.072-2.13 3.27-5.162 3.27-8.658 0-6.29-5.017-11.406-11.184-11.406-6.166 0-11.184 5.117-11.184 11.406 0 .729.59 1.319 1.318 1.319h.896a9.277 9.277 0 00-.126 1.519c0 4.433 3.167 8.137 7.355 8.967-.44 1.63-.657 3.552-.657 5.735l-3.288 2.828-8 .647-9.23-3.05c-.845-.282-1.804-.6-2.636 0-.82.592-.82 1.627-.82 1.967v6.862c0 .728.59 1.318 1.319 1.318h1.57l-2.408 8.319a1.319 1.319 0 002.533.733l2.62-9.052h3.748c-4.662 14.216-2.002 23.705 2.086 33.308h-2.37l-9.87-11.036 2.087-7.21a1.318 1.318 0 10-2.533-.734l-1.996 6.897C6.964 63.101 1.44 67.358.034 73.484c-.163.709.28 1.416.989 1.579l1.871.43c-.478 4.967 2.793 9.652 7.78 10.8a10.016 10.016 0 007.615-1.283 10.02 10.02 0 004.1-5.03l1.476.34c.44.101.858.153 1.275-.072.387-.209.645-.586.742-1.011.093-.432.163-.87.213-1.313h27.572c.882 5.482 5.546 9.614 11.117 9.614 5.57 0 10.235-4.132 11.117-9.614h1.006l.117.001.128.001c.377 0 .922-.041 1.369-.496.224-.228.486-.635.466-1.282a14.945 14.945 0 00-.54-3.572c1.05-6.375.04-10.258-1.458-13.296a3.47 3.47 0 001.575-2.906v-3.623h6.659a4.783 4.783 0 004.776-4.78V32.549a4.782 4.782 0 00-4.775-4.78zM16.889 82.777a7.394 7.394 0 01-5.623.947c-3.568-.821-5.948-4.093-5.775-7.63l14.3 3.29a7.411 7.411 0 01-2.902 3.393zm6.597-5.25l-20.508-4.72c1.583-4.333 5.842-7.202 10.497-6.955l10.046 11.233c-.009.148-.02.295-.035.442zm19.913-22.974c-.382 1.01-.382 2.254-.382 3.976v4.975h-4.828V56.68c0-7.717 4.212-9.092 6.102-9.319h12.925c-.053 1.752-.448 2.997-1.198 3.787-.874.92-2.37 1.37-4.574 1.371l-4.732.005c-1.688 0-2.802.683-3.313 2.03zm-.382 11.588v3.148h-9.402c.106-.977.41-1.732.91-2.255.742-.777 1.788-.893 2.346-.893h6.146zm14.14-21.417h-11.99a49.22 49.22 0 01-1.263-4.88l3.645-2.365c1.99-1.292 3.025-3.118 2.84-5.01-.163-1.677-1.303-3.175-2.904-3.816-1.461-.585-3.034-.401-4.424.488.114-1.261.328-2.387.636-3.342a9.291 9.291 0 001.668-.33 10.922 10.922 0 003.078-1.22c2.539 1.518 8.124 6.438 8.714 20.475zM34.274 12.549c.622-4.212 4.175-7.451 8.451-7.451 4.713 0 8.548 3.934 8.548 8.77 0 3.932-1.886 7.102-4.927 8.497V15.43c0-1.202-.46-2.675-2.649-2.874a1.324 1.324 0 00-.12-.006h-9.303zm1.992 4.156c0-.52.059-1.028.176-1.52h7.07c.082.01.142.02.184.028.007.049.013.119.013.216v7.712a6.53 6.53 0 01-.946.07h-.009c-3.578-.003-6.488-2.92-6.488-6.506zm-1.71 20.377l3.123-.253a1.32 1.32 0 00.754-.314l5.636-4.848c.545-.47 1.127-.71 1.694-.71.252 0 .5.047.742.144.697.279 1.191.916 1.26 1.624.088.89-.5 1.794-1.651 2.542l-6.28 4.076h-5.277v-2.261zm-5.57.45l2.934-.237v2.048h-3.41c-.443 0-.55-.367-.563-.675-.007-.175.01-1.051 1.038-1.136zm-3.121-.91a3.857 3.857 0 00-.552 2.154c.008.191.032.376.066.556 0 .004-.002.008-.001.011H18.99v-5.005l6.879 2.274-.005.01zm2.652 5.358h11.707c.255 0 .504-.074.718-.213l.597-.387c.287 1.269.614 2.503.97 3.67-2.689.793-6.957 3.358-6.957 11.629v6.957c-.925.187-2.019.618-2.934 1.576-.965 1.01-1.516 2.378-1.648 4.076h-2.66c-2.68-7.723-3.699-15.942.207-27.308zm2.173 33.303a105.95 105.95 0 01-1.4-3.358h13.69c1.774 0 2.673-.807 2.673-2.4v-9.678H56.06a1.318 1.318 0 100-2.636H45.663c.017-.75.065-1.362.202-1.723.066-.176.124-.328.848-.328l4.734-.005c2.964-.003 5.085-.72 6.483-2.193.065-.068.126-.14.188-.21h17.81v3.623a.846.846 0 01-.834.836H61.969a1.318 1.318 0 100 2.636h12.35c1.042 1.934 1.98 4.341 1.924 8.143a14.257 14.257 0 00-11.623-5.952 14.2 14.2 0 00-10.169 4.25 14.523 14.523 0 00-4.145 9l-19.616-.005zm34.094 9.62c-4.121 0-7.597-2.97-8.438-6.979h16.876c-.84 4.008-4.317 6.978-8.438 6.978zm9.936-9.615H52.955c.647-5.962 5.631-10.614 11.665-10.614 5.297 0 9.745 3.493 11.219 8.383l.014.046c.209.702.356 1.432.436 2.185H74.72zm12.643-27.316c0 1.181-.96 2.142-2.14 2.142h-17.4v-6.808h19.541v4.666zm0-7.302H67.822v-2.804h19.541v2.804zm0-5.441H67.822v-2.681c0-1.181.96-2.142 2.14-2.142h15.261c1.18 0 2.14.96 2.14 2.142v2.681z" fill="#0EBAB9"/></g><defs><clipPath id="clip0"><path fill="#fff" d="M0 0h90v90H0z"/></clipPath></defs></svg>