<svg width="90" height="56" fill="none" xmlns="http://www.w3.org/2000/svg"><path d="M45.018 43.898a4.587 4.587 0 00-3.62-.852 4.566 4.566 0 00-1.759-2.911 4.568 4.568 0 00-3.405-.89 4.64 4.64 0 00-.876.21 4.574 4.574 0 00-1.635-2.374 4.6 4.6 0 00-4.531-.583 4.566 4.566 0 00-1.585-2.206 4.57 4.57 0 00-3.405-.89 4.564 4.564 0 00-2.581 1.261l-4.826-.32 2.958-24.027 5.3.36a1.318 1.318 0 001.262-.714l1.986-3.875a2.345 2.345 0 012.702-1.186l2.95.816a1.32 1.32 0 00.702-2.541l-2.949-.816a4.992 4.992 0 00-5.75 2.524l-1.59 3.103-4.29-.292.101-.825a4.826 4.826 0 00-4.195-5.374L5.824.246a1.318 1.318 0 10-.322 2.617l10.158 1.25a2.17 2.17 0 011.454.824 2.17 2.17 0 01.446 1.611l-3.488 28.336a2.187 2.187 0 01-2.434 1.901L1.48 35.535a1.318 1.318 0 00-.323 2.617l10.158 1.25a4.834 4.834 0 004.812-2.46l3.61.239a4.565 4.565 0 00-.466 2.731 4.569 4.569 0 001.78 3.037 4.563 4.563 0 003.405.89l.04-.007.005.04a4.568 4.568 0 001.778 3.037 4.575 4.575 0 003.448.88 4.584 4.584 0 005.228 3.96l.004.044a4.567 4.567 0 001.78 3.037 4.563 4.563 0 003.405.89 4.568 4.568 0 003.036-1.78l2.727-3.6a4.603 4.603 0 00-.89-6.442zm-20.923-2.671a1.948 1.948 0 01-1.453-.38 1.949 1.949 0 01-.758-1.295 1.949 1.949 0 01.38-1.453l1.003-1.326a1.949 1.949 0 011.296-.759 1.95 1.95 0 011.452.38c.418.316.688.776.76 1.295a1.949 1.949 0 01-.38 1.453l-1.005 1.326a1.95 1.95 0 01-1.295.759zm3.777 3.58a1.949 1.949 0 01-.76-1.295 1.949 1.949 0 01.38-1.453l1.005-1.325.887-1.172a1.96 1.96 0 012.747-.38 1.964 1.964 0 01.38 2.749l-1.891 2.497a1.964 1.964 0 01-2.748.38zm5.23 3.96a1.949 1.949 0 01-.76-1.295 1.948 1.948 0 01.38-1.452l1.89-2.498.687-.906a1.949 1.949 0 011.296-.759 1.964 1.964 0 011.833 3.126l-2.579 3.405a1.964 1.964 0 01-2.748.38zm10.704-.02l-2.727 3.602a1.949 1.949 0 01-1.296.758 1.95 1.95 0 01-1.453-.379 1.95 1.95 0 01-.758-1.295 1.949 1.949 0 01.38-1.453l2.577-3.403.001-.002.148-.196a1.95 1.95 0 011.296-.759 1.951 1.951 0 011.453.38 1.964 1.964 0 01.379 2.748z" fill="#0EBAB9"/><path d="M89.99 36.682a1.319 1.319 0 00-1.47-1.147l-10.157 1.25a2.186 2.186 0 01-2.435-1.9l-.104-.846-.024-.196-3.36-27.295a2.17 2.17 0 01.446-1.61c.36-.46.876-.753 1.455-.824l10.158-1.25a1.318 1.318 0 00-.322-2.618L74.019 1.497a4.827 4.827 0 00-4.23 4.91l-2.562.315-7.932-4.464a6.295 6.295 0 00-3.682-.787l-.008.001-2.388.221a1.318 1.318 0 10.243 2.626l2.394-.222a3.67 3.67 0 012.147.458l8.225 4.628c.257.17.57.248.887.21l2.975-.367 2.183 17.726.754 6.13-4.745.004c-.317 0-.622.114-.861.321l-.367.286-11.915-10.269c2.723-.782 5.319-2.676 7.745-5.656a1.319 1.319 0 00-2.044-1.665C58.125 19.234 55.273 20.95 52.36 21c-4.243.08-7.36-3.438-7.389-3.47a1.318 1.318 0 00-2.043.058l-3.542 4.608a6.86 6.86 0 01-7.91 2.252l-.378-.143a.87.87 0 01-.518-.529.87.87 0 01.068-.737l9.243-15.91A3.693 3.693 0 0142.74 5.31l5.472-.506a1.318 1.318 0 10-.243-2.626l-5.472.507a6.334 6.334 0 00-4.885 3.119l-9.243 15.91a3.512 3.512 0 00-.273 2.945 3.511 3.511 0 002.072 2.111l.378.143a9.482 9.482 0 0010.932-3.111l2.642-3.439c1.416 1.22 4.058 3.028 7.43 3.25l17.216 14.839c.31.267.497.638.527 1.045.03.408-.1.803-.366 1.112l-.67.778a2.346 2.346 0 01-3.303.242 1.317 1.317 0 00-.173-.124l-4.47-3.854a1.319 1.319 0 00-1.721 1.997l3.632 3.132-1.657 1.923a2.342 2.342 0 01-2.048.798 2.33 2.33 0 01-1.253-.554c-.006-.006-.013-.01-.02-.015l-4.152-3.581a1.319 1.319 0 00-1.722 1.997l3.173 2.736-1.666 1.936c-.51.59-1.277.889-2.05.798a1.318 1.318 0 10-.308 2.618 4.978 4.978 0 004.356-1.695l1.781-2.07a4.973 4.973 0 005.906-1.248l1.785-2.07a4.99 4.99 0 005.906-1.244l.671-.779a4.14 4.14 0 00.999-3.029 4.138 4.138 0 00-1.435-2.846l-1.082-.933 3.955-.003a4.828 4.828 0 005.324 3.883l10.158-1.25a1.319 1.319 0 001.147-1.47zm-77.828-5.65a3.871 3.871 0 00-3.866-3.867 3.871 3.871 0 00-3.867 3.867 3.871 3.871 0 003.867 3.867 3.871 3.871 0 003.866-3.867zm-5.097 0c0-.679.552-1.23 1.23-1.23a1.231 1.231 0 010 2.46c-.678 0-1.23-.552-1.23-1.23z" fill="#0EBAB9"/><path d="M85.429 31.032a3.871 3.871 0 00-3.867-3.867 3.871 3.871 0 00-3.867 3.867 3.871 3.871 0 003.867 3.867 3.871 3.871 0 003.867-3.867zm-5.097 0a1.231 1.231 0 012.46 0c0 .678-.552 1.23-1.23 1.23-.678 0-1.23-.552-1.23-1.23z" fill="#0EBAB9"/></svg>