<svg width="53" height="52" fill="none" xmlns="http://www.w3.org/2000/svg"><path d="M45.472 2.932a.431.431 0 00-.431-.302.431.431 0 00-.431.302 2.52 2.52 0 01-1.674 1.674.43.43 0 000 .828 2.519 2.519 0 011.674 1.673.431.431 0 00.43.302.431.431 0 00.432-.302 2.535 2.535 0 011.674-1.673.431.431 0 000-.828 2.536 2.536 0 01-1.674-1.674zm-.431 3.05a3.352 3.352 0 00-.962-.962c.383-.252.71-.579.962-.962.25.383.576.71.957.962a3.334 3.334 0 00-.936.962h-.021zM27.163 32.585l-1.505-.664a.438.438 0 10-.35.802l1.506.665a.43.43 0 00.451-.057.43.43 0 00-.102-.733v-.013z" fill="#0EBAB9" stroke="#0EBAB9" stroke-width=".5"/><path d="M30.989 35.635l-1.32-5.43a.405.405 0 01.095-.367l3.726-4.167a1.295 1.295 0 00-.862-2.113l-5.573-.432a.404.404 0 01-.323-.198l-2.795-4.826a1.269 1.269 0 00-2.273.155l-2.127 5.176a.402.402 0 01-.289.241l-5.464 1.169a1.294 1.294 0 00-.552 2.213l4.257 3.618a.432.432 0 01.142.35l-.57 5.581a1.293 1.293 0 001.264 1.402c.236-.001.468-.067.669-.19l4.744-2.933a.43.43 0 01.376-.026l5.11 2.26a1.294 1.294 0 001.752-1.462l.013-.021zm-.975.612a.398.398 0 01-.431.06l-5.107-2.26a1.263 1.263 0 00-1.177.082l-4.745 2.933a.431.431 0 01-.621-.392l.57-5.556a1.294 1.294 0 00-.432-1.1l-4.257-3.618a.405.405 0 01.15-.708l5.466-1.16a1.294 1.294 0 00.905-.759l2.127-5.176a.405.405 0 01.35-.254h.03a.393.393 0 01.349.202l2.808 4.823a1.293 1.293 0 001.005.63l5.568.43a.431.431 0 01.276.682l-3.727 4.167a1.269 1.269 0 00-.289 1.147l1.294 5.43a.402.402 0 01-.112.397zM7.064 12.883l3.019 2.411a1.014 1.014 0 001.648-.763l.09-3.844a.143.143 0 01.065-.12l3.218-2.105a1.01 1.01 0 00-.216-1.799L11.256 5.37a.159.159 0 01-.09-.099l-1.053-3.713a1.014 1.014 0 00-1.755-.35l-2.355 3.05a.15.15 0 01-.121.06l-3.843-.19a1.01 1.01 0 00-.863 1.579l2.187 3.166a.155.155 0 010 .138L1.996 12.61a1.005 1.005 0 00.678 1.335c.182.05.374.047.555-.006l3.684-1.104a.151.151 0 01.15.047zm-4.068.25a.146.146 0 01-.146-.039.138.138 0 01-.03-.155l1.367-3.593a1.022 1.022 0 00-.143-.953L1.888 5.227a.142.142 0 010-.155.134.134 0 01.134-.074l3.843.186a1.01 1.01 0 00.862-.393l2.334-3.058a.147.147 0 01.258.048l1.01 3.713a1.013 1.013 0 00.617.69l3.631 1.295a.138.138 0 01.095.12.146.146 0 01-.065.143l-3.23 2.083a.993.993 0 00-.457.82l-.09 3.847a.151.151 0 01-.087.13.142.142 0 01-.155-.022L7.59 12.188a1 1 0 00-.63-.22 1.09 1.09 0 00-.289.04l-3.675 1.125zm40.329 6.332a.824.824 0 00.724.431h.04a.825.825 0 00.724-.492l1.044-2.41 2.588-.497a.816.816 0 00.664-.595.825.825 0 00-.246-.863l-1.967-1.725.337-2.635a.831.831 0 00-1.242-.82l-2.265 1.342-2.398-1.135a.829.829 0 00-1.156.928l.57 2.566-1.82 1.932a.828.828 0 00.521 1.393l2.614.25 1.268 2.33zm-1.967-5.314a.824.824 0 00.211-.746l-.547-2.528 2.342 1.104a.829.829 0 00.772-.034l2.238-1.324-.332 2.588a.862.862 0 00.272.724l1.928 1.725-2.54.483a.815.815 0 00-.604.48l-1.044 2.367-1.247-2.268a.835.835 0 00-.642-.432l-2.588-.259 1.781-1.88zM11.843 39.84l.332-2.587a.828.828 0 00-1.23-.829L8.72 37.718l-2.372-1.112a.827.827 0 00-1.16.923l.582 2.527-1.794 1.907a.824.824 0 00.517 1.384l2.588.246 1.26 2.294a.82.82 0 00.72.432H9.1a.81.81 0 00.716-.488l1.03-2.376 2.588-.487a.825.825 0 00.397-1.424l-1.988-1.703zm-1.19 2.778a.829.829 0 00-.6.475l-1.027 2.329-1.22-2.23a.82.82 0 00-.639-.431L4.64 42.5l1.725-1.85a.828.828 0 00.207-.737l-.54-2.485 2.326 1.092a.832.832 0 00.768-.03l2.2-1.294-.324 2.544a.824.824 0 00.267.72l1.894 1.696-2.51.461zM50.971 37.9l-3.019-.255-1.505-2.627a.897.897 0 00-1.284-.269.884.884 0 00-.303.381l-1.2 2.77-2.954.625a.885.885 0 00-.686.668.898.898 0 00.28.863l2.304 1.992-.324 3.02a.893.893 0 00.885 1c.161 0 .32-.045.457-.129l2.588-1.574 2.76 1.238a.888.888 0 001.225-1.014l-.694-2.968 2.031-2.242a.89.89 0 00-.56-1.48zm-2.07 3.122a.863.863 0 00-.203.798l.686 2.967-2.764-1.237a.89.89 0 00-.82.051l-2.622 1.553.323-3.02a.86.86 0 00-.302-.767l-2.286-2.01 2.925-.595a.89.89 0 00.633-.526l1.208-2.795 1.51 2.622a.884.884 0 00.694.431l3.02.285-2.002 2.243zm-22.86-29.968a4.581 4.581 0 013.02 3.019.431.431 0 00.431.302.432.432 0 00.431-.302 4.57 4.57 0 013.02-3.02.43.43 0 00.302-.43.431.431 0 00-.302-.41 4.59 4.59 0 01-3.02-3.02.432.432 0 00-.431-.306.431.431 0 00-.431.306 4.597 4.597 0 01-3.02 3.02.431.431 0 00-.306.41.43.43 0 00.306.43zm3.451-2.618A5.461 5.461 0 0031.7 10.64a5.443 5.443 0 00-2.208 2.208 5.434 5.434 0 00-2.204-2.208 5.452 5.452 0 002.204-2.204zM9.022 27.949a.431.431 0 00-.431-.302.431.431 0 00-.41.302A2.299 2.299 0 016.66 29.47a.431.431 0 00-.307.432.431.431 0 00.307.431 2.317 2.317 0 011.522 1.523.431.431 0 00.41.306.431.431 0 00.431-.302 2.316 2.316 0 011.523-1.527.432.432 0 00.302-.431.432.432 0 00-.302-.432 2.299 2.299 0 01-1.523-1.522zm-.431 2.76c-.22-.324-.5-.603-.824-.823a3.07 3.07 0 00.824-.829c.222.326.503.607.828.829a3.2 3.2 0 00-.81.823H8.59zm30.273.604a2.372 2.372 0 01-1.57-1.57.43.43 0 00-.43-.302.431.431 0 00-.432.302 2.372 2.372 0 01-1.57 1.57.432.432 0 00-.306.431.431.431 0 00.306.431 2.381 2.381 0 011.57 1.57.431.431 0 00.431.307.43.43 0 00.431-.307 2.383 2.383 0 011.57-1.57.431.431 0 00.307-.43.43.43 0 00-.307-.432zm-1.98 1.294a3.204 3.204 0 00-.862-.863c.34-.23.632-.523.863-.863.229.34.522.634.862.863-.34.224-.633.513-.862.85v.013zm-.021 14.509a3.953 3.953 0 01-2.627-2.61.432.432 0 00-.43-.305.431.431 0 00-.432.306 3.943 3.943 0 01-2.61 2.61.431.431 0 000 .823 3.942 3.942 0 012.61 2.588.431.431 0 00.431.306.432.432 0 00.431-.306 3.956 3.956 0 012.614-2.588.432.432 0 000-.824h.013zm-3.02 2.226a4.786 4.786 0 00-1.815-1.812 4.83 4.83 0 001.816-1.816 4.818 4.818 0 001.812 1.816 4.774 4.774 0 00-1.816 1.812h.004z" fill="#0EBAB9" stroke="#0EBAB9" stroke-width=".5"/></svg>